<?xml version="1.0" encoding="UTF-8"?>
<svg version="1.1" xmlns="http://www.w3.org/2000/svg" width="243" height="207">
<path d="M0 0 C80.19 0 160.38 0 243 0 C243 68.31 243 136.62 243 207 C162.81 207 82.62 207 0 207 C0 138.69 0 70.38 0 0 Z " fill="#F9FAFA" transform="translate(0,0)"/>
<path d="M0 0 C0.04667041 19.00148346 0.08196446 38.00295533 0.10362434 57.00448418 C0.11394762 65.82673938 0.12802797 74.64895902 0.15087891 83.47119141 C0.17078068 91.15846502 0.18370878 98.84571289 0.18817699 106.53301156 C0.19078984 110.60535183 0.19695283 114.67761843 0.21146011 118.74993515 C0.22499335 122.57970895 0.22923133 126.40937845 0.22621536 130.23917389 C0.22676744 131.64771465 0.23077021 133.05625875 0.23841095 134.4647789 C0.24830506 136.38208265 0.24479046 138.29944186 0.24050903 140.21676636 C0.24235262 141.29157698 0.24419621 142.3663876 0.24609566 143.47376823 C0 146 0 146 -2 148 C-4.65117073 148.24609566 -4.65117073 148.24609566 -8.08694458 148.24050903 C-9.38547363 148.24325836 -10.68400269 148.24600769 -12.0218811 148.24884033 C-13.46917816 148.24176154 -14.91647429 148.23449191 -16.36376953 148.22705078 C-17.88128655 148.2264869 -19.39880411 148.22680278 -20.9163208 148.22793579 C-25.04421737 148.2285112 -29.17199845 148.21672657 -33.29986811 148.20278788 C-37.61070328 148.19031176 -41.92154091 148.18911249 -46.23239136 148.18673706 C-54.39927244 148.1805131 -62.56610017 148.16408992 -70.73295772 148.14403808 C-80.02907126 148.12170754 -89.3251873 148.11069282 -98.62132096 148.10064721 C-117.74757843 148.07972446 -136.87378298 148.04412934 -156 148 C-156.33 151.96 -156.66 155.92 -157 160 C-154.69 160 -152.38 160 -150 160 C-150 161.32 -150 162.64 -150 164 C-152.31 164 -154.62 164 -157 164 C-157 169.94 -157 175.88 -157 182 C-154.36 182 -151.72 182 -149 182 C-149 183.32 -149 184.64 -149 186 C-150.60115576 186.2493357 -152.20620159 186.47378648 -153.8125 186.6875 C-155.15248047 186.87892578 -155.15248047 186.87892578 -156.51953125 187.07421875 C-159 187 -159 187 -160.76171875 185.64453125 C-163.65488218 181.80219117 -163.11116505 177.98694927 -163.0625 173.375 C-163.05798828 172.57320312 -163.05347656 171.77140625 -163.04882812 170.9453125 C-163.03703168 168.96350994 -163.01909605 166.98174567 -163 165 C-164.32 165 -165.64 165 -167 165 C-167 163.68 -167 162.36 -167 161 C-165.68 160.34 -164.36 159.68 -163 159 C-162.01 155.04 -161.02 151.08 -160 147 C-172.21 147 -184.42 147 -197 147 C-196.67 147.66 -196.34 148.32 -196 149 C-195.91316555 151.77160626 -195.8844421 154.51774765 -195.90234375 157.2890625 C-195.9037587 158.10748627 -195.90517365 158.92591003 -195.90663147 159.76913452 C-195.9122371 162.38779325 -195.92479052 165.00636704 -195.9375 167.625 C-195.94251428 169.39843627 -195.94707731 171.17187387 -195.95117188 172.9453125 C-195.96220836 177.29690782 -195.97947675 181.6484395 -196 186 C-197.65 186 -199.3 186 -201 186 C-201.495 174.615 -201.495 174.615 -202 163 C-204.79520849 167.55420762 -204.79520849 167.55420762 -207.56347656 172.12475586 C-210.55555556 176.88888889 -210.55555556 176.88888889 -215 178 C-217.97 173.05 -220.94 168.1 -224 163 C-224.33 170.59 -224.66 178.18 -225 186 C-226.65 186 -228.3 186 -230 186 C-230 173.79 -230 161.58 -230 149 C-229.34 149 -228.68 149 -228 149 C-228.33 148.34 -228.66 147.68 -229 147 C-229.09300842 145.31478185 -229.121919 143.62586181 -229.12025452 141.93807983 C-229.12162918 140.86673294 -229.12300385 139.79538605 -229.12442017 138.6915741 C-229.12082489 137.51122086 -229.11722961 136.33086761 -229.11352539 135.11474609 C-229.11367142 133.87575058 -229.11381744 132.63675507 -229.1139679 131.36021423 C-229.11338953 127.95752498 -229.10836527 124.55489597 -229.10139394 121.15221739 C-229.09515368 117.59811295 -229.09455607 114.04400775 -229.09336853 110.48989868 C-229.0902572 103.75738213 -229.08204648 97.02488176 -229.07201904 90.29237235 C-229.06085176 82.6286288 -229.0553459 74.96488448 -229.05032361 67.30113482 C-229.03986371 51.5340805 -229.02226809 35.76704234 -229 20 C-226.76425425 20.13817617 -224.52888884 20.28251537 -222.29370117 20.42944336 C-221.04884445 20.50915878 -219.80398773 20.58887421 -218.52140808 20.67100525 C-214.17286422 21.07727685 -210.37782361 22.0173547 -206.3125 23.5625 C-205.59900391 23.82643555 -204.88550781 24.09037109 -204.15039062 24.36230469 C-184.82709399 31.91183115 -174.88797684 48.39473067 -166.5625 66.375 C-159.35239222 82.71573514 -159.35239222 82.71573514 -147.50390625 95.6953125 C-147.00761719 96.12585938 -146.51132813 96.55640625 -146 97 C-146 97.66 -146 98.32 -146 99 C-145.113125 99.28875 -144.22625 99.5775 -143.3125 99.875 C-140 101 -140 101 -137.65625 102.0625 C-134.66125085 103.11955852 -132.3517933 103.20124803 -129.1875 103.125 C-127.72376953 103.09792969 -127.72376953 103.09792969 -126.23046875 103.0703125 C-125.49441406 103.04710938 -124.75835937 103.02390625 -124 103 C-124.99 103 -125.98 103 -127 103 C-128.67099977 102.68911632 -130.33871537 102.35919668 -132 102 C-132 101.34 -132 100.68 -132 100 C-133.258125 99.855625 -134.51625 99.71125 -135.8125 99.5625 C-141.63420595 98.89443538 -143.9583756 97.25638347 -147.65625 92.8515625 C-149 91 -149 91 -150.0625 88.125 C-150.371875 87.42375 -150.68125 86.7225 -151 86 C-153.54775306 85.10613836 -153.54775306 85.10613836 -156 85 C-156.92577707 81.29689174 -157.03621814 77.86676318 -156.95703125 74.05859375 C-156.95257245 71.6922018 -156.95257245 71.6922018 -157.6875 68.1875 C-158 65 -158 65 -157 63.125 C-154.12588698 61.50831143 -151.24711853 61.40588982 -148 61 C-147.01 60.34 -146.02 59.68 -145 59 C-134.96318523 58.12688459 -125.09548822 59.47265865 -115.1875 61 C-93.28805896 64.56797649 -93.28805896 64.56797649 -72 60 C-71.08476562 59.58234375 -70.16953125 59.1646875 -69.2265625 58.734375 C-56.12591377 51.92616385 -46.58979572 40.86469776 -39.08203125 28.39453125 C-35.75665131 22.97285176 -31.9800388 17.9621263 -28 13 C-27.43925781 12.29875 -26.87851563 11.5975 -26.30078125 10.875 C-19.80090135 3.57247149 -9.6389469 0 0 0 Z " fill="#31CD7C" transform="translate(236,4)"/>
<path d="M0 0 C77.55 0 155.1 0 235 0 C234.01 0.33 233.02 0.66 232 1 C232 1.66 232 2.32 232 3 C227.545 3.495 227.545 3.495 223 4 C223 4.66 223 5.32 223 6 C222.34 6 221.68 6 221 6 C221 6.66 221 7.32 221 8 C219.2984375 8.99 219.2984375 8.99 217.5625 10 C208.24409337 15.68913247 202.76914563 24.70507904 197.09326172 33.73901367 C193.27624667 39.74797133 188.99508132 44.92104604 184 50 C183.3915625 50.69222656 182.783125 51.38445313 182.15625 52.09765625 C173.86151251 61.21835277 162.61561999 67.21008175 150.3359375 68.3359375 C139.07370208 68.44700491 128.20309394 67.13991007 117.07373047 65.42333984 C101.28521097 62.83977984 101.28521097 62.83977984 86 66 C84.9275 66.28875 83.855 66.5775 82.75 66.875 C79.89808857 67.68936613 79.89808857 67.68936613 79.0625 69.875 C78.8965634 71.97166971 78.8965634 71.97166971 79.5 73.8125 C80.25896442 77.13296933 79.96545191 80.37141654 79.83984375 83.7578125 C79.76866862 86.20528897 79.76866862 86.20528897 82 88 C82.65871094 88.28875 83.31742187 88.5775 83.99609375 88.875 C86.47765519 90.2681573 86.96380132 91.41258839 88.0625 94 C89.46033162 97.26360688 89.87590522 97.91727014 93 100 C93 100.66 93 101.32 93 102 C98.445 102.99 98.445 102.99 104 104 C104 104.66 104 105.32 104 106 C108.47427924 106.08948558 112.60563789 105.85743651 117 105 C117.33 105.66 117.66 106.32 118 107 C107.35259004 109.30214269 99.55521989 108.17497402 90 103 C90 102.34 90 101.68 90 101 C89.40952881 100.74057617 88.81905762 100.48115234 88.21069336 100.21386719 C80.58510305 96.02674018 76.65667479 87.20669172 72.9375 79.75 C72.41583252 78.72874023 71.89416504 77.70748047 71.35668945 76.65527344 C68.75226994 71.54345301 66.20963212 66.40274305 63.6875 61.25 C54.91411059 43.62626162 44.19008646 33.39941858 25.359375 27.04296875 C19.00631156 25.5230154 12.4750534 24.86334045 6 24 C6 63.6 6 103.2 6 144 C4 145 4 145 0 144 C0 96.48 0 48.96 0 0 Z " fill="#FEFEFE" transform="translate(0,0)"/>
<path d="M0 0 C0 47.52 0 95.04 0 144 C-48.51 144 -97.02 144 -147 144 C-147 143.67 -147 143.34 -147 143 C-146.30132812 142.93941406 -145.60265625 142.87882813 -144.8828125 142.81640625 C-143.97273438 142.73261719 -143.06265625 142.64882812 -142.125 142.5625 C-141.22007812 142.48128906 -140.31515625 142.40007812 -139.3828125 142.31640625 C-136.98889139 142.13010715 -136.98889139 142.13010715 -135 141 C-133.15871966 140.91910613 -131.31443194 140.90333354 -129.47143555 140.91821289 C-128.31230148 140.9247438 -127.15316742 140.93127472 -125.95890808 140.93800354 C-124.06692436 140.95515663 -124.06692436 140.95515663 -122.13671875 140.97265625 C-120.15240243 140.98207 -118.16808596 140.9914711 -116.18376637 141.00016689 C-111.29098467 141.02304396 -106.39828742 141.05625798 -101.50561523 141.09594727 C-98.76699287 141.11775551 -96.02843821 141.13392072 -93.28974915 141.14439392 C-90.71628532 141.15462302 -88.14283612 141.17298938 -85.56950378 141.20094299 C-77.53253266 141.22368949 -69.90317425 140.45850449 -62 139 C-61.96169728 135.0404567 -62.1622922 131.49939859 -63 127.625 C-63.2784375 126.31402344 -63.2784375 126.31402344 -63.5625 124.9765625 C-63.7790625 123.99816406 -63.7790625 123.99816406 -64 123 C-64.66 123 -65.32 123 -66 123 C-66.33 121.35 -66.66 119.7 -67 118 C-67.66 118 -68.32 118 -69 118 C-69 117.34 -69 116.68 -69 116 C-70.98 115.67 -72.96 115.34 -75 115 C-75.0825 114.38125 -75.165 113.7625 -75.25 113.125 C-75.81258459 110.81562433 -75.81258459 110.81562433 -78.0625 109.75 C-79.0215625 109.37875 -79.0215625 109.37875 -80 109 C-80.99 109.66 -81.98 110.32 -83 111 C-83 110.01 -83 109.02 -83 108 C-85.31 107.67 -87.62 107.34 -90 107 C-90.33 105.68 -90.66 104.36 -91 103 C-94.0000624 102.97278169 -96.99987256 102.95305622 -100 102.9375 C-101.25876953 102.92493164 -101.25876953 102.92493164 -102.54296875 102.91210938 C-106.47143228 102.89688277 -110.2915584 102.97023091 -114.1875 103.5 C-117.84699327 103.97993354 -121.31351087 104.10090093 -125 104.0625 C-126.134375 104.05347656 -127.26875 104.04445313 -128.4375 104.03515625 C-129.7059375 104.01775391 -129.7059375 104.01775391 -131 104 C-131 103.67 -131 103.34 -131 103 C-128.525 102.505 -128.525 102.505 -126 102 C-127.65 101.67 -129.3 101.34 -131 101 C-131 100.34 -131 99.68 -131 99 C-132.258125 98.855625 -133.51625 98.71125 -134.8125 98.5625 C-140.63420595 97.89443538 -142.9583756 96.25638347 -146.65625 91.8515625 C-148 90 -148 90 -149.0625 87.125 C-149.371875 86.42375 -149.68125 85.7225 -150 85 C-152.54775306 84.10613836 -152.54775306 84.10613836 -155 84 C-155.92577707 80.29689174 -156.03621814 76.86676318 -155.95703125 73.05859375 C-155.95257245 70.6922018 -155.95257245 70.6922018 -156.6875 67.1875 C-157 64 -157 64 -156 62.125 C-153.12588698 60.50831143 -150.24711853 60.40588982 -147 60 C-146.01 59.34 -145.02 58.68 -144 58 C-133.96318523 57.12688459 -124.09548822 58.47265865 -114.1875 60 C-92.28805896 63.56797649 -92.28805896 63.56797649 -71 59 C-70.08476562 58.58234375 -69.16953125 58.1646875 -68.2265625 57.734375 C-55.12591377 50.92616385 -45.58979572 39.86469776 -38.08203125 27.39453125 C-34.75665131 21.97285176 -30.9800388 16.9621263 -27 12 C-26.43925781 11.29875 -25.87851563 10.5975 -25.30078125 9.875 C-18.45466672 2.1834815 -10.01552687 0 0 0 Z " fill="#5AA1E2" transform="translate(235,5)"/>
<path d="M0 0 C1.32 0 2.64 0 4 0 C4.04667041 19.00148346 4.08196446 38.00295533 4.10362434 57.00448418 C4.11394762 65.82673938 4.12802797 74.64895902 4.15087891 83.47119141 C4.17078068 91.15846502 4.18370878 98.84571289 4.18817699 106.53301156 C4.19078984 110.60535183 4.19695283 114.67761843 4.21146011 118.74993515 C4.22499335 122.57970895 4.22923133 126.40937845 4.22621536 130.23917389 C4.22676744 131.64771465 4.23077021 133.05625875 4.23841095 134.4647789 C4.24830506 136.38208265 4.24479046 138.29944186 4.24050903 140.21676636 C4.24235262 141.29157698 4.24419621 142.3663876 4.24609566 143.47376823 C4 146 4 146 2 148 C-0.65117073 148.24609566 -0.65117073 148.24609566 -4.08694458 148.24050903 C-5.38547363 148.24325836 -6.68400269 148.24600769 -8.0218811 148.24884033 C-9.46917816 148.24176154 -10.91647429 148.23449191 -12.36376953 148.22705078 C-13.88128655 148.2264869 -15.39880411 148.22680278 -16.9163208 148.22793579 C-21.04421737 148.2285112 -25.17199845 148.21672657 -29.29986811 148.20278788 C-33.61070328 148.19031176 -37.92154091 148.18911249 -42.23239136 148.18673706 C-50.39927244 148.1805131 -58.56610017 148.16408992 -66.73295772 148.14403808 C-76.02907126 148.12170754 -85.3251873 148.11069282 -94.62132096 148.10064721 C-113.74757843 148.07972446 -132.87378298 148.04412934 -152 148 C-152.33 151.96 -152.66 155.92 -153 160 C-150.69 160 -148.38 160 -146 160 C-146 161.32 -146 162.64 -146 164 C-148.31 164 -150.62 164 -153 164 C-153 169.94 -153 175.88 -153 182 C-150.36 182 -147.72 182 -145 182 C-145 183.32 -145 184.64 -145 186 C-146.60115576 186.2493357 -148.20620159 186.47378648 -149.8125 186.6875 C-151.15248047 186.87892578 -151.15248047 186.87892578 -152.51953125 187.07421875 C-155 187 -155 187 -156.76171875 185.64453125 C-159.65488218 181.80219117 -159.11116505 177.98694927 -159.0625 173.375 C-159.05798828 172.57320312 -159.05347656 171.77140625 -159.04882812 170.9453125 C-159.03703168 168.96350994 -159.01909605 166.98174567 -159 165 C-160.32 165 -161.64 165 -163 165 C-163 163.68 -163 162.36 -163 161 C-161.68 160.34 -160.36 159.68 -159 159 C-158.01 155.04 -157.02 151.08 -156 147 C-168.21 147 -180.42 147 -193 147 C-192.67 147.66 -192.34 148.32 -192 149 C-191.91316555 151.77160626 -191.8844421 154.51774765 -191.90234375 157.2890625 C-191.9037587 158.10748627 -191.90517365 158.92591003 -191.90663147 159.76913452 C-191.9122371 162.38779325 -191.92479052 165.00636704 -191.9375 167.625 C-191.94251428 169.39843627 -191.94707731 171.17187387 -191.95117188 172.9453125 C-191.96220836 177.29690782 -191.97947675 181.6484395 -192 186 C-193.65 186 -195.3 186 -197 186 C-197.495 174.615 -197.495 174.615 -198 163 C-200.79520849 167.55420762 -200.79520849 167.55420762 -203.56347656 172.12475586 C-206.55555556 176.88888889 -206.55555556 176.88888889 -211 178 C-213.97 173.05 -216.94 168.1 -220 163 C-220.33 170.59 -220.66 178.18 -221 186 C-222.65 186 -224.3 186 -226 186 C-226 173.79 -226 161.58 -226 149 C-225.34 149 -224.68 149 -224 149 C-224.33 148.34 -224.66 147.68 -225 147 C-225.09300842 145.31478185 -225.121919 143.62586181 -225.12025452 141.93807983 C-225.12162918 140.86673294 -225.12300385 139.79538605 -225.12442017 138.6915741 C-225.12082489 137.51122086 -225.11722961 136.33086761 -225.11352539 135.11474609 C-225.11367142 133.87575058 -225.11381744 132.63675507 -225.1139679 131.36021423 C-225.11338953 127.95752498 -225.10836527 124.55489597 -225.10139394 121.15221739 C-225.09515368 117.59811295 -225.09455607 114.04400775 -225.09336853 110.48989868 C-225.0902572 103.75738213 -225.08204648 97.02488176 -225.07201904 90.29237235 C-225.06085176 82.6286288 -225.0553459 74.96488448 -225.05032361 67.30113482 C-225.03986371 51.5340805 -225.02226809 35.76704234 -225 20 C-224.67 20 -224.34 20 -224 20 C-224 61.25 -224 102.5 -224 145 C-149.09 145 -74.18 145 3 145 C3 97.48 3 49.96 3 1 C2.01 0.67 1.02 0.34 0 0 Z " fill="#A8D8D5" transform="translate(232,4)"/>
<path d="M0 0 C0 47.52 0 95.04 0 144 C-48.51 144 -97.02 144 -147 144 C-147 143.67 -147 143.34 -147 143 C-146.30132812 142.93941406 -145.60265625 142.87882813 -144.8828125 142.81640625 C-143.97273438 142.73261719 -143.06265625 142.64882812 -142.125 142.5625 C-141.22007812 142.48128906 -140.31515625 142.40007812 -139.3828125 142.31640625 C-136.98889139 142.13010715 -136.98889139 142.13010715 -135 141 C-133.15871966 140.91910613 -131.31443194 140.90333354 -129.47143555 140.91821289 C-128.31230148 140.9247438 -127.15316742 140.93127472 -125.95890808 140.93800354 C-124.06692436 140.95515663 -124.06692436 140.95515663 -122.13671875 140.97265625 C-120.15240243 140.98207 -118.16808596 140.9914711 -116.18376637 141.00016689 C-111.29098467 141.02304396 -106.39828742 141.05625798 -101.50561523 141.09594727 C-98.76699287 141.11775551 -96.02843821 141.13392072 -93.28974915 141.14439392 C-90.71628532 141.15462302 -88.14283612 141.17298938 -85.56950378 141.20094299 C-77.53253266 141.22368949 -69.90317425 140.45850449 -62 139 C-61.67 137.35 -61.34 135.7 -61 134 C-58.23776722 136.76223278 -58.42143709 139.20706617 -58 143 C-57.12085938 142.9278125 -56.24171875 142.855625 -55.3359375 142.78125 C-40.5666639 141.73254418 -25.79719806 141.90547244 -11 142 C-11 141.01 -11 140.02 -11 139 C-8.6739143 138.61936779 -6.33944736 138.28730055 -4 138 C-3.67 138.33 -3.34 138.66 -3 139 C-3.00138269 137.98509176 -3.00138269 137.98509176 -3.00279331 136.94968033 C-3.02487112 120.49154249 -3.04142259 104.03340935 -3.05181217 87.57526016 C-3.05696995 79.61624876 -3.0640028 71.65724724 -3.07543945 63.69824219 C-3.08540209 56.76172941 -3.0918572 49.82522379 -3.09408849 42.88870406 C-3.09539291 39.21538771 -3.0984618 35.54209184 -3.10573006 31.86878204 C-3.11377528 27.76960845 -3.11399011 23.67047052 -3.11352539 19.57128906 C-3.11712067 18.35137268 -3.12071594 17.1314563 -3.12442017 15.87457275 C-3.1230455 14.75840576 -3.12167084 13.64223877 -3.12025452 12.49224854 C-3.12163721 11.03765921 -3.12163721 11.03765921 -3.12304783 9.55368423 C-3 7 -3 7 -2 3 C-4.97 3.66 -7.94 4.32 -11 5 C-11 6.32 -11 7.64 -11 9 C-11 9.66 -11 10.32 -11 11 C-12.2375 11.12375 -13.475 11.2475 -14.75 11.375 C-17.8762197 11.75746305 -20.28879237 12.30549523 -23 14 C-22.505 15.98 -22.505 15.98 -22 18 C-22.928125 18.0928125 -22.928125 18.0928125 -23.875 18.1875 C-26.24379837 18.81891092 -26.24379837 18.81891092 -27.1875 21.375 C-27.455625 22.24125 -27.72375 23.1075 -28 24 C-28.495 25.485 -28.495 25.485 -29 27 C-29.763125 27.061875 -30.52625 27.12375 -31.3125 27.1875 C-34.19274204 27.77210812 -34.19274204 27.77210812 -35.8125 30.375 C-37.20608393 32.97536935 -37.20608393 32.97536935 -37 36 C-37.804375 36.515625 -38.60875 37.03125 -39.4375 37.5625 C-42.88825475 40.84492525 -42.71080643 43.34805537 -42.95703125 47.953125 C-42.97121094 48.62859375 -42.98539062 49.3040625 -43 50 C-43.57234375 49.77441406 -44.1446875 49.54882812 -44.734375 49.31640625 C-47.07468699 48.75507721 -47.07468699 48.75507721 -49.140625 50.21484375 C-49.83671875 50.78332031 -50.5328125 51.35179687 -51.25 51.9375 C-51.95640625 52.50339844 -52.6628125 53.06929687 -53.390625 53.65234375 C-53.92171875 54.09707031 -54.4528125 54.54179688 -55 55 C-54.8125 52.625 -54.8125 52.625 -54 50 C-53.21625 49.7525 -52.4325 49.505 -51.625 49.25 C-48.91365679 48.31989944 -48.91365679 48.31989944 -48.3203125 46.33984375 C-48.03800781 45.27443359 -48.03800781 45.27443359 -47.75 44.1875 C-46.11366679 38.38085471 -42.74410163 33.94927617 -39.26171875 29.13671875 C-37.41178567 26.5710948 -35.68822276 23.98433714 -34 21.3125 C-25.28285212 8.23677818 -16.11997235 0 0 0 Z M-58 55 C-57.01 55 -56.02 55 -55 55 C-55.33 56.32 -55.66 57.64 -56 59 C-56.66 59 -57.32 59 -58 59 C-58 57.68 -58 56.36 -58 55 Z " fill="#4896DB" transform="translate(235,5)"/>
<path d="M0 0 C2.97 0.495 2.97 0.495 6 1 C6.66 0.67 7.32 0.34 8 0 C13.17472542 -0.72354568 16.80120784 -0.86313036 21.125 2.25 C24.26606237 6.928178 23.6619835 12.63793368 23 18 C21.71403921 22.07220917 20.79222581 23.44728432 17.3125 25.875 C13.25267011 27.25381015 10.26517418 27.22061246 6 27 C6 30.63 6 34.26 6 38 C4.02 38 2.04 38 0 38 C0 25.46 0 12.92 0 0 Z " fill="#141414" transform="translate(189,164)"/>
<path d="M0 0 C5 1 5 1 6.57739258 2.64233398 C7.01204834 3.33657471 7.4467041 4.03081543 7.89453125 4.74609375 C8.37470703 5.50083984 8.85488281 6.25558594 9.34960938 7.03320312 C9.83236328 7.82662109 10.31511719 8.62003906 10.8125 9.4375 C11.31458984 10.22705078 11.81667969 11.01660156 12.33398438 11.83007812 C16 17.6807398 16 17.6807398 16 20 C16.66 20 17.32 20 18 20 C18.24105469 19.32453125 18.48210938 18.6490625 18.73046875 17.953125 C20.28878808 14.32823449 22.21857215 11.0864404 24.3125 7.75 C24.69083984 7.11320313 25.06917969 6.47640625 25.45898438 5.8203125 C26.61328125 3.984375 26.61328125 3.984375 29 1 C30.65 0.67 32.3 0.34 34 0 C34 11.88 34 23.76 34 36 C32.35 36 30.7 36 29 36 C28.505 24.615 28.505 24.615 28 13 C25.20479151 17.55420762 25.20479151 17.55420762 22.43652344 22.12475586 C19.44444444 26.88888889 19.44444444 26.88888889 15 28 C12.03 23.05 9.06 18.1 6 13 C5.67 20.59 5.34 28.18 5 36 C3.35 36 1.7 36 0 36 C0 24.12 0 12.24 0 0 Z " fill="#040404" transform="translate(6,154)"/>
<path d="M0 0 C1.98 0 3.96 0 6 0 C6.33 3.63 6.66 7.26 7 11 C7.33 10.67 7.66 10.34 8 10 C9.7872057 9.84864056 11.58161876 9.77824222 13.375 9.75 C14.84066406 9.71132812 14.84066406 9.71132812 16.3359375 9.671875 C19 10 19 10 20.7890625 11.328125 C22.98427042 14.35892819 23.12064881 17.0581367 23.09765625 20.66796875 C23.09443359 21.56064453 23.09121094 22.45332031 23.08789062 23.37304688 C23.07951172 24.30181641 23.07113281 25.23058594 23.0625 26.1875 C23.05798828 27.12787109 23.05347656 28.06824219 23.04882812 29.03710938 C23.03704626 31.35813712 23.02059558 33.67903644 23 36 C21.33388095 36.042721 19.66617115 36.04063832 18 36 C16.45429669 34.45429669 16.80175898 32.9306528 16.71875 30.78125 C16.68136719 29.93175781 16.64398438 29.08226562 16.60546875 28.20703125 C16.53515625 26.40234375 16.46484375 24.59765625 16.39453125 22.79296875 C16.35714844 21.94347656 16.31976563 21.09398437 16.28125 20.21875 C16.25095703 19.43435547 16.22066406 18.64996094 16.18945312 17.84179688 C16.19408532 15.98373804 16.19408532 15.98373804 15 15 C10.6590631 15.14158662 10.6590631 15.14158662 7 17 C6.84344973 18.48638992 6.74933057 19.97949127 6.68359375 21.47265625 C6.64169922 22.37177734 6.59980469 23.27089844 6.55664062 24.19726562 C6.49766602 25.61555664 6.49766602 25.61555664 6.4375 27.0625 C6.37272461 28.4865918 6.37272461 28.4865918 6.30664062 29.93945312 C6.20020724 32.29281353 6.09818992 34.64628354 6 37 C4.02 37 2.04 37 0 37 C0 24.79 0 12.58 0 0 Z " fill="#171717" transform="translate(137,154)"/>
<path d="M0 0 C2.625 1.375 2.625 1.375 4 4 C4.60162787 7.3670051 4.81936201 10.56787812 5 14 C-0.61 14 -6.22 14 -12 14 C-11.01 16.31 -10.02 18.62 -9 21 C-7.84371094 20.94779297 -7.84371094 20.94779297 -6.6640625 20.89453125 C-5.66117188 20.86746094 -4.65828125 20.84039062 -3.625 20.8125 C-2.12839844 20.76029297 -2.12839844 20.76029297 -0.6015625 20.70703125 C0.25695312 20.80371094 1.11546875 20.90039062 2 21 C2.66 21.99 3.32 22.98 4 24 C1.00519713 26.99480287 -1.24499196 26.95881774 -5.4375 27.1875 C-9.968855 26.94900763 -12.65798188 26.48580577 -15.75 23.0625 C-18.09806605 17.30973817 -18.82106639 11.41998514 -16.8125 5.5 C-12.25774268 -0.78242389 -7.35582497 -0.95022055 0 0 Z " fill="#0E0E0E" transform="translate(62,164)"/>
<path d="M0 0 C3.1875 1.9375 3.1875 1.9375 5 5 C5.38686878 8.12631795 5.23678441 10.82708893 5 14 C-0.61 14 -6.22 14 -12 14 C-11.34 16.31 -10.68 18.62 -10 21 C-6.04 21 -2.08 21 2 21 C2.66 22.32 3.32 23.64 4 25 C-1.2672197 27.55380349 -5.70834184 27.79326629 -11.25 25.875 C-14.76082168 23.48125795 -15.69511686 22.05963644 -17 18 C-17.52836542 13.00254371 -17.68558662 8.5997021 -15.6875 3.9375 C-11.29197187 -1.10921748 -6.24637574 -0.85716689 0 0 Z " fill="#0C0C0C" transform="translate(233,164)"/>
<path d="M0 0 C1.04929688 -0.02578125 2.09859375 -0.0515625 3.1796875 -0.078125 C6.56912799 0.29947845 7.70892319 0.88832787 10.125 3.25 C10.67089844 5.7019043 10.67089844 5.7019043 10.734375 8.57421875 C10.76660156 9.60224609 10.79882812 10.63027344 10.83203125 11.68945312 C10.84621094 12.76130859 10.86039063 13.83316406 10.875 14.9375 C10.90464844 16.02095703 10.93429688 17.10441406 10.96484375 18.22070312 C11.03558844 20.89721059 11.08826156 23.57284479 11.125 26.25 C8.45833333 26.25 5.79166667 26.25 3.125 26.25 C1.825625 26.45625 0.52625 26.6625 -0.8125 26.875 C-3.35594489 27.19701412 -4.75665702 27.28425718 -7.25 26.5625 C-9.32223224 24.88877396 -10.09229916 23.81156637 -10.875 21.25 C-10.67782702 18.02950797 -10.46177286 15.98984404 -8.4375 13.4375 C-5.44889842 11.1661628 -3.44474184 11.14013151 0.25 11.1875 C1.16007813 11.19652344 2.07015625 11.20554688 3.0078125 11.21484375 C3.70648438 11.22644531 4.40515625 11.23804688 5.125 11.25 C5.125 9.27 5.125 7.29 5.125 5.25 C1.165 5.25 -2.795 5.25 -6.875 5.25 C-7.205 3.93 -7.535 2.61 -7.875 1.25 C-5.18393093 -0.09553453 -3.00334578 0.04405886 0 0 Z " fill="#070707" transform="translate(173.875,163.75)"/>
<path d="M0 0 C1.04929687 -0.02578125 2.09859375 -0.0515625 3.1796875 -0.078125 C6.56912799 0.29947845 7.70892319 0.88832787 10.125 3.25 C10.67089844 5.7019043 10.67089844 5.7019043 10.734375 8.57421875 C10.76660156 9.60224609 10.79882812 10.63027344 10.83203125 11.68945312 C10.84621094 12.76130859 10.86039063 13.83316406 10.875 14.9375 C10.90464844 16.02095703 10.93429688 17.10441406 10.96484375 18.22070312 C11.03558844 20.89721059 11.08826156 23.57284479 11.125 26.25 C9.475 26.25 7.825 26.25 6.125 26.25 C6.125 25.59 6.125 24.93 6.125 24.25 C5.279375 24.765625 4.43375 25.28125 3.5625 25.8125 C-0.56168132 27.53715764 -2.59760389 27.43816558 -6.875 26.25 C-9.3125 24.5625 -9.3125 24.5625 -10.875 22.25 C-11.375 19.25 -11.375 19.25 -10.875 16.25 C-8.64293569 13.40219381 -7.32507001 12.40002334 -3.875 11.25 C-2.31381572 11.18259135 -0.7499748 11.16485544 0.8125 11.1875 C2.02486328 11.20103516 2.02486328 11.20103516 3.26171875 11.21484375 C4.18404297 11.23224609 4.18404297 11.23224609 5.125 11.25 C4.465 9.27 3.805 7.29 3.125 5.25 C-0.175 5.25 -3.475 5.25 -6.875 5.25 C-7.205 3.93 -7.535 2.61 -7.875 1.25 C-5.18393093 -0.09553453 -3.00334578 0.04405886 0 0 Z " fill="#070707" transform="translate(99.875,163.75)"/>
<path d="M0 0 C1.54204102 0.00966797 1.54204102 0.00966797 3.11523438 0.01953125 C4.18708984 0.03628906 5.25894531 0.05304688 6.36328125 0.0703125 C7.44673828 0.07933594 8.53019531 0.08835938 9.64648438 0.09765625 C12.32313835 0.1212391 14.99934922 0.15415124 17.67578125 0.1953125 C17.25031661 6.1138296 15.52890481 9.67536973 12.17578125 14.5078125 C11.35236617 15.73273802 10.52942742 16.95798392 9.70703125 18.18359375 C9.03671875 19.17746094 8.36640625 20.17132813 7.67578125 21.1953125 C7.34578125 21.8553125 7.01578125 22.5153125 6.67578125 23.1953125 C6.01578125 23.1953125 5.35578125 23.1953125 4.67578125 23.1953125 C3.25537109 21.26757812 3.25537109 21.26757812 1.63671875 18.6015625 C1.05664062 17.65410156 0.4765625 16.70664063 -0.12109375 15.73046875 C-0.724375 14.72886719 -1.32765625 13.72726563 -1.94921875 12.6953125 C-2.56023438 11.69371094 -3.17125 10.69210938 -3.80078125 9.66015625 C-5.31509752 7.17573113 -6.8225356 4.68738693 -8.32421875 2.1953125 C-4.97302356 -0.03881763 -3.90644325 -0.04316512 0 0 Z " fill="#F8F9F8" transform="translate(17.32421875,150.8046875)"/>
<path d="M0 0 C2.76223278 2.76223278 2.57856291 5.20706617 3 9 C3.98863037 8.9285376 4.97726074 8.8570752 5.99584961 8.78344727 C17.52891068 8.00019986 29.00659964 7.88037261 40.5625 7.9375 C42.36393102 7.94253329 44.16536344 7.94709291 45.96679688 7.95117188 C50.31123323 7.96201364 54.65560051 7.97917354 59 8 C59 8.33 59 8.66 59 9 C51.47043495 10.01517812 44.08537841 10.13554792 36.49389648 10.11352539 C35.15268455 10.11324279 33.81147246 10.11340267 32.47026062 10.1139679 C28.8551926 10.11425304 25.24015824 10.10840222 21.62509799 10.10139394 C17.83747452 10.09511314 14.04985016 10.09455288 10.26222229 10.09336853 C3.10140605 10.09026909 -4.05939481 10.08207451 -11.22020429 10.07201904 C-19.37745035 10.06081468 -27.53469717 10.05533659 -35.69194901 10.05032361 C-52.46130833 10.03989065 -69.2306522 10.02231824 -86 10 C-86 9.67 -86 9.34 -86 9 C-85.30132812 8.93941406 -84.60265625 8.87882813 -83.8828125 8.81640625 C-82.51769531 8.69072266 -82.51769531 8.69072266 -81.125 8.5625 C-80.22007813 8.48128906 -79.31515625 8.40007812 -78.3828125 8.31640625 C-75.98889139 8.13010715 -75.98889139 8.13010715 -74 7 C-72.15871966 6.91910613 -70.31443194 6.90333354 -68.47143555 6.91821289 C-67.31230148 6.9247438 -66.15316742 6.93127472 -64.95890808 6.93800354 C-63.06692436 6.95515663 -63.06692436 6.95515663 -61.13671875 6.97265625 C-59.15240243 6.98207 -57.16808596 6.9914711 -55.18376637 7.00016689 C-50.29098467 7.02304396 -45.39828742 7.05625798 -40.50561523 7.09594727 C-37.76699287 7.11775551 -35.02843821 7.13392072 -32.28974915 7.14439392 C-29.71628532 7.15462302 -27.14283612 7.17298938 -24.56950378 7.20094299 C-16.53253266 7.22368949 -8.90317425 6.45850449 -1 5 C-0.67 3.35 -0.34 1.7 0 0 Z " fill="#468CCA" transform="translate(174,139)"/>
<path d="M0 0 C2.22988284 0.08750555 4.45896005 0.19569061 6.6875 0.3125 C7.92886719 0.37050781 9.17023437 0.42851562 10.44921875 0.48828125 C14.06321199 1.00910976 16.05766393 1.90154617 19 4 C16 5 16 5 13 5 C13 4.34 13 3.68 13 3 C12.34 3.66 11.68 4.32 11 5 C10.01 5 9.02 5 8 5 C4.98470724 5.56536739 3.6591444 6.22723707 1 8 C0.55142016 10.02947148 0.55142016 10.02947148 0.63250732 12.4098053 C0.62693817 13.33666641 0.62136902 14.26352753 0.6156311 15.21847534 C0.62484589 16.23829498 0.63406067 17.25811462 0.64355469 18.30883789 C0.64151031 19.38041641 0.63946594 20.45199493 0.63735962 21.55604553 C0.634342 25.11175382 0.65285728 28.66700279 0.671875 32.22265625 C0.67493077 34.68362818 0.67680827 37.14460184 0.67755127 39.60557556 C0.68216039 44.76812334 0.69661063 49.93051565 0.71875 55.09301758 C0.74704763 61.72697965 0.75796223 68.36081916 0.7624321 74.99483585 C0.76657908 80.07756285 0.77639025 85.1602648 0.78830719 90.24297905 C0.79402413 92.68993363 0.79877809 95.13689064 0.80257416 97.58384895 C0.80941151 100.99612843 0.82303145 104.40830858 0.83886719 107.82055664 C0.83998505 108.84240051 0.84110291 109.86424438 0.84225464 110.91705322 C0.84796478 111.84109451 0.85367493 112.7651358 0.85955811 113.71717834 C0.86253277 114.52483674 0.86550743 115.33249514 0.86857224 116.16462803 C0.7999806 118.01824575 0.7999806 118.01824575 2 119 C3.63922964 119.12816114 5.28382971 119.18838096 6.92773438 119.22119141 C8.50572815 119.25595078 8.50572815 119.25595078 10.11560059 119.29141235 C11.26338989 119.3112619 12.4111792 119.33111145 13.59375 119.3515625 C14.76957642 119.37471527 15.94540283 119.39786804 17.15686035 119.42172241 C19.65530914 119.46947361 22.15380736 119.51469361 24.65234375 119.55761719 C28.45592687 119.62422816 32.25915803 119.70217844 36.0625 119.78125 C38.48957061 119.82621283 40.91665377 119.87050464 43.34375 119.9140625 C44.47534546 119.93796051 45.60694092 119.96185852 46.77282715 119.98648071 C52.95497153 120.08328984 58.87196418 119.83498118 65 119 C65 119.66 65 120.32 65 121 C66.65 121 68.3 121 70 121 C70 121.33 70 121.66 70 122 C61.18573089 122.04631323 52.37150358 122.08186401 43.5571394 122.10362434 C39.46440017 122.1140675 35.3717441 122.12823636 31.27905273 122.15087891 C27.33036289 122.17258839 23.38175311 122.18456462 19.43300819 122.18975449 C17.92549695 122.19345366 16.41799014 122.20067711 14.91051292 122.21146011 C12.80116637 122.22595004 10.69215188 122.22797902 8.58276367 122.22705078 C7.38141281 122.231492 6.18006195 122.23593323 4.94230652 122.24050903 C2 122 2 122 -1 120 C-1.3719368 117.91664124 -1.3719368 117.91664124 -1.36749268 115.29321289 C-1.37306183 114.3004837 -1.37863098 113.30775452 -1.3843689 112.28494263 C-1.37515411 111.19188812 -1.36593933 110.09883362 -1.35644531 108.97265625 C-1.35848969 107.82465546 -1.36053406 106.67665466 -1.36264038 105.49386597 C-1.36565875 101.68325084 -1.34713924 97.873064 -1.328125 94.0625 C-1.32506915 91.42456164 -1.32319171 88.78662167 -1.32244873 86.14868164 C-1.31875387 80.61371288 -1.30377587 75.07886797 -1.28125 69.54394531 C-1.25237668 62.43478335 -1.24202713 55.32572118 -1.2375679 48.21650696 C-1.23401762 42.76744443 -1.22360521 37.31840434 -1.21169281 31.86935425 C-1.20597934 29.24738757 -1.20122422 26.62541864 -1.19742584 24.00344849 C-1.19058045 20.34470646 -1.17695611 16.68605656 -1.16113281 13.02734375 C-1.16001495 11.93428925 -1.15889709 10.84123474 -1.15774536 9.71505737 C-1.15203522 8.72232819 -1.14632507 7.729599 -1.14044189 6.70678711 C-1.13746723 5.84105576 -1.13449257 4.9753244 -1.13142776 4.08335876 C-1 2 -1 2 0 0 Z " fill="#2FD96F" transform="translate(10,26)"/>
<path d="M0 0 C2.31 0 4.62 0 7 0 C7.02332815 18.10607616 7.04097876 36.21214843 7.05181217 54.31823635 C7.05697531 62.72461384 7.06401834 71.13098201 7.07543945 79.53735352 C7.08538575 86.86167932 7.0918533 94.18599837 7.09408849 101.51033074 C7.09539569 105.39090787 7.09848212 109.2714657 7.10573006 113.15203667 C7.11248942 116.80039557 7.11461713 120.44872711 7.11310768 124.09709167 C7.11351637 126.08288419 7.118912 128.0686737 7.12442017 130.05445862 C7.1230455 131.2254007 7.12167084 132.39634277 7.12025452 133.60276794 C7.12117631 134.62687995 7.1220981 135.65099195 7.12304783 136.70613766 C7 139 7 139 6 140 C4.48071962 140.07179964 2.95832518 140.08392007 1.4375 140.0625 C0.61121094 140.05347656 -0.21507812 140.04445312 -1.06640625 140.03515625 C-1.70449219 140.02355469 -2.34257812 140.01195312 -3 140 C-3 139.01 -3 138.02 -3 137 C-0.6739143 136.61936779 1.66055264 136.28730055 4 136 C4.33 136.33 4.66 136.66 5 137 C4.99907821 136.32339451 4.99815641 135.64678902 4.99720669 134.94968033 C4.97512888 118.49154249 4.95857741 102.03340935 4.94818783 85.57526016 C4.94303005 77.61624876 4.9359972 69.65724724 4.92456055 61.69824219 C4.91459791 54.76172941 4.9081428 47.82522379 4.90591151 40.88870406 C4.90460709 37.21538771 4.9015382 33.54209184 4.89426994 29.86878204 C4.88622472 25.76960845 4.88600989 21.67047052 4.88647461 17.57128906 C4.88287933 16.35137268 4.87928406 15.1314563 4.87557983 13.87457275 C4.87764183 12.20032227 4.87764183 12.20032227 4.87974548 10.49224854 C4.87882369 9.52252232 4.8779019 8.5527961 4.87695217 7.55368423 C4.98956444 5.21657524 5.33548341 3.23545807 6 1 C4.02 1.33 2.04 1.66 0 2 C0 1.34 0 0.68 0 0 Z " fill="#3B88D7" transform="translate(227,7)"/>
<path d="M0 0 C1.32 0 2.64 0 4 0 C4 3.3 4 6.6 4 10 C6.31 10 8.62 10 11 10 C11 11.32 11 12.64 11 14 C8.69 14 6.38 14 4 14 C4 19.94 4 25.88 4 32 C6.64 32 9.28 32 12 32 C12 33.32 12 34.64 12 36 C10.39884424 36.2493357 8.79379841 36.47378648 7.1875 36.6875 C6.29417969 36.81511719 5.40085937 36.94273437 4.48046875 37.07421875 C2 37 2 37 0.23828125 35.64453125 C-2.65488218 31.80219117 -2.11116505 27.98694927 -2.0625 23.375 C-2.05798828 22.57320312 -2.05347656 21.77140625 -2.04882812 20.9453125 C-2.03703168 18.96350994 -2.01909605 16.98174567 -2 15 C-3.32 15 -4.64 15 -6 15 C-6 13.68 -6 12.36 -6 11 C-5.04867187 10.64808594 -5.04867187 10.64808594 -4.078125 10.2890625 C-1.81749261 9.17709092 -1.81749261 9.17709092 -1.171875 6.8359375 C-0.96304688 5.61777344 -0.96304688 5.61777344 -0.75 4.375 C-0.60046875 3.55773437 -0.4509375 2.74046875 -0.296875 1.8984375 C-0.19890625 1.27195313 -0.1009375 0.64546875 0 0 Z " fill="#060606" transform="translate(75,154)"/>
<path d="M0 0 C0.495 0.99 0.495 0.99 1 2 C-0.81382888 6.73610875 -2.56224605 8.67017918 -7 11 C-7.43183594 11.46019531 -7.86367187 11.92039062 -8.30859375 12.39453125 C-11.23276464 15.17012995 -14.93622861 16.68062654 -18.50390625 18.5 C-21.24584938 19.90568965 -21.24584938 19.90568965 -23 23 C-25.42578125 23.6953125 -25.42578125 23.6953125 -28.3125 24.125 C-29.25738281 24.27195312 -30.20226562 24.41890625 -31.17578125 24.5703125 C-32.10777344 24.71210937 -33.03976563 24.85390625 -34 25 C-35.17091187 25.25668457 -35.17091187 25.25668457 -36.36547852 25.51855469 C-38.96569849 25.99373157 -41.33668825 26.12924441 -43.9765625 26.1328125 C-45.35328125 26.13474609 -45.35328125 26.13474609 -46.7578125 26.13671875 C-47.70398438 26.13285156 -48.65015625 26.12898438 -49.625 26.125 C-51.05585938 26.13080078 -51.05585938 26.13080078 -52.515625 26.13671875 C-53.43085938 26.13542969 -54.34609375 26.13414063 -55.2890625 26.1328125 C-56.12131348 26.13168457 -56.95356445 26.13055664 -57.81103516 26.12939453 C-60 26 -60 26 -63 25 C-64.32 25 -65.64 25 -67 25 C-67 25.66 -67 26.32 -67 27 C-68.65 27 -70.3 27 -72 27 C-70.68 26.67 -69.36 26.34 -68 26 C-68.66 25.34 -69.32 24.68 -70 24 C-71.98 24.66 -73.96 25.32 -76 26 C-76 24.02 -76 22.04 -76 20 C-76.56509277 20.01047363 -77.13018555 20.02094727 -77.71240234 20.03173828 C-80.26655653 20.07324788 -82.82063982 20.0993096 -85.375 20.125 C-86.26445313 20.14175781 -87.15390625 20.15851563 -88.0703125 20.17578125 C-88.92109375 20.18222656 -89.771875 20.18867187 -90.6484375 20.1953125 C-91.82672119 20.21102295 -91.82672119 20.21102295 -93.02880859 20.22705078 C-95 20 -95 20 -97 18 C-86.82102305 17.74073182 -77.26923396 18.4458753 -67.1875 20 C-46.78509079 22.90940072 -29.52852696 24.65216984 -12 12 C-7.74164071 8.25713916 -3.84930696 4.15643251 0 0 Z " fill="#6598C4" transform="translate(188,45)"/>
<path d="M0 0 C1.06347656 0.00515625 2.12695312 0.0103125 3.22265625 0.015625 C4.28355469 0.01046875 5.34445313 0.0053125 6.4375 0 C9.28515625 0.265625 9.28515625 0.265625 12.28515625 2.265625 C11.95515625 3.255625 11.62515625 4.245625 11.28515625 5.265625 C7.98515625 5.265625 4.68515625 5.265625 1.28515625 5.265625 C1.80151256 9.22845741 1.80151256 9.22845741 4.0625 10.4609375 C4.77535156 10.76773438 5.48820312 11.07453125 6.22265625 11.390625 C8.81725612 12.53017703 10.25065472 13.23112347 12.28515625 15.265625 C12.85829378 22.48715783 12.85829378 22.48715783 11.03125 24.96875 C7.83886847 27.33982532 4.16192546 27.29125653 0.28515625 27.265625 C-2.20088073 26.81279495 -4.32608464 26.12964425 -6.71484375 25.265625 C-6.05484375 23.945625 -5.39484375 22.625625 -4.71484375 21.265625 C-1.08484375 21.265625 2.54515625 21.265625 6.28515625 21.265625 C6.28515625 19.945625 6.28515625 18.625625 6.28515625 17.265625 C5.58648437 16.95109375 4.8878125 16.6365625 4.16796875 16.3125 C3.25789063 15.88453125 2.3478125 15.4565625 1.41015625 15.015625 C0.50523438 14.59796875 -0.3996875 14.1803125 -1.33203125 13.75 C-3.95564255 12.11561919 -4.76138966 11.17085569 -5.71484375 8.265625 C-5.093462 0.49835312 -5.093462 0.49835312 0 0 Z " fill="#0A0A0A" transform="translate(120.71484375,163.734375)"/>
<path d="M0 0 C14.95439189 1.15033784 14.95439189 1.15033784 22.3125 4.0625 C23.06466797 4.34416016 23.81683594 4.62582031 24.59179688 4.91601562 C26.40025814 5.59562846 28.20108233 6.29551368 30 7 C27.59561841 7.85404504 26.36546452 8.12387468 23.9140625 7.29296875 C22.78097656 6.74576172 22.78097656 6.74576172 21.625 6.1875 C14.7990304 3.28796118 14.7990304 3.28796118 2 2 C2 41.6 2 81.2 2 122 C4.9537407 123.47687035 7.96308259 123.17880959 11.20361328 123.20532227 C11.9451767 123.21522186 12.68674011 123.22512146 13.45077515 123.23532104 C15.90725488 123.26696363 18.36375397 123.29170431 20.8203125 123.31640625 C22.521398 123.3369734 24.22247836 123.35796981 25.92355347 123.37937927 C30.40500736 123.43462464 34.88650756 123.48402303 39.36804199 123.53222656 C43.93941377 123.5824236 48.51071813 123.63811904 53.08203125 123.69335938 C62.05462994 123.80097109 71.02728711 123.90240936 80 124 C80 124.33 80 124.66 80 125 C53.6 125 27.2 125 0 125 C0 83.75 0 42.5 0 0 Z " fill="#49C87B" transform="translate(8,24)"/>
<path d="M0 0 C0.66 0.33 1.32 0.66 2 1 C1.814375 1.5775 1.62875 2.155 1.4375 2.75 C0.84338746 4.93827659 0.84338746 4.93827659 1.4765625 6.8203125 C2.27260541 10.13517775 1.96551359 13.3697537 1.83984375 16.7578125 C1.76866862 19.20528897 1.76866862 19.20528897 4 21 C4.98806641 21.433125 4.98806641 21.433125 5.99609375 21.875 C8.47765519 23.2681573 8.96380132 24.41258839 10.0625 27 C11.46033162 30.26360688 11.87590522 30.91727014 15 33 C15 33.66 15 34.32 15 35 C18.63 35.66 22.26 36.32 26 37 C26 37.66 26 38.32 26 39 C30.47427924 39.08948558 34.60563789 38.85743651 39 38 C39.33 38.66 39.66 39.32 40 40 C29.35259004 42.30214269 21.55521989 41.17497402 12 36 C12 35.34 12 34.68 12 34 C11.40574219 33.73316406 10.81148437 33.46632812 10.19921875 33.19140625 C1.20715615 28.32004019 -4.10411375 16.04739442 -8 7 C-8 6.34 -8 5.68 -8 5 C-7.01 5.33 -6.02 5.66 -5 6 C-4.731875 5.38125 -4.46375 4.7625 -4.1875 4.125 C-3 2 -3 2 0 0 Z " fill="#E8F4F8" transform="translate(78,67)"/>
<path d="M0 0 C0 47.52 0 95.04 0 144 C-3.63 144 -7.26 144 -11 144 C-11 143.67 -11 143.34 -11 143 C-8.03 143 -5.06 143 -2 143 C-1.67 96.47 -1.34 49.94 -1 2 C-3.31 2 -5.62 2 -8 2 C-8 2.66 -8 3.32 -8 4 C-11.63 4.66 -15.26 5.32 -19 6 C-19 6.66 -19 7.32 -19 8 C-21 9.625 -21 9.625 -23 11 C-23.66 10.67 -24.32 10.34 -25 10 C-17.17956115 2.51958023 -10.93205923 0 0 0 Z " fill="#4380BB" transform="translate(235,5)"/>
<path d="M0 0 C3.4375 0.8125 3.4375 0.8125 5.4375 3.8125 C6.15186048 8.24818016 5.91789671 11.83169005 3.9375 15.875 C0.34896527 18.65611442 -2.08561818 17.95353998 -6.5625 17.8125 C-6.64324203 15.18688891 -6.7028623 12.56374324 -6.75 9.9375 C-6.77513672 9.19113281 -6.80027344 8.44476563 -6.82617188 7.67578125 C-6.85546875 5.5078125 -6.85546875 5.5078125 -6.5625 1.8125 C-3.5625 -0.1875 -3.5625 -0.1875 0 0 Z " fill="#F4F4F4" transform="translate(201.5625,168.1875)"/>
<path d="M0 0 C3 1 3 1 4 3 C6.64 3 9.28 3 12 3 C12 5.31 12 7.62 12 10 C12.99 9.67 13.98 9.34 15 9 C14 12 14 12 10.875 13.75 C6.96710409 15.26661669 4.0741895 15.1530725 0 14 C-2.4375 12.3125 -2.4375 12.3125 -4 10 C-4.5 7 -4.5 7 -4 4 C-2 1.625 -2 1.625 0 0 Z " fill="#0F0F0F" transform="translate(93,176)"/>
<path d="M0 0 C2.65204896 0.36834013 3.73840056 0.6867691 5.484375 2.77734375 C5.90203125 3.49019531 6.3196875 4.20304688 6.75 4.9375 C7.17796875 5.64777344 7.6059375 6.35804688 8.046875 7.08984375 C9 9 9 9 9 11 C9.66 11 10.32 11 11 11 C11.268125 10.278125 11.53625 9.55625 11.8125 8.8125 C12.98982498 6.02409874 14.39145884 3.55904276 16 1 C17.32 1.66 18.64 2.32 20 3 C19.33472731 6.73439735 17.68250727 9.48779884 15.6875 12.6875 C14.79611328 14.14736328 14.79611328 14.14736328 13.88671875 15.63671875 C11.81078261 18.23701143 11.1189818 18.4161771 8 19 C7.06027344 17.41058594 7.06027344 17.41058594 6.1015625 15.7890625 C5.27619766 14.4009489 4.45066826 13.01293314 3.625 11.625 C3.2125 10.92632812 2.8 10.22765625 2.375 9.5078125 C1.97539062 8.8375 1.57578125 8.1671875 1.1640625 7.4765625 C0.79748535 6.85861816 0.4309082 6.24067383 0.05322266 5.60400391 C-1.03259894 3.83209267 -1.03259894 3.83209267 -3 2 C-2.01 2 -1.02 2 0 2 C0 1.34 0 0.68 0 0 Z " fill="#080808" transform="translate(13,163)"/>
<path d="M0 0 C0.77725433 -0.00095673 1.55450867 -0.00191345 2.35531616 -0.00289917 C4.00461915 -0.00358056 5.6539248 -0.00172916 7.30322266 0.00244141 C9.80507603 0.00774705 12.3067463 0.00251761 14.80859375 -0.00390625 C16.41406289 -0.00324461 18.01953192 -0.00196169 19.625 0 C20.36489166 -0.00202423 21.10478333 -0.00404846 21.86709595 -0.00613403 C25.37999011 0.00938145 28.7908034 0.15807958 32.27490234 0.62133789 C36.13125205 1.12245764 39.8879064 1.33589076 43.7734375 1.44921875 C44.78857422 1.4803904 44.78857422 1.4803904 45.82421875 1.51219177 C47.95303752 1.57676163 50.08196275 1.63613406 52.2109375 1.6953125 C53.66797907 1.73858615 55.12501049 1.782203 56.58203125 1.82617188 C60.12489162 1.93234552 63.66786713 2.03386361 67.2109375 2.1328125 C67.2109375 2.4628125 67.2109375 2.7928125 67.2109375 3.1328125 C38.5009375 3.1328125 9.7909375 3.1328125 -19.7890625 3.1328125 C-19.7890625 2.8028125 -19.7890625 2.4728125 -19.7890625 2.1328125 C-18.74105469 2.04193359 -18.74105469 2.04193359 -17.671875 1.94921875 C-16.76179688 1.86542969 -15.85171875 1.78164062 -14.9140625 1.6953125 C-14.00914063 1.61410156 -13.10421875 1.53289062 -12.171875 1.44921875 C-1.23301157 -0.00331885 -1.23301157 -0.00331885 0 0 Z " fill="#3BA0A4" transform="translate(107.7890625,145.8671875)"/>
<path d="M0 0 C0.33 0.66 0.66 1.32 1 2 C3.52733235 2.65555119 3.52733235 2.65555119 6 3 C6.1875 5.375 6.1875 5.375 6 8 C2.55549263 10.29633824 0.06187717 10.54016485 -4 11 C-2.74458443 13.51083114 -1.49936512 13.87125446 1 15 C-5.36989498 14.39906651 -5.36989498 14.39906651 -7.875 12.8125 C-9.49294043 10.2058182 -9.81342578 8.04737897 -10 5 C-9.17150343 2.28855668 -8.44371988 1.31060391 -6.125 -0.3125 C-3.61555653 -1.12437877 -2.42103782 -1.00180875 0 0 Z " fill="#131313" transform="translate(173,176)"/>
<path d="M0 0 C0.33 0.99 0.66 1.98 1 3 C2.32 3 3.64 3 5 3 C5.33 5.64 5.66 8.28 6 11 C6.66 11 7.32 11 8 11 C8.33 8.69 8.66 6.38 9 4 C9.33 4 9.66 4 10 4 C10 9.61 10 15.22 10 21 C12.64 21 15.28 21 18 21 C18 22.32 18 23.64 18 25 C16.39884424 25.2493357 14.79379841 25.47378648 13.1875 25.6875 C12.29417969 25.81511719 11.40085937 25.94273437 10.48046875 26.07421875 C8 26 8 26 6.23828125 24.64453125 C3.34511782 20.80219117 3.88883495 16.98694927 3.9375 12.375 C3.94201172 11.57320312 3.94652344 10.77140625 3.95117188 9.9453125 C3.96296832 7.96350994 3.98090395 5.98174567 4 4 C2.68 4 1.36 4 0 4 C0 2.68 0 1.36 0 0 Z " fill="#1F1F1F" transform="translate(69,165)"/>
<path d="M0 0 C4.92154735 -0.57900557 7.96104702 -0.76331239 12.0625 2.25 C15.21020869 6.80274129 14.87970117 12.73645464 14 18 C12.46875 20.3671875 12.46875 20.3671875 11 22 C10.01 21.34 9.02 20.68 8 20 C7.78666864 16.91113966 8.00733311 13.93676764 8.1875 10.84765625 C8.2503338 8.01390195 8.2503338 8.01390195 6.69921875 6.1640625 C4.26483996 4.49637312 1.89228776 4.32136531 -1 4 C-0.67 2.68 -0.34 1.36 0 0 Z " fill="#050505" transform="translate(198,164)"/>
<path d="M0 0 C10.5555654 -0.27276831 20.49367203 0.47339601 30.9375 2 C32.31432122 2.19364848 33.6912745 2.38636043 35.06835938 2.578125 C38.38031422 3.04296077 41.6906534 3.5170056 45 4 C45 4.66 45 5.32 45 6 C45.66 6.66 46.32 7.32 47 8 C45.39592672 8.02708567 43.7917215 8.04643483 42.1875 8.0625 C40.84751953 8.07990234 40.84751953 8.07990234 39.48046875 8.09765625 C37 8 37 8 34 7 C32.68 7 31.36 7 30 7 C30 7.66 30 8.32 30 9 C28.35 9 26.7 9 25 9 C26.32 8.67 27.64 8.34 29 8 C28.34 7.34 27.68 6.68 27 6 C25.02 6.66 23.04 7.32 21 8 C21 6.02 21 4.04 21 2 C20.15236084 2.01571045 20.15236084 2.01571045 19.28759766 2.03173828 C16.73344347 2.07324788 14.17936018 2.0993096 11.625 2.125 C10.73554687 2.14175781 9.84609375 2.15851563 8.9296875 2.17578125 C8.07890625 2.18222656 7.228125 2.18867187 6.3515625 2.1953125 C5.17327881 2.21102295 5.17327881 2.21102295 3.97119141 2.22705078 C2 2 2 2 0 0 Z " fill="#AFCEE7" transform="translate(91,63)"/>
<path d="M0 0 C-0.66 0 -1.32 0 -2 0 C-2 1.32 -2 2.64 -2 4 C-2 4.66 -2 5.32 -2 6 C-3.2375 6.12375 -4.475 6.2475 -5.75 6.375 C-8.8762197 6.75746305 -11.28879237 7.30549523 -14 9 C-13.67 10.32 -13.34 11.64 -13 13 C-13.61875 13.061875 -14.2375 13.12375 -14.875 13.1875 C-17.24379837 13.81891092 -17.24379837 13.81891092 -18.1875 16.375 C-18.5896875 17.674375 -18.5896875 17.674375 -19 19 C-19.33 19.99 -19.66 20.98 -20 22 C-21.65 22 -23.3 22 -25 22 C-24.67 20.68 -24.34 19.36 -24 18 C-22.68 17.67 -21.36 17.34 -20 17 C-20.66 16.67 -21.32 16.34 -22 16 C-21.33333333 14.66666667 -20.66666667 13.33333333 -20 12 C-19.566875 10.989375 -19.13375 9.97875 -18.6875 8.9375 C-16.8107367 5.67054166 -15.38287052 4.56132486 -12 3 C-11.34 3 -10.68 3 -10 3 C-10 2.34 -10 1.68 -10 1 C-3.71428571 -1.42857143 -3.71428571 -1.42857143 0 0 Z M-27 22 C-26.01 22.495 -26.01 22.495 -25 23 C-25.66 23.66 -26.32 24.32 -27 25 C-27 24.01 -27 23.02 -27 22 Z " fill="#3D8DD8" transform="translate(226,10)"/>
<path d="M0 0 C26.73 0.33 53.46 0.66 81 1 C81 1.33 81 1.66 81 2 C77.92382812 2.29296875 77.92382812 2.29296875 74.84765625 2.5859375 C74.23792969 2.72257813 73.62820312 2.85921875 73 3 C72.67 3.66 72.34 4.32 72 5 C70.68 4.67 69.36 4.34 68 4 C68.33 3.34 68.66 2.68 69 2 C56.79 2 44.58 2 32 2 C32.495 3.485 32.495 3.485 33 5 C31.35 5.33 29.7 5.66 28 6 C27.67 5.01 27.34 4.02 27 3 C23.37506666 2.94212216 19.75025143 2.9064458 16.125 2.875 C14.57619141 2.84986328 14.57619141 2.84986328 12.99609375 2.82421875 C12.00996094 2.81777344 11.02382813 2.81132812 10.0078125 2.8046875 C9.09660645 2.79421387 8.18540039 2.78374023 7.24658203 2.77294922 C4.79709564 2.78129007 4.79709564 2.78129007 3 5 C0.875 4.625 0.875 4.625 -1 4 C-0.34 4 0.32 4 1 4 C0.67 2.68 0.34 1.36 0 0 Z " fill="#E9FAEE" transform="translate(7,149)"/>
<path d="M0 0 C3.06618145 1.72964082 3.30233401 3.1316686 4.4375 6.375 C5.4275 7.035 6.4175 7.695 7.4375 8.375 C7.4375 9.035 7.4375 9.695 7.4375 10.375 C11.0675 11.035 14.6975 11.695 18.4375 12.375 C18.4375 13.035 18.4375 13.695 18.4375 14.375 C22.91177924 14.46448558 27.04313789 14.23243651 31.4375 13.375 C31.9325 14.365 31.9325 14.365 32.4375 15.375 C21.79009004 17.67714269 13.99271989 16.54997402 4.4375 11.375 C4.4375 10.715 4.4375 10.055 4.4375 9.375 C3.84453125 9.11976562 3.2515625 8.86453125 2.640625 8.6015625 C0.22525462 7.25683502 -1.07461706 5.88285633 -2.8125 3.75 C-3.33328125 3.11835937 -3.8540625 2.48671875 -4.390625 1.8359375 C-4.77734375 1.35382813 -5.1640625 0.87171875 -5.5625 0.375 C-2.5625 -0.625 -2.5625 -0.625 0 0 Z " fill="#C3F0EC" transform="translate(85.5625,91.625)"/>
<path d="M0 0 C0.598125 0.825 1.19625 1.65 1.8125 2.5 C3.83127382 4.58878909 4.76335402 4.98022267 7.7109375 5.2265625 C9.66758192 5.15980035 11.62328967 5.04648991 13.57421875 4.8828125 C14.77498047 4.94082031 14.77498047 4.94082031 16 5 C16.99 6.485 16.99 6.485 18 8 C15.00519713 10.99480287 12.75500804 10.95881774 8.5625 11.1875 C5.0502268 11.00264352 2.98807093 10.82604335 0 9 C-1.8125 5.875 -1.8125 5.875 -3 3 C-2.34 3 -1.68 3 -1 3 C-0.67 2.01 -0.34 1.02 0 0 Z " fill="#0D0D0D" transform="translate(48,180)"/>
<path d="M0 0 C-5.37625234 0.84888195 -9.65370398 1.0024305 -15 0 C-15.33 0.66 -15.66 1.32 -16 2 C-18.088639 2.67375452 -19.80363095 3 -22 3 C-23.4540625 3.0309375 -23.4540625 3.0309375 -24.9375 3.0625 C-28 3 -28 3 -31 2 C-32.55853267 1.78196693 -34.12182651 1.59633644 -35.6875 1.4375 C-36.49574219 1.35371094 -37.30398437 1.26992187 -38.13671875 1.18359375 C-38.75160156 1.12300781 -39.36648437 1.06242187 -40 1 C-40 0.67 -40 0.34 -40 0 C-5.99647115 -3.69464726 -5.99647115 -3.69464726 0 0 Z " fill="#35B1A2" transform="translate(144,109)"/>
<path d="M0 0 C0.47050781 0.40992187 0.94101563 0.81984375 1.42578125 1.2421875 C2.04839844 1.78101562 2.67101562 2.31984375 3.3125 2.875 C4.23482422 3.67550781 4.23482422 3.67550781 5.17578125 4.4921875 C7.13498212 6.1640447 7.13498212 6.1640447 10 8 C10 8.66 10 9.32 10 10 C10.825 10.268125 11.65 10.53625 12.5 10.8125 C16.36915561 12.12524922 20.17994294 13.55101284 24 15 C24 15.66 24 16.32 24 17 C25.32 17.33 26.64 17.66 28 18 C17.31937173 18.20942408 17.31937173 18.20942408 14.5 15.625 C14.005 15.08875 13.51 14.5525 13 14 C10.32658066 12.26589016 7.74305864 10.88916255 4.8125 9.625 C2 8 2 8 0.625 5.5 C0 3 0 3 0 0 Z " fill="#4FC18D" transform="translate(80,93)"/>
<path d="M0 0 C0.495 1.485 0.495 1.485 1 3 C-0.27875 2.98839844 -1.5575 2.97679688 -2.875 2.96484375 C-4.58333186 2.95545731 -6.29166532 2.94635803 -8 2.9375 C-8.83917969 2.92912109 -9.67835938 2.92074219 -10.54296875 2.91210938 C-14.47143228 2.89688277 -18.2915584 2.97023091 -22.1875 3.5 C-25.84699327 3.97993354 -29.31351087 4.10090093 -33 4.0625 C-34.134375 4.05347656 -35.26875 4.04445313 -36.4375 4.03515625 C-37.283125 4.02355469 -38.12875 4.01195313 -39 4 C-39 3.67 -39 3.34 -39 3 C-34.38 2.67 -29.76 2.34 -25 2 C-25 1.34 -25 0.68 -25 0 C-24.41992188 0.01160156 -23.83984375 0.02320312 -23.2421875 0.03515625 C-19.74677067 0.07553235 -16.50596106 0.09688616 -13.0625 -0.5625 C-8.63182333 -1.19545381 -4.41856027 -0.56760162 0 0 Z " fill="#79C0DE" transform="translate(143,105)"/>
<path d="M0 0 C2 2 2 2 3 9 C-7.89 9 -18.78 9 -30 9 C-30 8.34 -30 7.68 -30 7 C-28.99582031 7.02320313 -27.99164063 7.04640625 -26.95703125 7.0703125 C-18.09783393 7.20955332 -9.73816398 6.67581227 -1 5 C-0.67 3.35 -0.34 1.7 0 0 Z " fill="#369FB7" transform="translate(174,139)"/>
<path d="M0 0 C10.02244165 -0.62208259 10.02244165 -0.62208259 13.75 1.75 C15 4 15 4 14.75 6.25 C14.5025 6.8275 14.255 7.405 14 8 C12.0625 7.625 12.0625 7.625 10 7 C9.67 6.34 9.34 5.68 9 5 C4.34947128 4.73067479 4.34947128 4.73067479 0 6 C0 4.02 0 2.04 0 0 Z " fill="#090909" transform="translate(51,164)"/>
<path d="M0 0 C0 0.66 0 1.32 0 2 C-9.31418354 5.78882042 -18.16157926 5.82903174 -28 4 C-25.66705383 1.66705383 -25.16886609 1.73137956 -22.0078125 1.62109375 C-20.82638672 1.56985352 -20.82638672 1.56985352 -19.62109375 1.51757812 C-18.38552734 1.47793945 -18.38552734 1.47793945 -17.125 1.4375 C-15.50246786 1.37726381 -13.88005938 1.3135771 -12.2578125 1.24609375 C-11.5373877 1.22216553 -10.81696289 1.1982373 -10.07470703 1.17358398 C-7.99056568 1.05702195 -7.99056568 1.05702195 -5.98388672 0.48461914 C-4 0 -4 0 0 0 Z " fill="#7FACD3" transform="translate(162,66)"/>
<path d="M0 0 C0.33 0.66 0.66 1.32 1 2 C0 3.66666667 -1 5.33333333 -2 7 C-1.67 7.66 -1.34 8.32 -1 9 C-2.32 9.33 -3.64 9.66 -5 10 C-5.33 11.32 -5.66 12.64 -6 14 C-6.66 14 -7.32 14 -8 14 C-8.020625 14.845625 -8.04125 15.69125 -8.0625 16.5625 C-9.37566079 21.3774229 -12.33404034 23.76476667 -16 27 C-16.66 26.67 -17.32 26.34 -18 26 C-17.41992188 25.16597656 -16.83984375 24.33195312 -16.2421875 23.47265625 C-12.20037926 17.65269513 -8.17778754 11.82639563 -4.2890625 5.90234375 C-2.9214951 3.8841458 -1.47702593 1.93913638 0 0 Z " fill="#5892C4" transform="translate(207,18)"/>
<path d="M0 0 C0.1875 2.375 0.1875 2.375 0 5 C-3.44107266 7.29404844 -4.96839809 7.26293056 -9 7 C-10 6 -10 6 -10.0625 3.4375 C-10.041875 2.633125 -10.02125 1.82875 -10 1 C-6.52674819 -0.1577506 -3.63932552 -0.06866652 0 0 Z " fill="#F2F2F2" transform="translate(179,179)"/>
<path d="M0 0 C2.01822917 0.06510417 4.03645833 0.13020833 6.0546875 0.1953125 C6.2421875 2.5703125 6.2421875 2.5703125 6.0546875 5.1953125 C2.6194827 7.48544903 1.0693565 7.37374223 -2.9453125 7.1953125 C-3.5703125 4.8203125 -3.5703125 4.8203125 -3.9453125 2.1953125 C-1.9453125 0.1953125 -1.9453125 0.1953125 0 0 Z " fill="#EDEDED" transform="translate(98.9453125,178.8046875)"/>
<path d="M0 0 C1.7325 0.1546875 1.7325 0.1546875 3.5 0.3125 C5.5 3.3125 5.5 3.3125 5.5 6.3125 C1.54 6.3125 -2.42 6.3125 -6.5 6.3125 C-5.03424658 0.4494863 -5.03424658 0.4494863 0 0 Z " fill="#EFEFEF" transform="translate(56.5,167.6875)"/>
<path d="M0 0 C0.33 0.99 0.66 1.98 1 3 C-1.34133029 5.42938418 -3.70023581 7.84098035 -6.0625 10.25 C-7.04766602 11.27287109 -7.04766602 11.27287109 -8.05273438 12.31640625 C-12.09468455 16.41808968 -15.85311835 19.40313384 -21 22 C-21.33 21.01 -21.66 20.02 -22 19 C-17.375 16 -17.375 16 -14 16 C-14 15.01 -14 14.02 -14 13 C-12.03443803 11.217281 -10.10489487 9.59852865 -8 8 C-4.80166766 5.54546588 -2.27028067 3.34567677 0 0 Z " fill="#E2F7FD" transform="translate(190,40)"/>
<path d="M0 0 C0.33 0.99 0.66 1.98 1 3 C-3.11418186 4.99475484 -6.44755354 5.34358086 -11 5 C-11.66 4.34 -12.32 3.68 -13 3 C-13 2.34 -13 1.68 -13 1 C-11.58622218 0.63447197 -10.16879424 0.28304505 -8.75 -0.0625 C-7.96109375 -0.25972656 -7.1721875 -0.45695313 -6.359375 -0.66015625 C-3.84356698 -1.02253257 -2.33996286 -0.98878961 0 0 Z " fill="#101010" transform="translate(236,186)"/>
<path d="M0 0 C3.5625 0.1875 3.5625 0.1875 5.5625 2.1875 C5.5625 3.5075 5.5625 4.8275 5.5625 6.1875 C1.9325 6.1875 -1.6975 6.1875 -5.4375 6.1875 C-4.24632353 0.23161765 -4.24632353 0.23161765 0 0 Z " fill="#F3F3F3" transform="translate(227.4375,167.8125)"/>
<path d="M0 0 C1.09570312 0.00902344 2.19140625 0.01804688 3.3203125 0.02734375 C4.16335937 0.03894531 5.00640625 0.05054688 5.875 0.0625 C5.875 0.7225 5.875 1.3825 5.875 2.0625 C8.515 2.0625 11.155 2.0625 13.875 2.0625 C13.875 2.3925 13.875 2.7225 13.875 3.0625 C3.315 3.0625 -7.245 3.0625 -18.125 3.0625 C-18.125 2.7325 -18.125 2.4025 -18.125 2.0625 C-17.07699219 1.97162109 -17.07699219 1.97162109 -16.0078125 1.87890625 C-15.09773438 1.79511719 -14.18765625 1.71132812 -13.25 1.625 C-12.34507813 1.54378906 -11.44015625 1.46257812 -10.5078125 1.37890625 C-0.11429961 -0.00121595 -0.11429961 -0.00121595 0 0 Z " fill="#3BB692" transform="translate(106.125,145.9375)"/>
<path d="M0 0 C10.96963938 0.03815527 19.89568836 3.04298215 30 7 C27.59561841 7.85404504 26.36546452 8.12387468 23.9140625 7.29296875 C22.78097656 6.74576172 22.78097656 6.74576172 21.625 6.1875 C15.28997901 3.4467499 8.81537521 2.74635233 2 2 C1.34 3.32 0.68 4.64 0 6 C0 4.02 0 2.04 0 0 Z " fill="#57C97D" transform="translate(8,24)"/>
<path d="M0 0 C1.32 0.66 2.64 1.32 4 2 C4 2.99 4 3.98 4 5 C-0.22949995 7.41685712 -3.12335991 8.34833144 -8 8 C-7.34 6.68 -6.68 5.36 -6 4 C-6.66 3.67 -7.32 3.34 -8 3 C-6.865625 2.690625 -5.73125 2.38125 -4.5625 2.0625 C-1.21224901 1.37075469 -1.21224901 1.37075469 0 0 Z " fill="#121212" transform="translate(205,183)"/>
<path d="M0 0 C1.32 0.66 2.64 1.32 4 2 C3.32902328 6.19360449 1.1441606 9.40334352 -1 13 C-2.76462683 9.91190305 -3 8.76687864 -3 5 C-1.5 2.25 -1.5 2.25 0 0 Z " fill="#0F0F0F" transform="translate(29,164)"/>
<path d="M0 0 C11.00360093 3.31518746 11.00360093 3.31518746 14.8125 8.4375 C16.16233778 11.35030783 15.91680607 12.0624785 15 15 C14.5875 14.49210937 14.175 13.98421875 13.75 13.4609375 C10.0223915 9.0177613 6.26580027 5.44506395 1.50390625 2.12890625 C1.00761719 1.75636719 0.51132812 1.38382813 0 1 C0 0.67 0 0.34 0 0 Z " fill="#DBFDE9" transform="translate(40,32)"/>
<path d="M0 0 C4.65281472 1.45615868 7.7635188 4.16037858 11.25 7.4375 C12.06210937 8.17323242 12.06210937 8.17323242 12.890625 8.92382812 C15.39684343 11.24521295 16.90317029 12.70951087 18 16 C17.01 15.67 16.02 15.34 15 15 C15 14.34 15 13.68 15 13 C14.01 12.67 13.02 12.34 12 12 C11 11 10 10 9 9 C6.90010348 7.82425289 6.90010348 7.82425289 5 7 C5 6.34 5 5.68 5 5 C4.34 5 3.68 5 3 5 C3 4.34 3 3.68 3 3 C2.34 3 1.68 3 1 3 C0.67 2.01 0.34 1.02 0 0 Z " fill="#4ECD7A" transform="translate(38,32)"/>
<path d="M0 0 C0 0.33 0 0.66 0 1 C-2.31 1 -4.62 1 -7 1 C-7 1.66 -7 2.32 -7 3 C-10.63 3.66 -14.26 4.32 -18 5 C-18 5.66 -18 6.32 -18 7 C-20 8.625 -20 8.625 -22 10 C-22.66 9.67 -23.32 9.34 -24 9 C-17.13326941 2.43182292 -9.72510647 -2.5369843 0 0 Z " fill="#528BBE" transform="translate(234,6)"/>
<path d="M0 0 C-3.82657808 3.82657808 -9.51223634 4.11195699 -14.71875 4.1953125 C-16.31261878 4.182248 -17.90643482 4.15873998 -19.5 4.125 C-20.73363281 4.11146484 -20.73363281 4.11146484 -21.9921875 4.09765625 C-23.99492083 4.07436865 -25.99750154 4.03850959 -28 4 C-28 3.67 -28 3.34 -28 3 C-24.27153308 2.49468813 -20.54212492 1.9966867 -16.8125 1.5 C-15.22985352 1.28537109 -15.22985352 1.28537109 -13.61523438 1.06640625 C-12.08286133 0.86337891 -12.08286133 0.86337891 -10.51953125 0.65625 C-9.58214111 0.53056641 -8.64475098 0.40488281 -7.67895508 0.27539062 C-5.09682192 0.00995308 -2.59349011 -0.04936064 0 0 Z " fill="#E6F9FE" transform="translate(164,64)"/>
<path d="M0 0 C1.27359375 -0.01417969 2.5471875 -0.02835937 3.859375 -0.04296875 C6.98441158 0.16944733 8.65216483 0.52777197 11.25 2.1875 C5.11981894 3.14534079 -0.56959734 3.16297621 -6.75 2.75 C-7.62011719 2.69779297 -8.49023438 2.64558594 -9.38671875 2.59179688 C-11.50821809 2.46357439 -13.62917725 2.3264652 -15.75 2.1875 C-15.75 1.8575 -15.75 1.5275 -15.75 1.1875 C-10.49873762 0.33015104 -5.31731306 0.05146824 0 0 Z " fill="#42A4B4" transform="translate(132.75,106.8125)"/>
<path d="M0 0 C0.99 0.33 1.98 0.66 3 1 C3.33 2.65 3.66 4.3 4 6 C4.66 6 5.32 6 6 6 C6.66 6.66 7.32 7.32 8 8 C8.680625 8.309375 9.36125 8.61875 10.0625 8.9375 C12 10 12 10 13 13 C12.01 13.495 12.01 13.495 11 14 C10.34 13.34 9.68 12.68 9 12 C8.35546875 11.88527344 7.7109375 11.77054688 7.046875 11.65234375 C4.13767686 10.72517564 3.62978779 9.22412768 2.25 6.5625 C1.82203125 5.75941406 1.3940625 4.95632812 0.953125 4.12890625 C0 2 0 2 0 0 Z " fill="#D5F8EF" transform="translate(74,80)"/>
<path d="M0 0 C0.99 0.33 1.98 0.66 3 1 C2.55269531 1.4846875 2.10539063 1.969375 1.64453125 2.46875 C-2.47777883 7.03932834 -5.9238704 11.66993213 -9 17 C-9.66796875 15.31640625 -9.66796875 15.31640625 -10 13 C-8.92578125 10.52734375 -8.92578125 10.52734375 -7.3125 7.9375 C-6.79300781 7.08027344 -6.27351562 6.22304688 -5.73828125 5.33984375 C-3.98709061 2.98262309 -2.54969784 1.45337806 0 0 Z " fill="#E4F8FD" transform="translate(208,14)"/>
<path d="M0 0 C2.59037598 3.20490963 4.37943156 6.55350453 6.1875 10.25 C6.71730469 11.32765625 7.24710937 12.4053125 7.79296875 13.515625 C8.19128906 14.33546875 8.58960937 15.1553125 9 16 C7.35 15.67 5.7 15.34 4 15 C4 13.35 4 11.7 4 10 C3.01 9.67 2.02 9.34 1 9 C0.67 6.03 0.34 3.06 0 0 Z " fill="#54CB88" transform="translate(71,76)"/>
<path d="M0 0 C2.38681675 2.38681675 3.94223816 4.2585508 5.6875 7.0625 C6.12449219 7.75472656 6.56148437 8.44695313 7.01171875 9.16015625 C8 11 8 11 8 13 C7.01 13.33 6.02 13.66 5 14 C4.34 12.02 3.68 10.04 3 8 C2.01 8.33 1.02 8.66 0 9 C0 6.03 0 3.06 0 0 Z " fill="#4AD279" transform="translate(56,48)"/>
<path d="M0 0 C2 2 2 2 3 9 C-2.61 8.67 -8.22 8.34 -14 8 C-14 7.67 -14 7.34 -14 7 C-9.71 6.34 -5.42 5.68 -1 5 C-0.67 3.35 -0.34 1.7 0 0 Z " fill="#369ACC" transform="translate(174,139)"/>
<path d="M0 0 C0.66 0 1.32 0 2 0 C3 1.66666667 4 3.33333333 5 5 C5.66 5 6.32 5 7 5 C7 5.99 7 6.98 7 8 C4.69 8 2.38 8 0 8 C-0.38063221 5.6739143 -0.71269945 3.33944736 -1 1 C-0.67 0.67 -0.34 0.34 0 0 Z " fill="#39D86B" transform="translate(57,56)"/>
<path d="M0 0 C5.08174565 -0.17523261 9.32069904 -0.28258584 14 2 C14.66015625 4.078125 14.66015625 4.078125 15 6 C4.44191344 2.92482916 4.44191344 2.92482916 0 1 C0 0.67 0 0.34 0 0 Z " fill="#D0FBE1" transform="translate(25,26)"/>
<path d="M0 0 C2.3125 0.1875 2.3125 0.1875 4 1 C4 1.99 4 2.98 4 4 C-0.43076923 6.09230769 -0.43076923 6.09230769 -3.3125 5.625 C-3.869375 5.41875 -4.42625 5.2125 -5 5 C-2.75 2.4375 -2.75 2.4375 0 0 Z " fill="#161616" transform="translate(61,185)"/>
<path d="M0 0 C3.27489807 -0.07987556 6.2575748 0.04139595 9.5 0.5625 C12.97344639 0.9966808 15.60153693 0.74600409 19 0 C19.33 0.66 19.66 1.32 20 2 C13.63224179 3.37681259 6.24452893 4.08150964 0 2 C0 1.34 0 0.68 0 0 Z " fill="#9EDBE5" transform="translate(98,105)"/>
<path d="M0 0 C0 0.66 0 1.32 0 2 C0.66 2.66 1.32 3.32 2 4 C0.41753293 4.08153933 -1.16616273 4.13943557 -2.75 4.1875 C-4.07257813 4.23970703 -4.07257813 4.23970703 -5.421875 4.29296875 C-8.44671583 3.94923684 -9.75583602 2.99772541 -12 1 C-8.0186217 -0.3271261 -4.14954773 -0.06915913 0 0 Z " fill="#91BBE0" transform="translate(136,67)"/>
<path d="M0 0 C7.625 0.875 7.625 0.875 11 2 C11 2.66 11 3.32 11 4 C12.32 4.33 13.64 4.66 15 5 C6.5 5.16666667 6.5 5.16666667 3 4 C1.1875 1.9375 1.1875 1.9375 0 0 Z " fill="#40BB96" transform="translate(93,106)"/>
<path d="M0 0 C0.66 0.33 1.32 0.66 2 1 C1.67 1.99 1.34 2.98 1 4 C-1.6171875 4.984375 -1.6171875 4.984375 -4.875 5.75 C-5.94492188 6.01296875 -7.01484375 6.2759375 -8.1171875 6.546875 C-11 7 -11 7 -14 6 C-13.34 6 -12.68 6 -12 6 C-12 5.34 -12 4.68 -12 4 C-7.545 3.505 -7.545 3.505 -3 3 C-3 2.34 -3 1.68 -3 1 C-2.01 0.67 -1.02 0.34 0 0 Z " fill="#E4F9FE" transform="translate(235,0)"/>
<path d="M0 0 C0.66 0 1.32 0 2 0 C3.91847864 2.87771795 5.50079488 5.88626628 7 9 C4.69 8.34 2.38 7.68 0 7 C0 4.69 0 2.38 0 0 Z " fill="#2CD670" transform="translate(72,87)"/>
<path d="M0 0 C1.65 0 3.3 0 5 0 C5 0.66 5 1.32 5 2 C0.53665816 3.72293135 -3.10201231 4.22240791 -7.875 4.125 C-9.02742188 4.10695313 -10.17984375 4.08890625 -11.3671875 4.0703125 C-12.23601562 4.04710938 -13.10484375 4.02390625 -14 4 C-14 3.67 -14 3.34 -14 3 C-9.38 2.67 -4.76 2.34 0 2 C0 1.34 0 0.68 0 0 Z " fill="#81CBD7" transform="translate(118,105)"/>
<path d="M0 0 C0.33 0.99 0.66 1.98 1 3 C0.16855469 3.38091797 0.16855469 3.38091797 -0.6796875 3.76953125 C-1.76636719 4.28580078 -1.76636719 4.28580078 -2.875 4.8125 C-3.59429687 5.14894531 -4.31359375 5.48539063 -5.0546875 5.83203125 C-7.30542806 6.99467097 -7.30542806 6.99467097 -9 10 C-9.99 10 -10.98 10 -12 10 C-12 9.01 -12 8.02 -12 7 C-11.21753906 6.57847656 -10.43507812 6.15695313 -9.62890625 5.72265625 C-8.61699219 5.17480469 -7.60507813 4.62695312 -6.5625 4.0625 C-5.55316406 3.51722656 -4.54382813 2.97195312 -3.50390625 2.41015625 C-1.13329507 1.22300532 -1.13329507 1.22300532 0 0 Z " fill="#719FCE" transform="translate(174,58)"/>
<path d="M0 0 C0.33 1.65 0.66 3.3 1 5 C-0.27875 5.144375 -1.5575 5.28875 -2.875 5.4375 C-5.25692894 5.70642746 -6.84452691 5.92226346 -9 7 C-8.875 5.1875 -8.875 5.1875 -8 3 C-2.96428571 0 -2.96428571 0 0 0 Z " fill="#348EE5" transform="translate(223,11)"/>
<path d="M0 0 C-1.29096781 0.81360995 -2.58279875 1.62585046 -3.875 2.4375 C-4.59429687 2.88996094 -5.31359375 3.34242187 -6.0546875 3.80859375 C-8 5 -8 5 -10 6 C-10.99 4.35 -11.98 2.7 -13 1 C-10 1 -10 1 -8 2 C-7.67 1.34 -7.34 0.68 -7 0 C-3.86650268 -1.04449911 -3.01031744 -0.93423645 0 0 Z " fill="#E7F7FA" transform="translate(221,8)"/>
<path d="M0 0 C0.99 0.99 1.98 1.98 3 3 C2.67 3.66 2.34 4.32 2 5 C1.84932786 6.4465242 1.75138964 7.8987934 1.68359375 9.3515625 C1.64169922 10.20234375 1.59980469 11.053125 1.55664062 11.9296875 C1.51732422 12.81914062 1.47800781 13.70859375 1.4375 14.625 C1.39431641 15.5221875 1.35113281 16.419375 1.30664062 17.34375 C1.20043139 19.56234283 1.09838806 21.7810488 1 24 C0.67 24 0.34 24 0 24 C0 16.08 0 8.16 0 0 Z " fill="#D2D2D2" transform="translate(11,166)"/>
<path d="M0 0 C0.66 0 1.32 0 2 0 C6.07877462 7.0547046 6.07877462 7.0547046 5.75 11 C5.5025 11.66 5.255 12.32 5 13 C4.67 13 4.34 13 4 13 C3.34 10.36 2.68 7.72 2 5 C1.34 5 0.68 5 0 5 C0 3.35 0 1.7 0 0 Z " fill="#4ECF79" transform="translate(65,66)"/>
<path d="M0 0 C0 0.99 0 1.98 0 3 C-2.97 3 -5.94 3 -9 3 C-9 2.01 -9 1.02 -9 0 C-3.375 -1.125 -3.375 -1.125 0 0 Z " fill="#308DE0" transform="translate(233,144)"/>
<path d="M0 0 C1.93681161 -0.08107583 3.8745934 -0.13922475 5.8125 -0.1875 C6.89144531 -0.22230469 7.97039063 -0.25710937 9.08203125 -0.29296875 C12 0 12 0 13.88671875 1.51171875 C14.25410156 2.00285156 14.62148438 2.49398438 15 3 C13.06183265 2.8858134 11.12444901 2.75826577 9.1875 2.625 C8.10855469 2.55539063 7.02960937 2.48578125 5.91796875 2.4140625 C3 2 3 2 0 0 Z " fill="#D7FCE1" transform="translate(10,23)"/>
<path d="M0 0 C2.00720923 0.28674418 4.0085944 0.61866701 6 1 C6.33 1.99 6.66 2.98 7 4 C4.125 4.1875 4.125 4.1875 1 4 C0.34 3.01 -0.32 2.02 -1 1 C-0.67 0.67 -0.34 0.34 0 0 Z " fill="#020202" transform="translate(169,186)"/>
<path d="M0 0 C4.29 0 8.58 0 13 0 C13 0.33 13 0.66 13 1 C9.92382812 1.29296875 9.92382812 1.29296875 6.84765625 1.5859375 C6.23792969 1.72257813 5.62820312 1.85921875 5 2 C4.67 2.66 4.34 3.32 4 4 C2.68 3.67 1.36 3.34 0 3 C0 2.01 0 1.02 0 0 Z " fill="#E3EDE6" transform="translate(75,150)"/>
<path d="M0 0 C0 0.66 0 1.32 0 2 C-5.28 1.67 -10.56 1.34 -16 1 C-16 0.67 -16 0.34 -16 0 C-14.27185839 -0.19672365 -12.54240803 -0.38196799 -10.8125 -0.5625 C-9.84957031 -0.66691406 -8.88664063 -0.77132812 -7.89453125 -0.87890625 C-5.05766623 -0.99758751 -2.74576329 -0.67765639 0 0 Z " fill="#6CBBDE" transform="translate(144,106)"/>
<path d="M0 0 C1.32 0 2.64 0 4 0 C4.33 1.32 4.66 2.64 5 4 C2.525 5.485 2.525 5.485 0 7 C0 4.69 0 2.38 0 0 Z " fill="#2ADE69" transform="translate(10,27)"/>
<path d="M0 0 C2.97 0.33 5.94 0.66 9 1 C9 1.33 9 1.66 9 2 C7.02 2.33 5.04 2.66 3 3 C3 3.66 3 4.32 3 5 C1.35 4.67 -0.3 4.34 -2 4 C-1.34 2.68 -0.68 1.36 0 0 Z " fill="#161616" transform="translate(116,185)"/>
<path d="M0 0 C0.99 0.33 1.98 0.66 3 1 C3.33 1.99 3.66 2.98 4 4 C4.515625 4.45375 5.03125 4.9075 5.5625 5.375 C7 7 7 7 7.1875 9.6875 C7.125625 10.450625 7.06375 11.21375 7 12 C3.95950199 8.35140239 2.03481238 4.2555467 0 0 Z " fill="#CDFBDC" transform="translate(58,50)"/>
<path d="M0 0 C1.36511719 0.29197266 1.36511719 0.29197266 2.7578125 0.58984375 C3.45648438 0.74582031 4.15515625 0.90179688 4.875 1.0625 C4.875 1.3925 4.875 1.7225 4.875 2.0625 C-2.50961538 3.41634615 -2.50961538 3.41634615 -5.625 1.625 C-6.12 1.109375 -6.615 0.59375 -7.125 0.0625 C-4.4030754 -1.2984623 -2.9418043 -0.64116248 0 0 Z " fill="#B1E6ED" transform="translate(99.125,102.9375)"/>
<path d="M0 0 C0.99 0.33 1.98 0.66 3 1 C2.02433888 2.16959987 1.044375 3.33561177 0.0625 4.5 C-0.48277344 5.1496875 -1.02804688 5.799375 -1.58984375 6.46875 C-2.05519531 6.9740625 -2.52054688 7.479375 -3 8 C-3.33 8 -3.66 8 -4 8 C-4.25 5.6875 -4.25 5.6875 -4 3 C-2.1875 1.125 -2.1875 1.125 0 0 Z " fill="#D6F0FB" transform="translate(208,14)"/>
<path d="M0 0 C0.33 0 0.66 0 1 0 C1.66 2.64 2.32 5.28 3 8 C0.525 9.485 0.525 9.485 -2 11 C-2 8 -2 8 -1 7 C-0.63239269 4.67182036 -0.29758419 2.3381615 0 0 Z " fill="#DCDCDC" transform="translate(133,180)"/>
<path d="M0 0 C2.375 -0.125 2.375 -0.125 5 0 C5.66 0.66 6.32 1.32 7 2 C6.67 2.99 6.34 3.98 6 5 C5.34 4.67 4.68 4.34 4 4 C3.34 4.66 2.68 5.32 2 6 C1.67 5.01 1.34 4.02 1 3 C1.66 3 2.32 3 3 3 C3 2.34 3 1.68 3 1 C2.01 0.67 1.02 0.34 0 0 Z " fill="#E9E9E9" transform="translate(147,168)"/>
<path d="M0 0 C1.98 0.99 1.98 0.99 4 2 C3.67 3.32 3.34 4.64 3 6 C2.01 5.67 1.02 5.34 0 5 C0 3.35 0 1.7 0 0 Z " fill="#31DC6B" transform="translate(65,72)"/>
<path d="M0 0 C1.32 1.32 2.64 2.64 4 4 C3.67 4.99 3.34 5.98 3 7 C2.01 7 1.02 7 0 7 C0 4.69 0 2.38 0 0 Z " fill="#34D968" transform="translate(48,41)"/>
<path d="M0 0 C1.15224028 0.92961422 2.29659176 1.8690125 3.4375 2.8125 C4.07558594 3.33457031 4.71367188 3.85664062 5.37109375 4.39453125 C7 6 7 6 8 9 C7.01 8.67 6.02 8.34 5 8 C5 7.34 5 6.68 5 6 C4.01 5.67 3.02 5.34 2 5 C0.8125 2.4375 0.8125 2.4375 0 0 Z " fill="#5DCA83" transform="translate(48,39)"/>
<path d="M0 0 C0.99 0.33 1.98 0.66 3 1 C0.525 4.465 0.525 4.465 -2 8 C-2.33 6.68 -2.66 5.36 -3 4 C-1.5625 1.75 -1.5625 1.75 0 0 Z " fill="#D8F4FD" transform="translate(195,32)"/>
<path d="M0 0 C2.31 0.66 4.62 1.32 7 2 C7.33 3.32 7.66 4.64 8 6 C1.125 2.25 1.125 2.25 0 0 Z " fill="#CDFBDE" transform="translate(40,32)"/>
<path d="M0 0 C2.31 0 4.62 0 7 0 C7 1.65 7 3.3 7 5 C6.01 5.495 6.01 5.495 5 6 C4.67 5.01 4.34 4.02 4 3 C4.33 2.34 4.66 1.68 5 1 C3.35 1 1.7 1 0 1 C0 0.67 0 0.34 0 0 Z " fill="#E0E0E0" transform="translate(172,179)"/>
<path d="M0 0 C2.64 0.33 5.28 0.66 8 1 C8 1.66 8 2.32 8 3 C5.69 3 3.38 3 1 3 C0.67 2.01 0.34 1.02 0 0 Z " fill="#449EC4" transform="translate(144,109)"/>
<path d="M0 0 C0.66 0 1.32 0 2 0 C2.33 1.32 2.66 2.64 3 4 C2.34 4 1.68 4 1 4 C1.33 4.99 1.66 5.98 2 7 C1.34 7 0.68 7 0 7 C-0.38133299 5.0085944 -0.71325582 3.00720923 -1 1 C-0.67 0.67 -0.34 0.34 0 0 Z " fill="#2BDC6A" transform="translate(57,56)"/>
</svg>
