<?xml version="1.0" encoding="UTF-8"?>
<svg version="1.1" xmlns="http://www.w3.org/2000/svg" width="225" height="225">
<path d="M0 0 C74.25 0 148.5 0 225 0 C225 74.25 225 148.5 225 225 C150.75 225 76.5 225 0 225 C0 150.75 0 76.5 0 0 Z " fill="#FEFEFE" transform="translate(0,0)"/>
<path d="M0 0 C13.53 0 27.06 0 41 0 C41 1.98 41 3.96 41 6 C30.11 6 19.22 6 8 6 C8 8.31 8 10.62 8 13 C18.89 13 29.78 13 41 13 C41 15.31 41 17.62 41 20 C30.11 20 19.22 20 8 20 C8 22.31 8 24.62 8 27 C18.89 27 29.78 27 41 27 C41 28.98 41 30.96 41 33 C27.47 33 13.94 33 0 33 C0 22.11 0 11.22 0 0 Z " fill="#125B7E" transform="translate(35,96)"/>
<path d="M0 0 C3.341037 -0.71486152 4.81784637 -1.0182355 8 0 C11.44887214 3.54086285 13.92946056 7.67952932 16.5 11.875 C17.23189656 13.01591664 17.96624936 14.15526156 18.703125 15.29296875 C24 23.60667293 24 23.60667293 24 26 C24.66 26 25.32 26 26 26 C26.2686084 25.27981689 26.5372168 24.55963379 26.81396484 23.81762695 C28.86510185 18.94480436 31.77960192 14.62858779 34.625 10.1875 C35.21667969 9.20845703 35.80835938 8.22941406 36.41796875 7.22070312 C40.8717804 0.31873799 40.8717804 0.31873799 44.24511719 -0.63427734 C46.4609375 -0.63671875 46.4609375 -0.63671875 50 0 C48.06787287 5.69586609 44.60954494 10.42112777 41.30688477 15.39038086 C39.10069734 18.72386445 36.93174825 22.01819595 35.0703125 25.55859375 C31.44482971 32.22844128 31.44482971 32.22844128 27.703125 34.2265625 C24.38876329 34.83385238 22.99125012 34.5965293 20 33 C16.50805558 28.7206031 13.93558146 24.10668477 11.29394531 19.27197266 C9.19358587 15.58405852 6.78283635 12.11679269 4.375 8.625 C0 2.28044577 0 2.28044577 0 0 Z " fill="#08567A" transform="translate(98,96)"/>
<path d="M0 0 C2.06005859 0.5300293 2.06005859 0.5300293 4.32958984 2.5065918 C4.83876953 3.38057617 5.34794922 4.25456055 5.87255859 5.1550293 C6.42685547 6.06510742 6.98115234 6.97518555 7.55224609 7.9128418 C8.04982422 8.77651367 8.54740234 9.64018555 9.06005859 10.5300293 C9.86287696 11.70337922 10.67338703 12.87157835 11.49755859 14.0300293 C13.06005859 16.5300293 13.06005859 16.5300293 13.06005859 18.5300293 C10.16946649 19.97532535 8.25701493 19.94667524 5.06005859 19.5300293 C2.94287109 17.1237793 2.94287109 17.1237793 1.18505859 14.0300293 C0.58951172 13.0090918 -0.00603516 11.9881543 -0.61962891 10.9362793 C-1.05533203 10.1422168 -1.49103516 9.3481543 -1.93994141 8.5300293 C-4.66053285 11.81126323 -6.92117473 15.14105117 -9.12744141 18.7800293 C-12.18782247 23.26415286 -12.18782247 23.26415286 -15.39306641 24.3972168 C-17.62625821 24.62896312 -19.70359751 24.70244583 -21.93994141 24.5300293 C-20.36631277 21.47387683 -18.66613181 18.50248272 -16.93994141 15.5300293 C-16.58577148 14.90354492 -16.23160156 14.27706055 -15.86669922 13.6315918 C-14.67578882 11.55421425 -13.43814952 9.51090832 -12.18994141 7.4675293 C-11.61783936 6.44840454 -11.61783936 6.44840454 -11.03417969 5.40869141 C-8.06523392 0.68788696 -5.60120112 -0.45910531 0 0 Z " fill="#0A577B" transform="translate(165.93994140625,95.469970703125)"/>
<path d="M0 0 C2.64 0 5.28 0 8 0 C8 10.89 8 21.78 8 33 C5.36 33 2.72 33 0 33 C0 22.11 0 11.22 0 0 Z " fill="#135C7E" transform="translate(84,96)"/>
<path d="M0 0 C2.97 0 5.94 0 9 0 C10.65 2.97 12.3 5.94 14 9 C8.89119171 9.79274611 8.89119171 9.79274611 6 9 C3.46833125 6.28295801 1.71795977 3.27974139 0 0 Z " fill="#085479" transform="translate(175,120)"/>
<path d="M0 0 C2.19921875 0.03125 2.19921875 0.03125 5.88671875 0.53125 C4.76220148 3.5031885 3.66378084 5.86565687 1.88671875 8.53125 C-0.27734375 8.82421875 -0.27734375 8.82421875 -2.73828125 8.71875 C-3.55554688 8.69167969 -4.3728125 8.66460937 -5.21484375 8.63671875 C-5.84132812 8.60191406 -6.4678125 8.56710938 -7.11328125 8.53125 C-3.56888663 0.89716928 -3.56888663 0.89716928 0 0 Z " fill="#10597D" transform="translate(145.11328125,120.46875)"/>
</svg>
