<svg xmlns="http://www.w3.org/2000/svg" width="160" height="148"><path fill="#FDFDFD" d="M0 0h160v148H0z"/><path fill="#E7EAEC" d="m8.24 48.628 2.579-.02 2.775.029 2.858-.002q2.99.004 5.981.029c3.055.023 6.11.02 9.165.014q2.904.008 5.808.021l2.775-.003 2.579.03 2.267.013C47 49 47 49 50 51c.388 1.929.388 1.929.404 4.31l.038 2.7-.008 2.924.015 2.996q.01 3.141-.003 6.282c-.008 3.21.02 6.417.052 9.626q.003 3.048-.002 6.096l.034 2.916-.028 2.71v2.384C50 96 50 96 48.234 97.752c-2.418 1.35-3.754 1.632-6.497 1.652l-2.518.038-2.693-.008-2.786.015q-2.911.01-5.822-.003c-2.975-.008-5.947.02-8.921.052q-2.829.003-5.658-.002l-2.7.034c-5.972-.068-5.972-.068-8.699-1.955C.458 93.518.573 89.595.601 85.309l-.008-2.854q-.003-2.982.016-5.964c.016-3.046 0-6.091-.02-9.137q.004-2.898.013-5.795l-.019-2.766.029-2.569.007-2.258c.844-4.354 3.51-5.342 7.621-5.338"/><path fill="#7D8A94" d="m8.24 48.628 2.579-.02 2.775.029 2.858-.002q2.99.004 5.981.029c3.055.023 6.11.02 9.165.014q2.904.008 5.808.021l2.775-.003 2.579.03 2.267.013C47 49 47 49 50 51c.388 1.929.388 1.929.404 4.31l.038 2.7-.008 2.924.015 2.996q.01 3.141-.003 6.282c-.008 3.21.02 6.417.052 9.626q.003 3.048-.002 6.096l.034 2.916-.028 2.71v2.384C50 96 50 96 48.234 97.752c-2.418 1.35-3.754 1.632-6.497 1.652l-2.518.038-2.693-.008-2.786.015q-2.911.01-5.822-.003c-2.975-.008-5.947.02-8.921.052q-2.829.003-5.658-.002l-2.7.034c-5.972-.068-5.972-.068-8.699-1.955C.458 93.518.573 89.595.601 85.309l-.008-2.854q-.003-2.982.016-5.964c.016-3.046 0-6.091-.02-9.137q.004-2.898.013-5.795l-.019-2.766.029-2.569.007-2.258c.844-4.354 3.51-5.342 7.621-5.338m1.643 4.04C4.613 59.195 4.519 68.95 5 77l3 1c.11-.808.22-1.616.332-2.45l.48-3.238.458-3.199c1.158-4.937 2.816-7.45 6.917-10.426L19 57l-1-2c-3.375.547-5.082 1.055-8 3l3-4c4.245.104 6.556 1.145 9.562 4C27.07 62.847 30.616 68.478 32 75l4-1c-.598-4.143-2.007-7.182-4.063-10.813l-1.66-2.957L29 58h-2v-2c8.105 3.02 11.999 7.442 16 15-10.608 7.686-23.245 8.967-36 8l-4-1v18c2.27 1.135 3.53 1.132 6.05 1.145l2.529.02 2.733.003 2.803.01q2.934.007 5.87.007c3.003.002 6.005.02 9.007.04q2.848.005 5.695.005l2.734.022 2.528-.01 2.23.005C47.25 97.153 47.25 97.153 49 95c.175-2.581.232-5.053.195-7.633l-.008-2.278c-.011-2.405-.037-4.81-.062-7.214q-.016-2.443-.027-4.887A2524 2524 0 0 0 49 61h-2l-1 7-1.137-2.047C40.118 57.643 40.118 57.643 32 53c-2.832-.303-5.664-.508-8.504-.719C21 52 21 52 19 51c-4.918-.54-4.918-.54-9.117 1.668"/><path fill="#7E90A8" d="m8.24 48.628 2.579-.02 2.775.029 2.858-.002q2.99.004 5.981.029c3.055.023 6.11.02 9.165.014q2.904.008 5.808.021l2.775-.003 2.579.03 2.267.013C47 49 47 49 50 51c.388 1.929.388 1.929.404 4.31l.038 2.7-.008 2.924.015 2.996q.01 3.141-.003 6.282c-.008 3.21.02 6.417.052 9.626q.003 3.048-.002 6.096l.034 2.916-.028 2.71v2.384C50 96 50 96 48.234 97.752c-2.418 1.35-3.754 1.632-6.497 1.652l-2.518.038-2.693-.008-2.786.015q-2.911.01-5.822-.003c-2.975-.008-5.947.02-8.921.052q-2.829.003-5.658-.002l-2.7.034c-5.972-.068-5.972-.068-8.699-1.955C.458 93.518.573 89.595.601 85.309l-.008-2.854q-.003-2.982.016-5.964c.016-3.046 0-6.091-.02-9.137q.004-2.898.013-5.795l-.019-2.766.029-2.569.007-2.258c.844-4.354 3.51-5.342 7.621-5.338M10 52H5c-1.655 1.655-1.226 3.653-1.316 5.934l-.128 3.133-.119 3.37-.128 3.405C2.977 77.232 2.892 86.606 3 96c2.27 1.135 3.53 1.132 6.05 1.145l2.529.02 2.733.003 2.803.01q2.934.007 5.87.007c3.003.002 6.005.02 9.007.04q2.848.005 5.695.005l2.734.022 2.528-.01 2.23.005C47.25 97.153 47.25 97.153 49 95c.175-2.581.232-5.053.195-7.633l-.008-2.278c-.011-2.405-.037-4.81-.062-7.214q-.016-2.443-.027-4.887A2524 2524 0 0 0 49 61h-2l-1 7-1.137-2.047C40.118 57.643 40.118 57.643 32 53c-2.832-.303-5.664-.508-8.504-.719C21 52 21 52 19 51c-4.653-.305-4.653-.305-9 1"/><path fill="#EDEEEE" d="m19 51 2 1c1.727.129 3.457.229 5.188.313C31.31 52.774 35.146 53.463 39 57c3.241 3.998 6 7.888 7 13h-4l-.883-1.828C38.465 63.002 36.343 59.729 31 57c-2.226-.77-2.226-.77-4-1v2h2a700 700 0 0 1 2.938 5.188l1.652 2.917C34.906 68.807 35.573 71.044 36 74l-4 1-.559-1.836C28.92 65.877 25.071 59.864 19 55c-3.169-.836-3.169-.836-6-1l-2 4 1.188-1.562L14 55c2.688.313 2.688.313 5 1-2.015 2.015-4.019 4.017-6.125 5.938C8.658 66.576 8.496 72.005 8 78l-3-1c-.48-8.05-.387-17.805 4.883-24.332C12.927 50.27 15.236 50.652 19 51"/><path fill="#717D85" d="M4 81c3.828 1.703 3.828 1.703 5.375 4.375C11.929 89.501 15.46 91.487 20 93c2.218.232 2.218.232 4.563.25l2.378.078L29 93l2-3-2.414.14c-9.738.332-9.738.332-13.273-1.953C13 86 13 86 12 83c1.502-.09 1.502-.09 3.035-.184l4.028-.254c1.31-.08 2.621-.162 3.972-.246C26.737 82.021 30.334 81.567 34 81a260 260 0 0 1-.312 4.75l-.176 2.672C32.9 91.505 32.327 92.87 30 95c-5.373 1.286-10.875 1.152-16.375 1.125l-2.48.012C5.127 96.127 5.127 96.127 4 95a177 177 0 0 1-.062-7.062l.027-3.91z"/><path fill="#535557" d="M85 60c5 1 5 1 6.562 2.734l1.297 2.23 1.442 2.425 1.449 2.549 1.496 2.537c3.305 5.627 3.305 5.627 4.754 8.525l1-21h3v29h-4c-1.54-1.804-1.54-1.804-2.98-4.305l-1.588-2.707-1.62-2.863-1.654-2.84c-3.715-6.4-3.715-6.4-5.158-9.285l-1 22h-3z"/><path fill="#355E88" d="m47 50 3 1q.074 9.558.11 19.116.015 3.254.04 6.507c.025 3.113.036 6.225.045 9.338l.032 2.951v2.73l.014 2.41C50 96 50 96 48 98c-1.873.24-1.873.24-4.174.227h-2.609l-2.819-.032-2.883-.008a1962 1962 0 0 1-9.14-.062q-3.094-.016-6.187-.027Q12.593 98.063 5 98v-1l3.84-.076q7.024-.142 14.05-.296 3.045-.065 6.09-.125 4.368-.088 8.735-.187l2.768-.05c4.085.31 4.085.31 7.517-1.266.16-2.519.26-5.013.316-7.535l.063-2.283q.097-3.623.184-7.245l.13-4.9Q48.854 67.018 49 61h-2v7l-2 1-.918-2.047c-2.973-6.33-5.313-10.278-11.894-13.203L30 53v-1l3.465-.184 4.472-.254 2.288-.119c3.694.117 3.694.117 6.775-1.443"/><path fill="#5C5D5F" d="m110 60 5 1 6 21 8-22h4c-1.481 6.253-3.278 12.343-5.312 18.438l-.858 2.755-.88 2.616-.772 2.368C124 88 124 88 121.378 88.762L119 89c-1.508-4.268-3.005-8.54-4.5-12.812l-1.3-3.682-1.231-3.526-1.143-3.253C110 63 110 63 110 60"/><path fill="#516168" d="M7.563 51.938 10 52l-.875 2.438C6.705 62.102 5.697 68.948 6 77l2 1-.14-1.687C7.574 70.303 8.458 65.936 12 61c1.904-1.914 3.805-3.404 6-5-3.821.53-6.062 1.497-9 4 1.074-2.915 1.778-4.778 4-7 3.45-.164 5.428.55 8.137 2.68C24.947 59.305 27.352 61.626 28 67l-1.875-2.375C24.101 62.032 24.101 62.032 22 60c-2.85.098-4.317 1.214-6.687 2.813C11.883 67.54 12.1 72.288 12 78l5 1v1c-1.604.054-3.208.093-4.812.125l-2.708.07C7 80 7 80 4 78c-.356-2.506-.356-2.506-.328-5.629l.015-3.385.063-3.549.016-3.56c.09-9.85.09-9.85 3.797-9.94"/><path fill="#5A5B5D" d="M64 60h15v3H68v9h11v3H67v11h13v3H64z"/><path fill="#7A868F" d="M47 71h1c.058 3.792.094 7.583.125 11.375.017 1.08.034 2.16.05 3.273l.02 3.125.032 2.889C48 94 48 94 46 96c-3.258.195-3.258.195-7.125.125l-3.883-.055L32 96c1.8-3.22 3.085-5.069 6-7.437 5.293-4.521 6.1-8.883 7-15.563z"/><path fill="#5F6E75" d="M4 81c3.828 1.703 3.828 1.703 5.375 4.375C11.545 88.879 13.304 90.119 17 92c3.975.899 7.957 1.503 12 2v1c-5.146 1.048-10.088 1.15-15.312 1.125l-2.495.012C5.127 96.127 5.127 96.127 4 95a177 177 0 0 1-.062-7.062l.027-3.91z"/><path fill="#E8E9E9" d="m3 78 16 2v1l-8 1c2.424 3.29 4.174 5.512 8 7 2.074.285 4.16.489 6.25.625l3.266.227L31 90l-2 4c-5.791.347-9.992.3-15-3-2.562-2.375-2.562-2.375-5-5l-5-5 1 15H3z"/><path fill="#6C7A82" d="M27 56c4.942.45 8.432 2.688 12 6 3 4.935 3 4.935 3 8l2 1c-2.812 2.063-2.812 2.063-6 4l-3-1-.34-2.207c-.687-2.905-1.7-4.926-3.222-7.48C29 60.204 29 60.204 29 58h-2z"/><path fill="#B2BCC4" d="m6.835 49.76 2.248.013h2.547l2.753.032 2.816.008c2.976.011 5.95.037 8.926.062q3.021.016 6.043.027Q39.584 49.937 47 50l-1 2c-4.125.196-8.25.38-12.375.562l-3.563.17-3.398.147-3.142.143C21 53 21 53 19 52c-4.653-.305-4.653-.305-9 1H5L4 78H3c-.058-4.292-.094-8.583-.125-12.875l-.05-3.707-.02-3.535-.032-3.27c.266-3.065.848-4.432 4.062-4.854"/><path fill="#535456" d="M103 60h3v29h-4l-1-4 3-1-1-3a87 87 0 0 1-.098-4.887l.01-2.842.025-2.959.014-2.994q.018-3.66.049-7.318"/><path fill="#4F5153" d="M137 60h3v29h-3z"/><path fill="#5E5F61" d="M91 64c3.815 4.53 6.56 9.383 9.414 14.55L102 81h2v3l-4 2q-2.758-4.681-5.5-9.375l-1.59-2.695-1.504-2.578-1.396-2.38C89 67 89 67 89 65z"/><path fill="#727F87" d="M7.563 51.938 10 52l-.875 2.438C6.705 62.102 5.697 68.948 6 77l2 1v-9h1v11l-5-2q-.042-6.22-.062-12.437l-.026-3.588-.01-3.409-.016-3.158c.158-3.343.316-3.389 3.677-3.47"/><path fill="#727F88" d="M21.156 59.203C23 60 23 60 24.25 62.063L25 64l-3-1v-2c-4.047 2.078-6.14 3.816-8 8-.513 2.68-.769 5.274-1 8h10l1 2c-4.828.947-7.538 1.02-12-1-1.057-10.218-1.057-10.218 1.418-14.39 4.492-4.713 4.492-4.713 7.738-4.407"/><path fill="#3F5258" d="M45 73h2c.44 6.15-.171 10.966-4 16-1.321.69-2.654 1.36-4 2-.805 2.05-.805 2.05-1 4h-4c.125-1.687.125-1.687 1-4 1.49-1.232 2.984-2.46 4.504-3.656C43.76 83.52 44.456 78.437 45 73"/><path fill="#47585E" d="m32 81 1 3q-2.625.506-5.25 1l-2.953.563C22 86 22 86 18 86v2c-1.875-.25-1.875-.25-4-1-1.133-2.047-1.133-2.047-2-4 1.537-.09 1.537-.09 3.105-.184l4.082-.254 2.042-.119C24.897 82.211 28.417 81.828 32 81"/><path fill="#818C96" d="m5 86 2.313 2.375C9.909 91.073 9.909 91.073 13 93v2l3 1q-2.718.039-5.437.063l-3.06.035C5 96 5 96 4 95c-.133-1.812-.133-1.812-.125-4l-.008-2.187C4 87 4 87 5 86"/><path fill="#526268" d="M15.625 52.875C20.586 54.529 23.9 57.827 27 62c.73 2.766.73 2.766 1 5l-1.875-2.375C24.101 62.032 24.101 62.032 22 60c-3.013.389-4.397 1.265-7 3 1.875-5.875 1.875-5.875 3-7-3.821.53-6.062 1.497-9 4 2.554-6.931 2.554-6.931 6.625-7.125"/><path fill="#43545B" d="M27 56c3.688.498 5.605 1.1 8 4h-2l1 5h2c1.316 3.62 2 6.096 2 10l-3-1-.34-2.207c-.687-2.905-1.7-4.926-3.222-7.48C29 60.204 29 60.204 29 58h-2z"/><path fill="#656668" d="m110 60 5 1 3 12-4 1a958 958 0 0 1-2-5.312l-1.125-2.989C110 63 110 63 110 60"/><path fill="#C8CED3" d="m46 51 3 1v9h-2v7l-2 1-5-11c5.75.875 5.75.875 8 2-.485-4.646-.485-4.646-2-9"/><path fill="#717D84" d="M47 71h1v23l-2 1-1-6h-3l2-3.437c2.073-4.074 2.33-7.264 2.043-11.778L46 72z"/><path fill="#6C7981" d="M25 64c1.813.125 1.813.125 4 1 2.29 3.679 3 5.616 3 10h5c-3.825 2.39-7.597 2.56-12 3l4-1-1-8h-2z"/><path fill="#5E6D75" d="M30 52h8l.563 1.938c1.38 2.483 1.38 2.483 5.062 2.812L47 57l1 3c-6.963-1.2-12.86-2.86-18-8M28 85l-1.937.875c-2.215.953-2.215.953-3.063 3.125h6v1c-1.625.054-3.25.093-4.875.125l-2.742.07C19 90 19 90 17 88c1-2 1-2 2.688-2.625 2.796-.454 5.483-.44 8.312-.375"/><path fill="#646566" d="m98 75 1.375 1.875c1.596 2.184 1.596 2.184 3.625 4.125l1 3-4 2c-2.269-3.086-3.055-4.422-2.687-8.312z"/><path fill="#3D5056" d="m16 58 2 1q-1.426 2.257-2.875 4.5l-1.617 2.531L12 68h-2c.414-4.833 2.464-6.827 6-10"/><path fill="#5C6B72" d="M33 60c2.313.188 2.313.188 5 1 1.875 2.313 1.875 2.313 3 5-.312 2.313-.312 2.313-1 4l-1.375-2.937C37.342 63.929 37.342 63.929 35 63l-1 2z"/><path fill="#67757E" d="M21.188 58.938C23.47 60.276 24.058 61.568 25 64l-3-1v-2c-3.605 2.06-6.803 4.351-10 7 1.645-4.038 4.462-8.927 9.188-9.062"/><path fill="#FCFCFB" d="M7 67h1v11l-3-1q.212-2.22.438-4.437c.08-.824.162-1.648.246-2.497C6 68 6 68 7 67"/><path fill="#3C4F55" d="m42 60 5 2v6l-2 1z"/><path fill="#F6F6F6" d="M15.5 50.75C19 51 19 51 21 53l-2 2c-3.188-.34-5.958-.986-9-2 2-2 2-2 5.5-2.25"/><path fill="#3B4B51" d="m40 77 2 1-4 7h-1c-.187-2.875-.187-2.875 0-6z"/><path fill="#6B6C6E" d="m125 71 3 4-2 4h-3z"/><path fill="#C8CBCD" d="m9 54 3 1-3 7H7c.875-6.875.875-6.875 2-8"/><path fill="#7C8A94" d="M39 53h7v3l-7-1z"/></svg>