<?xml version="1.0" standalone="no"?>
<!DOCTYPE svg PUBLIC "-//W3C//DTD SVG 20010904//EN"
 "http://www.w3.org/TR/2001/REC-SVG-20010904/DTD/svg10.dtd">
<svg version="1.0" xmlns="http://www.w3.org/2000/svg"
 width="2529.000000pt" height="2264.000000pt" viewBox="0 0 2529.000000 2264.000000"
 preserveAspectRatio="xMidYMid meet">

<g transform="translate(0.000000,2264.000000) scale(0.100000,-0.100000)"
fill="#000000" stroke="none">
<path d="M16590 22594 c-249 -53 -476 -198 -750 -480 -270 -278 -455 -537
-1110 -1554 -161 -250 -384 -592 -495 -760 -1279 -1929 -2341 -3049 -3331
-3512 -135 -64 -283 -112 -436 -142 -583 -115 -1071 -407 -1682 -1006 -173
-169 -465 -480 -538 -572 -26 -33 -27 -38 -11 -40 10 0 23 -2 28 -3 6 -1 37
-5 70 -9 32 -4 66 -9 75 -11 8 -1 35 -6 60 -10 84 -13 225 -65 280 -103 230
-157 140 -484 -277 -1007 -93 -117 -382 -416 -482 -500 -33 -27 -60 -53 -60
-57 -1 -10 132 -144 199 -201 30 -25 65 -55 77 -65 12 -10 34 -27 48 -38 15
-10 59 -44 99 -74 39 -31 105 -80 146 -110 41 -30 80 -58 85 -63 60 -46 294
-215 475 -342 124 -87 269 -191 323 -229 54 -39 108 -78 120 -86 12 -8 83 -58
157 -110 74 -53 214 -152 310 -220 143 -101 410 -292 494 -352 17 -13 13 -21
-69 -143 -756 -1117 -1389 -1902 -2124 -2635 -631 -630 -1216 -1096 -1861
-1484 -105 -63 -224 -119 -530 -250 -217 -93 -399 -173 -404 -177 -5 -4 2 -13
16 -19 21 -10 41 -6 134 30 325 125 412 156 549 195 180 52 351 82 514 91
l120 7 248 186 c667 500 1102 877 1838 1591 319 310 418 399 480 433 l45 26 0
-38 c0 -81 -183 -405 -458 -811 -293 -433 -572 -797 -1045 -1364 -72 -87 -141
-171 -152 -185 -10 -14 -41 -50 -68 -80 -26 -30 -45 -57 -40 -61 4 -4 53 -44
108 -88 379 -303 755 -793 1166 -1522 167 -298 479 -918 644 -1282 l49 -107
50 30 c70 41 273 139 381 184 128 53 302 115 308 109 2 -3 83 15 178 39 283
72 377 90 574 107 172 15 427 19 595 10 337 -19 462 -31 695 -66 242 -36 779
-140 930 -180 132 -34 514 -158 615 -199 19 -8 80 -30 135 -50 114 -42 413
-159 619 -243 l139 -57 60 -78 c33 -42 63 -77 67 -77 16 0 440 490 1117 1290
480 568 780 914 1048 1210 215 237 756 777 936 933 720 627 1316 940 1939
1018 127 16 423 16 540 0 547 -76 1050 -310 1672 -778 324 -243 608 -491 1203
-1048 804 -752 1106 -1012 1499 -1290 89 -62 319 -205 324 -200 2 1 -54 124
-124 272 -314 665 -547 1214 -1136 2678 -323 803 -415 1030 -713 1760 -534
1308 -889 2287 -1915 5280 -554 1615 -780 2262 -1056 3023 -967 2661 -1715
4213 -2426 5037 -311 360 -651 588 -948 635 -90 14 -262 11 -340 -6z m221
-370 c34 -11 54 -25 61 -40 6 -13 15 -24 19 -24 9 0 18 -36 25 -104 7 -63 -18
-193 -45 -241 -10 -17 -21 -42 -24 -55 -10 -39 -128 -173 -176 -199 l-43 -24
-42 20 c-35 17 -43 28 -55 69 -43 146 12 401 113 528 30 37 92 86 109 86 5 0
31 -7 58 -16z m513 -1019 c58 -57 132 -162 190 -267 90 -166 228 -565 335
-968 50 -187 176 -805 205 -1005 9 -60 29 -200 46 -310 111 -757 197 -1664
245 -2575 37 -714 29 -1821 -16 -2140 -12 -92 -45 -266 -64 -340 -8 -30 -26
-118 -40 -195 -48 -253 -116 -453 -194 -565 -39 -57 -121 -120 -156 -120 -31
0 -112 95 -190 220 -15 25 -40 55 -56 68 -75 60 -251 363 -343 589 -121 295
-129 325 -301 1028 -77 311 -153 667 -184 850 -5 33 -19 114 -31 180 -40 234
-82 547 -115 865 -8 80 -17 165 -20 190 -9 85 -35 535 -45 800 -12 280 -14
1139 -5 1375 9 199 33 555 50 725 8 80 17 172 20 205 17 175 77 563 111 720
61 277 122 473 181 579 43 79 126 166 157 166 11 0 27 4 34 9 8 4 37 1 70 -8
44 -13 68 -28 116 -76z m-1498 -27 c39 -170 -159 -753 -631 -1858 -475 -1113
-1111 -2459 -1441 -3050 -75 -135 -151 -271 -168 -302 -32 -59 -45 -68 -65
-45 -17 21 181 546 544 1442 63 154 229 570 370 925 141 355 285 716 321 803
35 87 78 195 96 240 48 128 297 732 388 942 153 356 339 717 423 820 76 94
100 115 128 115 23 0 29 -6 35 -32z"/>
</g>
</svg>
