<svg xmlns="http://www.w3.org/2000/svg" width="374" height="135"><path fill="#E5E4E3" d="M0 0h374v135H0z"/><path fill="#E93D04" d="M84.813 6.25C93.83 9.007 102.905 11.474 112 14v110l-9 3q-2.813 1.011-5.624 2.025c-20.706 7.015-39.917 6.907-61.626 6.475L0 135V29c16.946-6.779 16.946-6.779 24.25-9.25 10.652-3.667 21.208-7.586 31.766-11.516l3.142-1.158a129 129 0 0 0 5.168-2.074c7.338-3.109 13.195-1.007 20.487 1.248"/><path fill="#E7E3E2" d="M72 24v95c-18.361-1.148-18.361-1.148-27.266-2.41l-2.929-.4q-4.529-.62-9.055-1.252-4.59-.637-9.184-1.264-2.832-.388-5.662-.785l-2.573-.354-2.25-.314c-2.395-.291-2.395-.291-6.081-.221l2.613.848c8.248 2.708 16.405 5.603 24.54 8.632 5.226 1.94 10.48 3.75 15.78 5.477C56.349 129.139 62.669 131.589 69 134v1H0v-26l10.875-4.5 3.425-1.424 2.692-1.107 2.761-1.143C22 100 22 100 24 100V35c5.652-1.884 11.128-3.644 16.887-5.043l2.138-.525q2.21-.541 4.423-1.076c2.247-.545 4.49-1.102 6.734-1.659l4.33-1.052 2.008-.502C64.59 24.173 67.696 24 72 24"/><path fill="#2D5797" d="m172.25 64.938 2.703.027L177 65v6l2.554-.016q4.677-.025 9.354-.039 2.026-.008 4.054-.02c1.938-.013 3.877-.018 5.815-.023l3.54-.016C205 71 205 71 206 72c.093 1.596.117 3.196.114 4.795v3.094l-.016 3.365-.005 3.426a5579 5579 0 0 1-.03 10.882q-.008 3.679-.014 7.358c-.01 6.027-.03 12.053-.049 18.08h-29v6c-8.705.393-17-1.093-25.562-2.5L136 124V70c13.25-1.937 13.25-1.937 17.411-2.543l3.292-.484 3.364-.492c9.62-1.577 9.62-1.577 12.183-1.543"/><path fill="#D24727" d="M262 64v7h27q.036 10.44.055 20.88.008 3.555.02 7.11c.013 3.398.018 6.796.023 10.194l.015 3.232v2.972l.007 2.632C289 120 289 120 288 121c-1.927.087-3.857.107-5.785.098l-3.545-.01-3.733-.025-3.744-.014q-4.597-.018-9.193-.049v7c-8 .412-15.643-1.127-23.5-2.5L224 123V70l10-2 2.952-.594q3.866-.774 7.736-1.531l2.72-.55c4.964-.968 9.535-1.533 14.592-1.325"/><path fill="#247448" d="M346 65v6l2.28-.016q5.077-.029 10.158-.046l3.587-.026 3.409-.01 3.158-.016C371 71 371 71 372 72a73 73 0 0 1 .13 4.596l.009 2.962-.006 3.223.003 3.285q0 3.444-.006 6.89c-.005 3.529 0 7.058.007 10.587q0 3.337-.004 6.676l.006 3.223-.01 2.962-.002 2.622C372 121 372 121 371 122c-1.854.087-3.71.107-5.566.098l-3.409-.01-3.587-.025-3.6-.014q-4.419-.018-8.838-.049v7c-8.468-.658-16.767-2.083-25.125-3.562L307 123V71l17.98-3.2 3.407-.609 3.475-.618a218 218 0 0 0 5.844-1.144c2.794-.523 5.459-.495 8.294-.429"/><path fill="#E6E4E4" d="M0 0c9.857-.113 19.714-.205 29.572-.26 4.577-.025 9.154-.06 13.731-.117q6.623-.08 13.247-.097 2.529-.015 5.058-.055c2.359-.036 4.716-.04 7.075-.039l2.12-.054c1.951.02 1.951.02 5.197.622 1.957 2.535 1.957 2.535 3 5l-3.5-.875c-4.788-.536-8.45.728-12.824 2.496q-2.144.835-4.289 1.668l-2.206.866c-3.412 1.322-6.852 2.567-10.294 3.81L41.82 14.44l-4.133 1.498-8.649 3.136-2.111.766q-6.117 2.223-12.217 4.492l-2.694 1.002q-2.383.889-4.762 1.787C2.218 29 2.218 29 0 29z"/><path fill="#EEF3F6" d="M178 73h26v48h-26v-6h20v-3h-21v-4h22v-3h-21v-4h20v-3h-20v-3h21v-3h-22v-4h21v-3h-21v-4h22v-3h-21z"/><path fill="#FCF7F3" d="M263 73h24v45h-24v-5h18v-3h-19v-4h19v-3h-19v-4l2.082-.262c5.722-.715 5.722-.715 9.98-4.238L275 92l1-2h-10V80h-3z"/><path fill="#E0EEE7" d="M346 73h24v47h-25v-5h6v-5h-5v-2l8 1v7h11v-6h-10v-2h10v-6h-11l-1 3-1-3h-6v-3h5v-5h-5v-3h5v-5h-5v-3h6v-5h-6z"/><path fill="#E8DFDC" d="M171 20c4.49 2.287 6.768 4.53 9 9 .829 5.482.9 11.141-1.75 16.125-2.725 3.481-4.476 4.62-8.836 5.246-8.464.202-8.464.202-11.976-2.496-3.927-4.632-4.862-8.984-4.692-14.922.658-5.063 3.445-8.739 7.254-11.953 3.729-1.243 7.127-1.528 11-1"/><path fill="#E8DFDD" d="M251.563 28c3.773 1.098 5.282 1.725 7.437 5v7h-15c2.167 5.833 2.167 5.833 5 7 1.54.07 3.083.085 4.625.063l2.477-.028L258 47v3c-3.225 1.612-6.504 1.469-10 1-2.819-1.094-5.404-2.454-8-4l-2 3c-4.132 1.283-7.877 1.464-11.875-.187-4.87-4.154-4.87-4.154-5.445-7.895-.206-4.137-.042-6.338 2.195-9.918 3.342-3.146 5.254-3.115 9.75-3.062l3.04.027L238 29l1 2 3-1 1 2 2.063-2.062C248 28 248 28 251.563 28"/><path fill="#E1420E" d="m212 18 2 1v3l-9 1-2 6h13v21h-4V32h-9v18h-3V32h-10v18h-3V32h-3v-3h3l.313-3.312C188 22 188 22 189.125 20.063c2.906-1.647 5.613-1.248 8.875-1.063v3l-6 1-2 6h10l-.312-2.687C200 23 200 23 202.063 20.125c3.617-2.617 5.563-2.62 9.937-2.125"/><path fill="#E14A1A" d="M312 21v3l-2.117.445c-2.762.68-5.29 1.383-7.883 2.555-1.761 3.018-1.761 3.018-2 6l3-2c3.897-.508 5.506-.33 8.813 1.875 3.138 3.05 3.138 3.05 3.277 6.113-.275 4.193-.57 7.152-3.777 10.075-3.639 2.127-5.196 2.725-9.313 1.937-3.92-2.405-5.906-4.525-7-9-.805-6.576.107-10.634 4-16 4.238-3.928 7.257-5.155 13-5"/><path fill="#F3F8FA" d="M163 85h5c-1.393 7.408-3.119 14.702-5 22h-6l-3-10-3 10h-5l-4-20h5l2 12 3-13h5l3 13z"/><path fill="#F6FBFC" d="M178 73h26v48h-26v-6h20v-3h-20v-3h20l1 6h2c1.663-3.327 1.244-7.064 1.316-10.727l.063-2.614q.097-4.142.184-8.284l.13-5.61c.108-4.588.207-9.176.307-13.765h-25z"/><path fill="#E24512" d="M171 20c4.49 2.287 6.768 4.53 9 9 .829 5.482.9 11.141-1.75 16.125-2.725 3.481-4.476 4.62-8.836 5.246-8.464.202-8.464.202-11.976-2.496-3.927-4.632-4.862-8.984-4.692-14.922.658-5.063 3.445-8.739 7.254-11.953 3.729-1.243 7.127-1.528 11-1m-13 8c-1.686 5.058-1.585 9.368.188 14.313 2.055 3.047 3.396 4.336 6.812 5.687 3.738-.076 5.436-.527 8.313-2.937 3.705-4.53 3.151-9.426 2.687-15.063-1.603-3.74-2.597-4.732-6-7-5.971-.774-8.282.297-12 5"/><path fill="#E23F0B" d="M255 29c2.438 1.625 2.438 1.625 4 4v7h-15c2.167 5.833 2.167 5.833 5 7 1.54.07 3.083.085 4.625.063l2.477-.028L258 47v3c-3.213 1.607-6.515 1.478-10 1-5.662-2.985-5.662-2.985-7-7-.507-3.806-.861-7.448 1.047-10.887 4.23-5.139 6.55-5.548 12.953-4.113"/><path fill="#FCF7F3" d="M236 84h11c3 4 3 4 3.438 6.938-.553 3.868-1.531 5.461-4.438 8.062-3.25.313-3.25.313-6 0v9h-4z"/><path fill="#E3420E" d="M322 21h13l1 4h-12l-1 7 1.828.078c3.752.266 6.485.503 9.735 2.484 2.046 3.47 2.295 6.579 1.437 10.438-2.046 3.102-3.567 4.613-7.195 5.594-4.331.629-6.95.652-10.805-1.594l1-3 2.117.07 2.758.055 2.742.07c2.571.048 2.571.048 4.383-2.195.417-3 .417-3 0-6-2.9-1.934-3.897-2.301-7.187-2.625L320 35c-.196-5.686.104-8.312 2-14"/><path fill="#CC6448" d="M287 71h2q.037 10.44.055 20.88.008 3.555.02 7.11c.013 3.398.018 6.796.023 10.194l.015 3.232v2.972l.007 2.632C289 120 289 120 288 121c-2.073.088-4.148.107-6.223.098l-3.818-.01-4.022-.025q-2.016-.009-4.033-.014A3769 3769 0 0 1 260 121c.875-7.875.875-7.875 2-9a57 57 0 0 1 4.035-.098l2.451.01 2.577.025 2.587.014q3.175.02 6.35.049l1-2v3h-18v5h24z"/><path fill="#E9F3EE" d="M318 85h5l3 6 3-6h5l-.91 1.723c-2.556 5.19-3.728 8.491-2.09 14.277a133 133 0 0 0 3 6v2h-5l-3-7c-1.506 1.964-2.891 3.783-4 6h-5l.91-1.723c2.556-5.189 3.682-8.478 2.09-14.277a88 88 0 0 0-2-4z"/><path fill="#28518A" d="M177 71q5.955-.037 11.908-.055 2.026-.008 4.054-.02c1.938-.013 3.877-.018 5.815-.023l3.54-.016C205 71 205 71 206 72c.093 1.596.117 3.196.114 4.795v3.094l-.016 3.365-.005 3.426a5579 5579 0 0 1-.03 10.882q-.008 3.679-.014 7.358c-.01 6.027-.03 12.053-.049 18.08h-29v-1c9.18-1.166 17.526-1 27-1V73h-27z"/><path fill="#E04716" d="M284 21c2.938 1.063 2.938 1.063 5 3 .565 3.884.575 6.066-1.5 9.438L286 35l2 1c2 2 2 2 2.625 5.875-.198 3.579-.665 4.174-3.125 7.125-3.824 2.698-6.94 2.523-11.5 2l-3-2v-3l1.863.29c.809.11 1.617.22 2.45.335l2.425.352c2.55.238 2.55.238 5.262-1.977.5-3 .5-3 0-6-2.918-1.945-4.625-2.453-8-3v-3l7-2c.043-1.666.04-3.334 0-5l-1-1c-1.525.09-3.047.245-4.562.438l-2.504.308L274 26c.375-1.937.375-1.937 1-4 3.064-1.532 5.617-1.23 9-1"/><path fill="#E1F1EB" d="M353 78h1v6h11v1h-10v6h10v-5h1v15l-5.437-.437-3.06-.247C355 100 355 100 354 99c-.125-2.5-.125-2.5 0-5l1-1-3-1v8h-6v-1h5v-5h-5v-3h5v-5h-5v-3h6z"/><path fill="#FCFEFE" d="M367 101h2v18h-23v-3h6v-6h-6v-2l8 1v7h11v-6h-10v-2h10v-5z"/><path fill="#C5D9CE" d="m351 102 2 2 1-2h11v6h-10v2h10v6h-11v-7l-8-1v-1h5z"/><path fill="#E04C1C" d="m232.125 28.938 2.758.027L237 29v3l-1.898.113-2.477.2-2.46.175c-2.544.342-2.544.342-4.165 3.512-.385 5.335-.385 5.335 2 10 2.195.58 2.195.58 4.625.688l2.477.199L237 47v3c-3.545 1.772-7.268 1.023-11 0-3.276-2.675-4.63-4.121-5.437-8.223-.219-4.09.108-6.25 2.312-9.777 3.207-3.018 4.948-3.118 9.25-3.062"/><path fill="#EADBD6" d="M309 35c2.327 3.491 2.503 4.892 2 9-1.687 2.438-1.687 2.438-4 4-2.83-.069-4.421-.64-6.812-2.125-1.89-2.985-1.556-5.44-1.188-8.875 2.289-4.308 5.809-3.067 10-2"/><path fill="#E13902" d="M198 19v3l-6 1-2 6h10v1l-10 1v19h-3V32h-3v-3h3l.313-3.312C188 22 188 22 189.125 20.063c2.906-1.647 5.613-1.248 8.875-1.063"/><path fill="#E15B30" d="M322 21h13l1 4h-12v5h-2l-1 4 4 1h-5c-.196-5.686.104-8.312 2-14"/><path fill="#E5ECF2" d="M152 86h5c1.425 4.453 2.537 8.27 2 13-1.5 1.875-1.5 1.875-3 3l-.875-2.312C154.037 96.85 154.037 96.85 152 94l-2 3c.875-7.625.875-7.625 2-11"/><path fill="#E24513" d="M305 33c6.335-.478 6.335-.478 9 1.438 1.55 3.973 1.092 7.487 0 11.562-1.687 2.563-1.687 2.563-4 4-3.25.25-3.25.25-6 0l-1-2 2.938-.875c3.169-.767 3.169-.767 4.062-3.125.455-4.176.455-4.176-1.375-7.75L307 35z"/><path fill="#EBDFDB" d="M324 25h11l-.562 2.688c-.418 3.164-.246 5.26.562 8.312l-2.625-1.437C329.146 33.068 326.51 32.417 323 32zM283 24c2 2 2 2 2.25 4.5C285 31 285 31 283 33c-3.125.125-3.125.125-6 0l-1 3c-1.125-7.625-1.125-7.625 0-11 2.513-1.256 4.217-1.209 7-1"/><path fill="#CA4829" d="M268 78c3.232.862 5.483 1.483 7.875 3.875C277 84 277 84 277 88h-9z"/><path fill="#EED2C9" d="M289 26h1l.438 2.75c.461 3.04.461 3.04 1.109 5.102.566 2.685.46 5.038.265 7.773l-.167 2.914C291 47 291 47 288.949 48.336L287 49l2-3c.688-5.732.688-5.732-2-10.5l-2-1.5 1.438-1.187c1.914-2.221 2.175-3.947 2.562-6.813m4 6h2v10h-1z"/><path fill="#FCFEFD" d="M352 92h13v1l-10 1v5l10 1v1l-2.082.113-2.73.2-2.708.175c-2.786.575-3.721 1.333-5.48 3.512v-3h-6v-2h6z"/><path fill="#FEFFFD" d="M178 102h21l-1 3h-20z"/><path fill="#204D84" d="M177 85h21v3h-21z"/><path fill="#307850" d="M354 102h11v5h-11z"/><path fill="#28734B" d="M354 94h11v5h-11z"/><path fill="#F9FDFB" d="M353 78h1v6h11v1l-10 1-1 5h-2v-5h-6v-3h6z"/><path fill="#C35131" d="M264 103h17v3h-19l2-1z"/><path fill="#E53802" d="M202 32h1v18h-3q-.08-3.937-.125-7.875l-.05-2.262c-.018-1.955.072-3.91.175-5.863z"/><path fill="#ECE2DF" d="M250.5 30.75C253 31 253 31 255 33v4h-10c1.462-5.846 1.462-5.846 5.5-6.25"/><path fill="#29754C" d="M355 110h10v5h-10z"/><path fill="#1E6D44" d="M355 86h10v5h-10z"/><path fill="#206D44" d="M355 78h10v5h-10z"/><path fill="#E05F34" d="m212 18 2 1v3l-1.898.113-2.477.2-2.46.175c-2.544.342-2.544.342-4.165 3.512l-1-2-2 1c2.837-6.33 4.903-7.516 12-7"/><path fill="#E9E5E5" d="M307.25 25.25 309 26l-1 2 3 1-1 2c-1.996.598-1.996.598-4.437 1.063-3.388.651-3.388.651-6.563 1.937 1.37-4.108 3.203-9.31 8.25-8.75"/><path fill="#E1633A" d="M248 28c6.4.492 6.4.492 9.438 3.063L259 33c-1 3-1 3-3 5-2.82.195-2.82.195-6.125.125l-3.32-.055L244 38l1-3v2h10c-1.35-4.419-3.261-6.343-7-9"/><path fill="#C3DBCF" d="M351 86h1v5h2v-5h1v6h-3v8h-6v-1h5v-5h-5v-3h5z"/><path fill="#E24C1C" d="m319 46 11 1v3c-2.52 1.26-3.854.919-6.625.563l-2.477-.31L319 50z"/><path fill="#CD5D43" d="M255 64h7v7h2v10h-2v-8h-2l-1-8z"/><path fill="#E9F0F5" d="M142 87h5l1 9-4 1z"/><path fill="#E03901" d="M256 35h3v5h-15v-2h12z"/><path fill="#E13D09" d="M194.625 18.875 198 19v3l-2.875.313c-3.416.372-3.416.372-5.125 3.687h-3c2.56-6.95 2.56-6.95 7.625-7.125"/><path fill="#EEB9A8" d="M198 19c1.563 1.625 1.563 1.625 3 4-.312 3.25-.312 3.25-1 6h-10c.875-5.875.875-5.875 2-7 2-.04 4-.043 6 0zm-6 4-1 5h8v-5z"/><path fill="#C54D31" d="m240 88 5 1v5l-5 1z"/><path fill="#E25123" d="m273 46 11 3v2l-3.812.125-2.145.07C276 51 276 51 273 49z"/><path fill="#DD5A2E" d="M2 110c5.674.617 11.339 1.28 17 2-1.684 1.574-1.684 1.574-4 3-2.473-.293-2.473-.293-5.062-1.187l-2.598-.856C5 112 5 112 2 110"/><path fill="#E05121" d="M258 47v3c-3.215 1.607-6.436 1.057-10 1v-3c7.75-1 7.75-1 10-1"/><path fill="#EDC2B4" d="m178 26 8 2 1-2v3h-3l-1 3-1-2-1 10h-1l-.184-2.3-.254-3.013c-.08-.986-.162-1.972-.246-2.988-.234-2.793-.234-2.793-1.316-5.699"/><path fill="#E13F09" d="m313 43 1 3c-1.625 2-1.625 2-4 4-3.25.25-3.25.25-6 0l-1-2 1.68-.586 2.195-.789 2.18-.773c2.127-.79 2.127-.79 3.945-2.852"/><path fill="#C64A2C" d="m248 85 4 1v10l-5 2 1-1.625c1.672-3.972 1.343-7.346 0-11.375"/><path fill="#DE4E1F" d="m332 35 4 2v8h-1v-7h-2v6h-1c-.879-6.152-.879-6.152-1-8z"/><path fill="#EBD6CD" d="M248 31c2.375-.125 2.375-.125 5 0l2 2c-.375 2.125-.375 2.125-1 4l-4-1v-3z"/><path fill="#DE5224" d="m309 31 1 2-10 3 1-4c2.709-1.354 5.01-1.065 8-1"/><path fill="#DF4614" d="M242 44c3.27.564 4.826 1.5 7 4l-3 2c-2-1.312-2-1.312-4-3z"/><path fill="#E23803" d="m157 27 2 1-2 11h-1l-.437-2.812c-.484-3.195-.484-3.195-1.563-6.188z"/><path fill="#EDD3CC" d="m77 1 2 4-10-1 1-3c3.126-1.042 4.047-1.238 7 0"/><path fill="#F0D2C6" d="m305 25 2 1-1.437 1.313c-1.8 1.71-1.8 1.71-2.563 4.687-2.062 1.188-2.062 1.188-4 2 1.312-3.937 2.92-6.227 6-9"/><path fill="#E13A04" d="M229 29h8v3l-9-1z"/><path fill="#E3430F" d="M206 19h8v3l-8-1z"/><path fill="#D1DEE9" d="M163 85h5l-1 6h-2z"/><path fill="#E9B6A3" d="m176 48-1 3h-13v-1c1.048-.09 1.048-.09 2.117-.184l2.758-.254c.905-.08 1.81-.162 2.742-.246C172.01 49 173.61 48 176 48"/><path fill="#EBCEC5" d="M71 24v4h-3l-1-2c-2.025-.652-2.025-.652-4-1 2.928-.976 4.956-1.082 8-1"/><path fill="#DD4715" d="M307 21c2.625-.187 2.625-.187 5 0v3h-7z"/><path fill="#DE6034" d="m319 46 8 1v1h-5v2l-4-1z"/><path fill="#F0C9BE" d="m198 19 3 4-2 4v-4h-7v-1h6z"/><path fill="#DC4B1A" d="M191 19h7v3h-5v-2z"/></svg>