<?xml version="1.0" encoding="UTF-8"?>
<svg version="1.1" xmlns="http://www.w3.org/2000/svg" width="329" height="329">
<path d="M0 0 C3.35580515 2.95426405 6.60368332 6.01231627 9.8125 9.125 C11.1573902 10.42302214 12.5260572 11.69629227 13.89697266 12.96679688 C25.8346609 24.31426449 34.81435373 37.95442467 42.28369141 52.54492188 C42.60176758 53.16189941 42.91984375 53.77887695 43.24755859 54.41455078 C53.29502497 74.16826864 59.64458349 96.31508137 60.28369141 118.54492188 C60.30415527 119.22167969 60.32461914 119.8984375 60.34570312 120.59570312 C61.02141408 146.46258878 56.77663908 171.75738308 46.28369141 195.54492188 C45.62369141 195.87492188 44.96369141 196.20492187 44.28369141 196.54492188 C42.03710937 195.74047852 42.03710937 195.74047852 39.27587891 194.45507812 C38.28974609 194.00068359 37.30361328 193.54628906 36.28759766 193.078125 C35.25505859 192.59279297 34.22251953 192.10746094 33.15869141 191.60742188 C32.11841797 191.12595703 31.07814453 190.64449219 30.00634766 190.1484375 C27.42878559 188.9542459 24.8548526 187.75281816 22.28369141 186.54492188 C22.9446054 181.44298823 24.45021414 176.92471668 26.15869141 172.10742188 C38.34864697 136.68206665 35.0350963 98.67150473 18.7421875 65.14453125 C2.59811968 33.13950662 -26.1764288 8.38781252 -60.15380859 -2.95507812 C-67.55669749 -5.30499493 -75.06303089 -7.12031577 -82.71630859 -8.45507812 C-83.71662109 -8.63941406 -84.71693359 -8.82375 -85.74755859 -9.01367188 C-122.72406736 -13.12621665 -159.05201517 -4.13855776 -188.71630859 18.54492188 C-192.92814649 21.99458221 -196.82247141 25.74471303 -200.71630859 29.54492188 C-201.55548828 30.310625 -202.39466797 31.07632813 -203.25927734 31.86523438 C-221.24344431 48.73432581 -233.36544708 72.62949582 -238.71630859 96.54492188 C-238.87566895 97.22200195 -239.0350293 97.89908203 -239.19921875 98.59667969 C-247.03706432 132.99925211 -240.3118153 170.67777235 -221.71630859 200.54492188 C-201.70595739 232.18033426 -170.32165107 254.35672338 -133.81005859 262.69726562 C-103.32342232 269.22701718 -72.05346328 265.0671284 -43.87646484 251.99804688 C-40.71630859 250.54492188 -40.71630859 250.54492188 -37.71630859 249.54492188 C-35.87295656 252.97713996 -34.04337951 256.41651314 -32.21630859 259.85742188 C-31.69166016 260.83388672 -31.16701172 261.81035156 -30.62646484 262.81640625 C-30.13017578 263.75419922 -29.63388672 264.69199219 -29.12255859 265.65820312 C-28.43129883 266.95431519 -28.43129883 266.95431519 -27.72607422 268.27661133 C-26.71630859 270.54492188 -26.71630859 270.54492188 -26.71630859 273.54492188 C-48.87457459 284.74318534 -72.78495727 291.77419462 -97.71630859 292.54492188 C-98.69599609 292.58488281 -99.67568359 292.62484375 -100.68505859 292.66601562 C-146.52397501 293.64993176 -187.36416905 275.57169589 -220.62255859 244.86132812 C-250.21200053 216.2277249 -267.75127865 175.14719911 -268.91943359 134.09179688 C-269.53219872 88.96823822 -254.99333569 47.49136643 -223.71630859 14.54492188 C-223.25272949 14.04879395 -222.78915039 13.55266602 -222.31152344 13.04150391 C-165.45082158 -47.509273 -63.73803088 -54.03679431 0 0 Z " fill="#BF1E2D" transform="translate(268.71630859375,36.455078125)"/>
<path d="M0 0 C11.28926886 -1.31270568 24.63951163 5.96597245 33.28515625 12.80859375 C39.72197167 18.7882148 44.33741177 26.49360081 45.23828125 35.33984375 C45.78742163 54.5597572 34.6572588 70.48266238 22.11230469 84.04003906 C14.24107093 92.29655103 6.0892994 100.08987424 -3 107 C-3.7007666 107.53947266 -4.4015332 108.07894531 -5.12353516 108.63476562 C-46.09579719 140.14017628 -91.66856273 165.18165733 -137.94335938 187.97900391 C-138.93529297 188.46804199 -139.92722656 188.95708008 -140.94921875 189.4609375 C-141.80862061 189.88165527 -142.66802246 190.30237305 -143.5534668 190.73583984 C-149.01356791 193.49254883 -149.01356791 193.49254883 -153 198 C-159.47155433 190.30331846 -169.6037242 175.9638653 -170.12109375 165.56640625 C-166.46249748 157.19115276 -154.02804931 153.31714495 -146.2694397 149.54138184 C-142.20245834 147.56026985 -138.15026117 145.54937958 -134.09765625 143.5390625 C-133.30084946 143.14428711 -132.50404266 142.74951172 -131.68309021 142.34277344 C-122.87268773 137.96504187 -114.23775909 133.29661144 -105.65771484 128.48486328 C-102.76574247 126.86912049 -99.86203787 125.27577407 -96.95703125 123.68359375 C-67.25432658 107.33225598 -37.75679471 89.40078874 -13 66 C-12.52320801 65.56107422 -12.04641602 65.12214844 -11.55517578 64.66992188 C0.21899604 53.7921454 11.62596676 40.15461828 12.5625 23.4375 C12.22289581 15.50208207 8.72718464 9.46592512 3.1875 3.9375 C2.58292969 3.38964844 1.97835937 2.84179688 1.35546875 2.27734375 C0.90816406 1.85582031 0.46085938 1.43429688 0 1 C0 0.67 0 0.34 0 0 Z " fill="#818285" transform="translate(222,59)"/>
<path d="M0 0 C4.74240685 4.70592679 7.2863453 8.90497401 7.375 15.625 C7.02331872 32.67119833 -6.16195259 45.25526531 -17.58984375 56.5625 C-50.48988205 87.43411488 -93.32704084 108.32981728 -133.70703125 127.6796875 C-134.90845009 128.25672928 -134.90845009 128.25672928 -136.13414001 128.84542847 C-140.01296837 130.7065627 -143.89707282 132.55470711 -147.79272461 134.38037109 C-149.20049485 135.05016833 -150.60813511 135.72023885 -152.015625 136.390625 C-152.96807854 136.82868973 -152.96807854 136.82868973 -153.93977356 137.27560425 C-158.07790684 139.26275695 -160.87788145 141.66611794 -164 145 C-164.66 145.33 -165.32 145.66 -166 146 C-167.12992307 139.67781138 -167.14861276 133.47336485 -167.125 127.0625 C-167.12886719 126.01642578 -167.13273437 124.97035156 -167.13671875 123.89257812 C-167.13298952 120.92597372 -167.07621293 117.96551806 -167 115 C-167.00483398 114.23284668 -167.00966797 113.46569336 -167.01464844 112.67529297 C-166.89542629 109.79272071 -166.47197639 107.58760932 -164.64575195 105.31396484 C-160.67053515 101.68869294 -156.20401038 99.33680002 -151.3125 97.1875 C-150.58047363 96.85403564 -149.84844727 96.52057129 -149.09423828 96.17700195 C-146.73481891 95.1056913 -144.36830324 94.0515093 -142 93 C-140.41770351 92.29225938 -138.83567354 91.58392259 -137.25390625 90.875 C-136.05677002 90.33854858 -136.05677002 90.33854858 -134.83544922 89.79125977 C-104.0275538 75.97080976 -73.57663267 61.11127676 -47 40 C-46.45859375 39.57219238 -45.9171875 39.14438477 -45.359375 38.70361328 C-34.85444581 30.34002717 -24.79849519 21.19451819 -21.125 7.8125 C-20.97855319 4.51744677 -21.34758535 2.85417077 -23 0 C-27.85665916 -5.15100214 -33.6729273 -5.88772533 -40.47265625 -6.1171875 C-43.65140847 -6.12410535 -46.82259378 -6.0883977 -50 -6 C-37.14803163 -14.56797891 -11.19402601 -9.20456641 0 0 Z " fill="#BF1E2D" transform="translate(208,48)"/>
<path d="M0 0 C2.97 0 5.94 0 9 0 C12 7.5 12 7.5 12 12 C12.66 12 13.32 12 14 12 C14.19916016 11.07767578 14.19916016 11.07767578 14.40234375 10.13671875 C14.66724609 8.92435547 14.66724609 8.92435547 14.9375 7.6875 C15.19853516 6.48673828 15.19853516 6.48673828 15.46484375 5.26171875 C16 3 16 3 17 0 C19.97 0 22.94 0 26 0 C27.51583025 4.54749075 27.39556349 9.25777247 27.60546875 14.015625 C27.43645559 17.82063972 27.43645559 17.82063972 29 21 C32.465 10.605 32.465 10.605 36 0 C38.97 0 41.94 0 45 0 C47.23440536 5.00611641 49.07079572 10.01402722 50.6875 15.25 C50.91244141 15.95640625 51.13738281 16.6628125 51.36914062 17.390625 C52.29640158 20.36687902 53 22.8638555 53 26 C50.36 26 47.72 26 45 26 C44.505 23.03 44.505 23.03 44 20 C41.69 20 39.38 20 37 20 C36.67 21.98 36.34 23.96 36 26 C30.72 26 25.44 26 20 26 C19.505 21.05 19.505 21.05 19 16 C18.01 18.97 17.02 21.94 16 25 C13.69 25 11.38 25 9 25 C8.34 22.69 7.68 20.38 7 18 C6.34 20.64 5.68 23.28 5 26 C2.69 26 0.38 26 -2 26 C-1.85815167 22.97893247 -1.71164333 19.95820903 -1.5625 16.9375 C-1.52318359 16.08994141 -1.48386719 15.24238281 -1.44335938 14.36914062 C-1.19996611 9.51999791 -0.77401958 4.79371788 0 0 Z M40 9 C39.67 10.65 39.34 12.3 39 14 C39.99 14 40.98 14 42 14 C41.67 12.35 41.34 10.7 41 9 C40.67 9 40.34 9 40 9 Z " fill="#BF1E2D" transform="translate(192,249)"/>
<path d="M0 0 C0.86882812 0.00644531 1.73765625 0.01289063 2.6328125 0.01953125 C4.875 0.1875 4.875 0.1875 6.875 1.1875 C6.545 3.1675 6.215 5.1475 5.875 7.1875 C4.6375 7.105 3.4 7.0225 2.125 6.9375 C-0.99013715 6.94856621 -1.96644398 7.08695228 -4.6875 8.8125 C-6.40399482 11.17056223 -6.40399482 11.17056223 -6.0625 14.3125 C-5.35805313 17.47924932 -5.35805313 17.47924932 -2.125 19.1875 C-0.06790404 19.42805468 -0.06790404 19.42805468 2.0625 19.3125 C3.320625 19.27125 4.57875 19.23 5.875 19.1875 C6.205 20.1775 6.535 21.1675 6.875 22.1875 C9.64739414 14.89172595 12.2618621 7.54146911 14.875 0.1875 C17.845 0.1875 20.815 0.1875 23.875 0.1875 C25.21590793 3.9556831 26.5464179 7.72745521 27.875 11.5 C28.2565625 12.57185547 28.638125 13.64371094 29.03125 14.74804688 C29.57265625 16.29008789 29.57265625 16.29008789 30.125 17.86328125 C30.46015625 18.81114502 30.7953125 19.75900879 31.140625 20.7355957 C31.875 23.1875 31.875 23.1875 31.875 26.1875 C29.235 26.1875 26.595 26.1875 23.875 26.1875 C23.66875 25.383125 23.4625 24.57875 23.25 23.75 C22.79625 22.904375 22.3425 22.05875 21.875 21.1875 C18.82227535 20.28919161 18.82227535 20.28919161 15.875 20.1875 C15.545 22.1675 15.215 24.1475 14.875 26.1875 C11.50029496 26.30439626 8.1261157 26.37497934 4.75 26.4375 C3.79867188 26.47101563 2.84734375 26.50453125 1.8671875 26.5390625 C-3.98206056 26.62030206 -7.57129424 26.26762037 -12.125 22.1875 C-14.80096359 17.69878688 -15.66469961 14.12277472 -14.76953125 9.046875 C-13.45173357 5.24522835 -10.61618376 3.0922986 -7.27734375 1.06640625 C-4.71236453 0.01900094 -2.76237218 -0.04535238 0 0 Z M18.875 10.1875 C18.545 11.5075 18.215 12.8275 17.875 14.1875 C18.865 13.8575 19.855 13.5275 20.875 13.1875 C20.215 12.1975 19.555 11.2075 18.875 10.1875 Z " fill="#BF1E2D" transform="translate(288.125,248.8125)"/>
<path d="M0 0 C3.36444825 2.34728948 4.36990434 3.99541277 5.6875 7.875 C6.45775424 13.23468578 5.77085461 17.30312937 2.6875 21.875 C-1.08293611 25.30266919 -4.98019838 25.38353701 -9.87109375 25.23046875 C-13.48946026 24.70363459 -15.62274985 23.29577514 -18.3125 20.875 C-20.88210471 16.66296754 -20.88018249 12.68309863 -20.3125 7.875 C-18.83656483 4.64199914 -17.04657055 2.15339213 -14.3125 -0.125 C-9.27330822 -1.80473059 -4.95372002 -1.68239548 0 0 Z M-11.0625 6.4375 C-12.77377204 9.77448048 -12.71599931 12.17625632 -12.3125 15.875 C-11.28828739 17.98438785 -11.28828739 17.98438785 -9.3125 18.875 C-6.72132687 18.87343776 -6.72132687 18.87343776 -4.3125 17.875 C-1.98670899 14.38631349 -1.89384543 12.97781481 -2.3125 8.875 C-3.4200902 6.45215762 -3.4200902 6.45215762 -5.3125 4.875 C-9.20621498 4.43098949 -9.20621498 4.43098949 -11.0625 6.4375 Z " fill="#BF1E2D" transform="translate(183.3125,250.125)"/>
<path d="M0 0 C-0.33 1.98 -0.66 3.96 -1 6 C-1.60328125 5.98839844 -2.2065625 5.97679687 -2.828125 5.96484375 C-3.62734375 5.95582031 -4.4265625 5.94679687 -5.25 5.9375 C-6.03890625 5.92589844 -6.8278125 5.91429687 -7.640625 5.90234375 C-9.90691002 5.99614694 -11.8288895 6.36758937 -14 7 C-14.67432816 9.9670439 -15.18279994 12.26880023 -14.4375 15.25 C-12.37057858 17.76625217 -10.08507489 18.19519785 -7 19 C-7 17.68 -7 16.36 -7 15 C-7.99 15 -8.98 15 -10 15 C-10 13.02 -10 11.04 -10 9 C-6.37 9 -2.74 9 1 9 C1 13.95 1 18.9 1 24 C-5.23748711 25.55937178 -11.36298886 25.89470021 -17.5 23.8125 C-20.48531994 21.64814304 -21.67389213 20.462615 -23 17 C-23.62043137 12.87757824 -23.92212231 8.92699919 -22.0859375 5.08984375 C-16.87353803 -1.75353233 -7.74232896 -2.58077632 0 0 Z " fill="#BF1E2D" transform="translate(141,250)"/>
<path d="M0 0 C5.94 0 11.88 0 18 0 C18 2.31 18 4.62 18 7 C14.7 7 11.4 7 8 7 C8 7.99 8 8.98 8 10 C10.97 10 13.94 10 17 10 C17 11.98 17 13.96 17 16 C14.03 16 11.06 16 8 16 C8 17.32 8 18.64 8 20 C11.3 20 14.6 20 18 20 C18 21.98 18 23.96 18 26 C12.06 26 6.12 26 0 26 C0 17.42 0 8.84 0 0 Z " fill="#BF1E2D" transform="translate(144,249)"/>
<path d="M0 0 C6.93 0 13.86 0 21 0 C21 2.31 21 4.62 21 7 C18.69 7 16.38 7 14 7 C14 13.27 14 19.54 14 26 C11.36 26 8.72 26 6 26 C6 19.73 6 13.46 6 7 C4.02 7 2.04 7 0 7 C0 4.69 0 2.38 0 0 Z " fill="#BF1E2D" transform="translate(242,249)"/>
<path d="M0 0 C2.31 0 4.62 0 7 0 C7 8.58 7 17.16 7 26 C4.69 26 2.38 26 0 26 C0 17.42 0 8.84 0 0 Z " fill="#BF1E2D" transform="translate(264,249)"/>
</svg>
