<svg xmlns="http://www.w3.org/2000/svg" width="269" height="187"><path fill="#FCFDFD" d="M0 0h269v187H0z"/><path fill="#FAFCFD" d="m132.875 13.813 2.355-.038c11.951-.03 22.13 4.946 30.735 13.065 8.526 9.05 12.708 19.531 12.576 31.96-.636 13.755-6.43 24.586-16.353 33.95-11.911 9.984-25.27 10.56-40.188 9.25-4.208-1.055-7.425-2.574-11-5l-2.145-1.352c-10.247-7.014-15.634-15.862-19.464-27.5-2.268-12.473-.297-23.974 6.234-34.773 6.297-8.829 15.035-16.09 25.613-18.988 3.886-.544 7.718-.571 11.637-.575"/><path fill="#08A2DE" d="m139.669 30.183 2.66 1.47 2.921 1.603 3 1.681 3.047 1.67c7.408 4.098 7.408 4.098 9.703 6.393.227 3.073.227 3.073.195 6.977l-.008 2.076c-.011 2.19-.037 4.381-.062 6.572q-.016 2.227-.027 4.453-.035 5.46-.098 10.922l-1.94 1.054q-4.375 2.378-8.747 4.758l-3.053 1.659-2.96 1.611-2.713 1.476c-2.633 1.397-2.633 1.397-5.043 3.25C134 89 134 89 131.023 88.361c-2.865-1.29-5.633-2.634-8.386-4.147l-2.936-1.608-3.013-1.67-3.073-1.681c-7.463-4.104-7.463-4.104-8.615-5.256a158 158 0 0 1-.098-7.098l.005-2.148c.005-2.272.018-4.544.03-6.817q.008-2.306.014-4.61.017-5.664.049-11.327a1069 1069 0 0 1 10.779-6.036q1.835-1.02 3.66-2.058c1.754-.996 3.52-1.969 5.288-2.941l3.205-1.793c4.534-1.732 7.394-.914 11.737 1.011"/><path fill="#0A85CB" d="M130.078 6.813C138.77 6.506 145.908 7.866 154 11l2.238.84c11.665 5.072 21.022 16.265 25.637 27.848 5.362 14.54 3.587 28.506-2.562 42.562-6.91 12.7-19.51 21.786-33.137 25.906-4.377 1.014-8.633 1.19-13.113 1.156-.795-.005-1.59-.01-2.41-.017-5.732-.119-10.455-.763-15.653-3.295l-2.953-1.324C98.104 98.134 89.894 88.252 84 74c-3.874-11.036-3.086-24.162 1-35 7.204-14.587 16.995-24.268 32.305-30.102 4.328-1.442 8.245-1.81 12.773-2.085M115 17l-2.473 1.254c-11.968 6.625-18.75 15.835-23.195 28.676-2.024 12.622-.473 24.696 6.277 35.691C102.451 91.927 111.028 98.343 122 102c3.516.283 7.037.278 10.563.313l2.884.087c11.518.102 21.46-4.566 29.752-12.505 4.26-4.576 7.522-9.07 9.801-14.895l.902-2.16c3.475-9.592 3.737-20.77-.027-30.278C169.62 29.633 161.379 20.746 148 15c-10.073-2.345-23.666-2.822-33 2"/><path fill="#0284CA" d="M161 43v31c-10.812 5.875-10.812 5.875-14.21 7.718l-2.685 1.462-2.745 1.491c-1.833 1.032-3.61 2.162-5.36 3.329h-3V58c11.813-6.375 11.813-6.375 15.527-8.376l2.93-1.585 3-1.619C160.581 43 160.581 43 161 43"/><path fill="#F9FCF7" d="M187 120h24v21h13v4h-37z"/><path fill="#76C14F" d="m164 120 7.813-.187 2.448-.083c5.284-.062 5.284-.062 7.449 1.517 2.432 3.306 1.76 7.294 1.727 11.253l.061 2.629c-.005 6.205-.005 6.205-2.041 8.953-3.418 1.277-6.62 1.237-10.207 1.106L164 145z"/><path fill="#7FC55C" d="m151.063 119.625 3.785-.023L158 120c2.778 4.167 2.368 7.602 2.375 12.5l.074 2.629c.03 6.27.03 6.27-2.094 8.937-2.93 1.162-5.266 1.368-8.417 1.371l-3.16.06C144 145 144 145 142.151 143.538c-1.741-3.837-1.587-7.438-1.527-11.601l-.035-2.471.012-2.377.01-2.16c1.131-5.624 5.553-5.335 10.45-5.305"/><path fill="#045F7E" d="M168 155c3.152-.398 3.152-.398 6.938-.375l3.777-.023c3.285.398 3.285.398 4.963 1.667 2.412 3.158 1.793 6.838 1.76 10.668l.06 2.46c-.003 3.764-.064 5.95-2.182 9.138-2.811 1.778-4.504 2.001-7.816 1.965l-2.844.031C170 180 170 180 167.68 178.535c-2.506-3.782-2.189-7.163-2.055-11.597l.004-2.471c.09-6.044.09-6.044 2.371-9.467"/><path fill="#035F7E" d="M51 120c3.152-.398 3.152-.398 6.938-.375l3.777-.023C65 120 65 120 66.678 121.269c2.412 3.158 1.793 6.838 1.76 10.668l.06 2.46c-.003 3.741-.075 5.952-2.146 9.138-2.98 1.856-4.919 2-8.415 1.965l-3.16.031C52 145 52 145 50.148 143.535c-1.737-3.836-1.543-7.438-1.46-11.597l-.01-2.471c.055-6.066.055-6.066 2.322-9.467"/><path fill="#066080" d="M123 155c3.152-.398 3.152-.398 6.938-.375l3.777-.023c3.285.398 3.285.398 4.963 1.667 2.412 3.158 1.793 6.838 1.76 10.668l.06 2.46c-.003 3.764-.064 5.95-2.182 9.138-2.811 1.778-4.504 2.001-7.816 1.965l-2.844.031C125 180 125 180 122.68 178.535c-2.506-3.782-2.189-7.163-2.055-11.597l.004-2.471c.09-6.044.09-6.044 2.371-9.467"/><path fill="#146785" d="m101.063 119.688 3.785.011C108 120 108 120 110 122c.259 2.031.259 2.031.266 4.5l.007 2.688-.023 2.812.023 2.813-.007 2.687-.007 2.469C110 142 110 142 108 144a79 79 0 0 1-7.5.313l-2.09.048c-2.004.002-2.004.002-5.41-.361-2.714-4.07-2.331-7.223-2.312-12l-.05-2.484-.001-2.391-.01-2.18c1.085-5.664 5.539-5.323 10.436-5.257"/><path fill="#71C14D" d="M133 28c5.921 1.974 10.879 4.45 16.313 7.438l2.783 1.486 2.642 1.447 2.408 1.31C159 41 159 41 160 44q-5.281 3-10.571 5.981-1.8 1.017-3.597 2.038-2.581 1.464-5.168 2.919l-3.142 1.777C135 58 135 58 133 58z"/><path fill="#039FDD" d="M133 28v29c-4.257-.851-6.58-1.643-10.266-3.652l-2.945-1.604-3.039-1.681-3.086-1.67C106.13 44.258 106.13 44.258 105 42q5.495-3 10.999-5.981 1.872-1.017 3.742-2.038 2.686-1.463 5.376-2.919l3.27-1.777C131 28 131 28 133 28"/><path fill="#70C04B" d="M105 43c22.226 10.925 22.226 10.925 26 14v3a4871 4871 0 0 1-11.875 6.5l-3.418 1.879-3.262 1.777-3.015 1.65C107 73 107 73 105 73z"/><path fill="#016180" d="M161 43v30c-3.54-1.416-6.736-2.836-10.082-4.602l-2.822-1.484-2.909-1.539-2.966-1.562Q138.609 61.909 135 60v-3q5.31-2.995 10.626-5.981l3.617-2.038q2.595-1.462 5.19-2.919l3.159-1.777C160 43 160 43 161 43"/><path fill="#82C65F" d="m246 120 7.875-.125 2.476-.055c1.884-.015 3.768.08 5.649.18 2 2 2 2 2.266 4.531l-.016 2.969.016 2.969C264 133 264 133 262 135c.278 2.394.278 2.394 1 5l1 5h-5l-3-9-6-1v10h-4z"/><path fill="#8CCB6D" d="M115 120c5 1 5 1 6.582 3.285l1.23 2.778 1.27 2.785L125 131c2.815-1.407 3.275-3.256 4.625-6.062l1.352-2.786L132 120h5v25h-5l-1-13-5 8c-2.472-2.966-4.256-5.512-6-9l-1 14h-4z"/><path fill="#0F6583" d="m5 120 7.313-.187 2.29-.083c2.848-.036 4.912-.035 7.358 1.5 1.312 2.234 1.407 3.689 1.352 6.27l-.012 2.344C23 132 23 132 21 135c-3.04.293-3.04.293-6.625.188l-3.602-.083L8 135v9H5z"/><path fill="#065E7F" d="M96 155c5 1 5 1 6.394 2.399l1.063 1.761 1.182 1.904c.58.99.58.99 1.174 1.999l1.232 2.01c1 1.633 1.979 3.279 2.955 4.927l1-15h4v24c-5-1-5-1-6.394-2.399l-1.063-1.761-1.182-1.904c-.58-.99-.58-.99-1.174-1.999l-1.232-2.01c-1-1.633-1.979-3.279-2.955-4.927l-1 16h-4z"/><path fill="#09607F" d="m199.938 154.688 3.777-.051C207 155 207 155 208.93 156.352c1.471 2.266 1.284 4.006 1.07 6.648h-4l-1-4h-9l-1 17 10-1 1-5h-7v-4h11v14h-3v-2l-2 1c-1.996.147-3.998.221-6 .25l-3.25.078L193 179c-2.075-3.112-2.255-3.84-2.266-7.379l-.007-2.54.023-2.643-.023-2.655.007-2.537.007-2.322c.688-5.114 5.075-4.224 9.196-4.237"/><path fill="#8ECC70" d="M187 120h17v3h-12v7h10v4h-10v7h12v4h-17z"/><path fill="#1C6B88" d="m252.188 154.734 3.812.016 3.813-.016C263 155 263 155 265 157c.125 2.625.125 2.625 0 5h-3l-1-3h-9l-1 6 2.3-.07 3.012-.055 2.989-.07C262 165 262 165 265 167c1.545 6.841 1.545 6.841-.05 10.234-2.899 2.625-5.175 2.228-9.012 2.141l-3.786-.04C249 179 249 179 247 177c-.125-2.625-.125-2.625 0-5h4v4l10-1v-5l-2.3-.113-3.012-.2-2.989-.175C250 169 250 169 248.164 167.742c-1.492-2.233-1.534-3.636-1.476-6.304l.011-2.38c.537-3.675 1.954-4.03 5.488-4.324"/><path fill="#3D7D96" d="M25 155h17v3H30v7h10v4H29v7h13v4H25z"/><path fill="#8ECB6F" d="M226 120h17v3h-13v7h11v4h-10v7h12v4h-17z"/><path fill="#146684" d="M71 155h4v10h11v-10h4v24h-4v-10H75v11h-4z"/><path fill="#106482" d="M26 120h4v10h11v-10h4v24h-4v-10H30v11h-4z"/><path fill="#1E6C88" d="M225 155h17v3h-13v7h11v4h-11v7h13v4h-17z"/><path fill="#076180" d="M49 155c3.152-.398 3.152-.398 6.938-.375l3.777-.023C63 155 63 155 64.93 156.355c1.473 2.264 1.284 4.005 1.07 6.645h-4l-1-4h-9v16h9l1-4h4c-.312 3.375-.312 3.375-1 7-3.304 2.203-4.568 2.322-8.437 2.375l-2.872.086C51 180 51 180 48.676 178.543c-2.497-3.79-2.185-7.17-2.051-11.606l.004-2.47c.09-6.044.09-6.044 2.371-9.467"/><path fill="#FAFCF9" d="M168 123c7.715-.098 7.715-.098 10 0 1.821 1.821 1.132 4.307 1.137 6.727l-.012 2.273.012 2.273c-.01 5.6-.01 5.6-1.137 6.727-3.336.143-6.66.042-10 0z"/><path fill="#F2F5F7" d="m98.031 122.867 2.469.008 2.469-.008C105 123 105 123 106 124c.073 2.863.092 5.7.063 8.563l-.014 2.443q-.02 2.997-.049 5.994-2.47.039-4.937.063l-2.778.035C96 141 96 141 95 140c-.1-2.677-.139-5.323-.125-8l-.012-2.273c.012-6.653.012-6.653 3.168-6.86"/><path fill="#F8F9FA" d="m173.031 157.867 2.469.008 2.469-.008C180 158 180 158 181 159c.1 2.677.139 5.323.125 8l.012 2.273c-.01 5.6-.01 5.6-1.137 6.727-1.497.098-3 .13-4.5.125l-2.469.008C171 176 171 176 170 175c-.1-2.677-.139-5.323-.125-8l-.012-2.273c.012-6.653.012-6.653 3.168-6.86M128.031 157.867l2.469.008 2.469-.008C135 158 135 158 136 159c.1 2.677.139 5.323.125 8l.012 2.273c-.01 5.6-.01 5.6-1.137 6.727-1.497.098-3 .13-4.5.125l-2.469.008C126 176 126 176 125 175c-.1-2.677-.139-5.323-.125-8l-.012-2.273c.012-6.653.012-6.653 3.168-6.86"/><path fill="#F9FCF8" d="m148.031 122.867 2.469.008 2.469-.008C155 123 155 123 156 124c.1 2.677.139 5.323.125 8l.012 2.273c-.01 5.6-.01 5.6-1.137 6.727-1.497.098-3 .13-4.5.125l-2.469.008C146 141 146 141 145 140c-.1-2.677-.139-5.323-.125-8l-.012-2.273c.012-6.653.012-6.653 3.168-6.86"/><path fill="#F8FAFA" d="m56.031 122.867 2.469.008 2.469-.008C63 123 63 123 64 124c.1 2.677.139 5.323.125 8l.012 2.273c-.01 5.6-.01 5.6-1.137 6.727-1.497.098-3 .13-4.5.125l-2.469.008C54 141 54 141 53 140c-.1-2.677-.139-5.323-.125-8l-.012-2.273c.012-6.653.012-6.653 3.168-6.86"/><path fill="#81C65D" d="M207 120h4v21h13v4h-17z"/><path fill="#78C252" d="M246 120h14l-1 3h-9v9h10l-4 1v2h-6v10h-4z"/><path fill="#055E7E" d="M2 155h20v3h-8v21h-4v-21H2z"/><path fill="#015B7B" d="M70 120h20v3h-8v21h-4v-21h-8z"/><path fill="#79C253" d="M115 120c5 1 5 1 6.582 3.215l1.23 2.722 1.27 2.715C125 131 125 131 125 133c-3.875-.875-3.875-.875-5-2l-1 14h-4z"/><path fill="#045E7E" d="M146 155h4v21h12v3h-16z"/><path fill="#106583" d="M96 155c5 1 5 1 6.582 2.848l1.23 2.214 1.27 2.223L106 164l-3 3-2-3-1 16h-4z"/><path fill="#82C65F" d="M179 120c3 1 3 1 4 3 .289 3.14.278 6.287.313 9.438l.087 2.642c.063 6.29.063 6.29-1.935 9.006-3.418 1.267-6.628 1.234-10.215 1.101l-2.113-.04A395 395 0 0 1 164 145v-1l13-1-9-1v-1l10-1-.035-4.121-.028-5.316-.025-2.721-.01-2.588-.016-2.396C178 121 178 121 179 120"/><path fill="#79C253" d="M156 120c3 1 3 1 4 3 .237 3.161.185 6.33.188 9.5l.037 2.668.005 2.55.013 2.343C160 142 160 142 158 144c-2.82.195-2.82.195-6.125.125l-3.32-.055L146 144l1-3 8-1-.016-1.728q-.029-3.855-.047-7.71l-.025-2.72-.01-2.588-.016-2.396C155 121 155 121 156 120"/><path fill="#0A6180" d="M51 120h3v20l9 1v1l-8 1 9 1v1c-1.936.108-3.874.186-5.812.25l-3.27.14C52 145 52 145 50.133 143.55c-1.71-3.847-1.528-7.452-1.446-11.613l-.01-2.47c.056-6.066.056-6.066 2.323-9.467"/><path fill="#1C6B88" d="M168 155h3v20l9 1v1l-8 1 9 1v1c-1.749.109-3.5.186-5.25.25l-2.953.14C170 180 170 180 167.664 178.55c-2.477-3.797-2.173-7.179-2.039-11.613l.004-2.47c.09-6.044.09-6.044 2.371-9.467"/><path fill="#1A6A87" d="M135 155c4 2 4 2 5 3 .18 2.952.278 5.858.313 8.813l.087 2.486c.04 3.796.042 6.02-2.06 9.26-2.92 1.799-4.685 1.853-8.09 1.691l-2.984-.11L125 180v-1l9-1-8-1v-1l9-1z"/><path fill="#1B6A87" d="M199 166h11v14h-3v-2l-2 1c-1.54.07-3.083.085-4.625.063l-2.477-.028L196 179c2.686-2.686 5.376-3.06 9-4l1-5h-7z"/><path fill="#055E7E" d="M216 155h4v24h-4z"/><path fill="#005B7C" d="M26 155h16v3l-13 1-2 19h14v1H26z"/><path fill="#F7FBF5" d="M250 123c6.934-.098 6.934-.098 9 0 1 1 1 1 1.098 2.848L260 132h-10z"/><path fill="#F1F4F6" d="M9 123c6.934-.098 6.934-.098 9 0 1 1 1 1 1.125 4.5C19 131 19 131 18 132c-3.003.142-5.992.042-9 0z"/><path fill="#E8EEF1" d="m254.066 157.902 2.496.036 2.504.027L261 158l1 4h3l1-3v4h-4v2h-11c-.043-2-.04-4 0-6 1-1 1-1 3.066-1.098"/><path fill="#166885" d="m262 170 2 1q.062 3.5 0 7c-1.933 1.933-5.375 1.174-7.937 1.188l-3.84.042C249 179 249 179 247 177c-.125-2.625-.125-2.625 0-5h4v4l10-1z"/><path fill="#00597A" d="M5 120h13v3H8c-2.008 10.725-2.008 10.725 0 21H5z"/><path fill="#72C04A" d="M227 120h16v3h-12v-2h-3v23h-1zM188 120h16v3h-12v-2h-3v23h-1z"/><path fill="#307791" d="m49 132 1 3h2v5l11 1v1l-8 1 9 1v1c-1.936.108-3.874.186-5.812.25l-3.27.14C52 145 52 145 50.125 143.282c-1.274-2.583-1.439-4.171-1.312-7.031l.082-2.422z"/><path fill="#307690" d="M62 171h4c-.312 3.375-.312 3.375-1 7-3.42 2.28-4.682 2.22-8.687 2.125l-3.012-.055L51 180v-1l9-1-8-1v-1l9-1z"/><path fill="#045C7C" d="M252 155c1.791-.054 3.583-.093 5.375-.125l3.023-.07C263 155 263 155 265 157c.125 2.625.125 2.625 0 5h-3l-1-3-9-1z"/><path fill="#81C65F" d="m129 130 2 2-5 8c-4-4.75-4-4.75-4-7z"/><path fill="#005E7E" d="m262 170 2 1q.062 3.5 0 7c-1 1-1 1-3.504 1.098l-3.058-.036-3.067-.027L252 179c2.686-2.686 5.376-3.06 9-4z"/><path fill="#005A7B" d="M126 155h9v3h-9zM52 155h10l-1 3h-9z"/><path fill="#216D89" d="m94 139 2 1c1.537.225 3.08.408 4.625.563l2.477.253L105 141v1l-12 2c0-4 0-4 1-5"/><path fill="#216B88" d="m208 157 2 1v5h-4c.506-2.169 1-4 2-6"/></svg>