<svg xmlns="http://www.w3.org/2000/svg" width="263" height="155"><path fill="#FCFCFD" d="M0 0h263v155H0z"/><path fill="#82858E" d="M65 20h-3v3h-2l.691 1.617C63.064 30.767 63.12 35.542 62 42l2.379-.105C70.772 41.73 75.356 41.92 81 45l1-7h1c.557 5.571-.893 9.47-4 14-4.4 4.537-7.641 6.997-14 7.25-5.985.497-11.11 2.2-16 5.75-2.054 2.984-2.45 5.42-2 9 2.547 4.672 5.281 8.469 10.438 10.063L60 84l1-3a172 172 0 0 1 7-2l2-2c2.625-.125 2.625-.125 5 0l1-3c3.599-.45 5.855-.704 9 1.23a218 218 0 0 1 4.027 3.266c2.093 1.741 2.093 1.741 5.535 2.879 4.081 1.93 6.06 4.244 8.86 7.707 1.608 2.062 1.608 2.062 4.016 4.043C109 95 109 95 109.375 98c-.354 2.835-.892 4.59-2.375 7l1.813.688c2.78 1.668 3.751 3.44 5.187 6.312v2h2c2.135 7.739 2.205 15 2 23l10 2-3 4c-2.418.25-2.418.25-5.187 0-4.883-.186-7.549.511-11.723 2.91-6.93 3.614-14.392 4.579-22.09 4.09l-2-1v-2l-1.906.14c-6.58.278-10.433-.786-16.094-4.14l1-3 2 1v-2h-2l1-35-6-2-1.562-3.312c-1.438-3.005-2.282-3.623-5.434-4.942L51.5 92.625c-6.026-2.06-6.026-2.06-8.203-4.652C42.232 85.648 41.548 83.495 41 81l-.543-2.078C39.418 73.697 40.397 69.518 43 65c1.864-2.33 3.704-4.046 6-6h2v-3l-2.312-1.062C44.5 51.918 43.953 47.917 43 43c-.915-6.149.471-10.977 4-16 4.527-5.065 10.945-9.822 18-7"/><path fill="#57789E" d="M5 5c27 0 27 0 35 6 1.615 6.46 1.927 13.117-.125 19.5C36.948 34.403 33.593 36.47 29 38c-3.671.133-7.325.043-11 0v21H5z"/><path fill="#5A7A9E" d="M188 6v9l-3.07-.324-4.055-.364-2.016-.22c-4.829-.403-7.882.113-11.859 2.908-3.616 5.015-3.486 10.052-3.437 16l-.061 2.656c.004 5.744.722 8.956 4.498 13.344 2.353 1.177 3.88 1.166 6.5 1.188l2.406.042c2.314-.033 2.314-.033 4.094-2.23.462-2.433.462-2.433.625-5.125l.227-2.758L182 38h-9v-8q4.719-.042 9.438-.062l2.72-.026 2.588-.01 2.396-.016C192 30 192 30 193 31c.39 3.384.418 6.784.5 10.188l.164 2.869c.133 6.822.133 6.822-2.047 9.887-6.814 6.174-14.1 6.517-22.976 6.36-4.68-.39-8.098-1.147-11.641-4.304-2.005-2.522-3.553-5.128-5-8l-1.044-1.847c-1.685-3.795-1.283-7.748-1.268-11.84l-.05-2.608c-.006-8.454 1.665-15.964 7.667-22.197C165.214 2.474 178.56 1.28 188 6"/><path fill="#5B7B9F" d="m257 7-1 7-3.324-.035-4.363-.027-2.186-.026c-3.843-.017-7.393.153-11.127 1.088.223 3.798.223 3.798 2 7 3.143 1.525 6.337 2.571 9.648 3.68 4.644 1.829 8.138 4.51 11.352 8.32 1.798 5.393 1.986 11.771.316 17.238-2.206 4.276-4.902 6.107-9.316 7.762-4.124 1.184-8.174 1.22-12.437 1.25l-2.276.063c-4.546.031-7.658-.254-11.287-3.313-.387-3.16-.43-5.139 1-8l3.438.5c9.528 1.166 9.528 1.166 18.562-1.5a129 129 0 0 0-2-7l-2-1v-2l-2.625-.312c-6.53-1.33-10.784-4.243-15.02-9.301C221.93 24.114 222.2 19.742 223 15c1.132-3.655 2.194-5.61 5.375-7.75l1.773-1.234C237.893 1.767 249.526 2.729 257 7"/><path fill="#6684A2" d="M65 20h-3v3h-2l.691 1.617C63.064 30.767 63.12 35.542 62 42l2.379-.105C70.772 41.73 75.356 41.92 81 45l1-7h1c.557 5.571-.893 9.47-4 14-4.4 4.537-7.641 6.997-14 7.25-5.985.497-11.11 2.2-16 5.75-2.052 2.98-2.482 5.424-2 9 1.492 2.521 1.492 2.521 3.5 4.813l1.969 2.394L54 83h-3c-3.959-4.336-6.146-6.79-6.062-12.625l.027-2.477L45 66c-2.635 4.546-2.574 8.864-2 14 1.35 2.925 1.35 2.925 3 5v2h-2c-2.96-5.146-4.743-10.163-3.598-16.078C42.095 65.673 44.828 62.552 49 59h2v-3l-2.312-1.062C44.5 51.918 43.953 47.917 43 43c-.915-6.149.471-10.977 4-16 4.527-5.065 10.945-9.822 18-7"/><path fill="#BCC0CA" d="M81 76c6.702 1.936 6.702 1.936 9 5v2l7 1v4a528 528 0 0 0 7.91 6.578C107 97 107 97 107.11 99.535c-1.43 3.177-3.153 4.556-5.922 6.653l-2.645 2.042c-5.457 3.798-5.457 3.798-8.98 3.707-4.195-1.534-6.699-4.414-8.876-8.25L80 102l-1.687 1.063c-2.898 1.174-4.365.868-7.313-.063l-2-2v-1l-2-1 1-2-3-1 2-1-1-4-7-1v-3l2.152-.77 2.785-1.043 2.778-1.019C69.334 83.166 69.334 83.166 70 80c3.48-1.16 6.353-1.068 10-1h1z"/><path fill="#5D7B9C" d="m107.563 16.75 3.378-.016c2.925.254 4.59.745 7.059 2.266.043 1.666.04 3.334 0 5-1 1-1 1-3.871 1.063l-7.125-.125c-2.929-.154-2.929-.154-5.004 1.062v4c.797.23 1.593.461 2.414.7 12.26 3.773 12.26 3.773 15.586 8.3.9 5.555 1.32 10.759-1.602 15.719-5.241 4.986-10.758 5.754-17.648 5.593l-2.14.01c-3.732-.039-5.435-.205-8.61-2.322l1-8 2.137.496c2.96.521 5.674.603 8.676.566l2.957-.027L107 51l1-5-2.484-.918-3.266-1.27-3.234-1.23C94.662 40.298 92.546 37.637 91 33c-.63-4.809-.776-7.958 2.188-11.937 4.76-3.492 8.49-4.34 14.374-4.313"/><path fill="#5C7B9E" d="M138 6v11h8v9h-8c.138 3.813.287 7.625.438 11.438l.119 3.298.127 3.135.11 2.904c-.036 2.196-.036 2.196 1.206 3.225q3.493.553 7 1l1 7c-5.225 1.742-9.493 2.787-15 2-3.447-2.79-5.602-5.806-7-10a111 111 0 0 1-.098-5.543l.01-3.252.025-3.392.014-3.428q.018-4.193.049-8.385h-6v-9h6l-.5-2.687C126 11 126 11 127.64 9.488 131.435 7.037 133.358 6 138 6"/><path fill="#5579A1" d="M201 5h13v54h-13z"/><path fill="#56799F" d="M5 5c27 0 27 0 35 6 1.615 6.46 1.927 13.117-.125 19.5C36.948 34.403 33.593 36.47 29 38c-1.895.069-3.792.085-5.687.063l-3.012-.028L18 38v-2l11-2 1-7-1 2H18V13l5-1-2-1V8c3 0 3 0 4.688 1.5L27 11l-1-4L7 6q-.037 9.93-.055 19.86-.008 3.379-.02 6.758-.018 4.855-.023 9.71l-.015 3.053v2.85l-.007 2.504C6.997 52.95 7.384 54.873 8 57l8 1V40l2-1v20H5z"/><path fill="#F1F2F3" d="M104 105c6.257 3.492 9.73 8.192 12 15 .07 2.739.094 5.45.063 8.188l-.014 2.271q-.02 2.77-.049 5.541c-3.753.812-7.155 1.09-11 1l-.812-1.937c-1.075-2.394-1.075-2.394-4.188-3.063l1-5-3 2c-3.063.527-5.94.559-9 0-2.344-2.486-2.883-4.085-3.312-7.437.407-3.344.681-5.562 2.312-8.563 2.161-.996 4.304-1.594 6.602-2.21 3.724-1.226 6.334-3.378 9.398-5.79"/><path fill="#A7B4C2" d="M70.313 19.25C76.868 23.519 80.67 27.44 82.875 35c.153 3.67-.7 6.542-1.875 10l-2.75-.937C72.955 42.523 67.478 42.342 62 42c-1-3-1-3-.5-6.375.464-3.36.59-5.445-.5-8.625l-3-2h2v-2h2l-1-3c-6.995 1.632-11.028 3.954-15 10-3.126 5.542-2.477 11.54-1 17.5l1 3.5h-2v-3h-2c-1.116-16.843-1.116-16.843 4.105-23.227 7.086-6.632 14.928-9.025 24.208-5.523"/><path fill="#EBECF1" d="M90 86c3.784-.584 4.957-.03 8.148 2.23q1.631 1.46 3.227 2.957l1.691 1.463c3.889 3.577 3.889 3.577 4.086 6.952-1.485 3.09-3.236 4.52-5.965 6.585l-2.644 2.043c-5.457 3.798-5.457 3.798-8.98 3.707-3.513-1.285-5.247-3.025-7.563-5.937-.625-2.437-.625-2.437 0-5 1.206-1.434 2.418-2.864 3.688-4.242C88.063 93.576 88.964 89.79 90 86"/><path fill="#F1F5F7" d="M146 18h1l1 5h2v-5l2 1-.477 1.895c-1.763 10.46-2.345 22.392 3.383 31.62L156 54l-1.875.313c-2.49.562-2.49.562-4.125 3.687h-2l-1-7-3.375.125C140 51 140 51 138 49c-.227-2.338-.227-2.338-.195-5.227l.02-3.125.05-3.273.027-3.297q.036-4.039.098-8.078h8z"/><path fill="#AEB5BE" d="M84 110c3.938 3.323 3.938 3.323 4.25 6.75L88 119h-2c1.059 3.403 2.009 6.014 4 9 4.177.265 7.043.319 11-1l.438 1.938c.372 2.037.372 2.037 1.562 3.062 2 2 2 2 3 4h9l1-10h1c.108 2.103.186 4.208.25 6.313l.14 3.55C117 139 117 139 115.263 140.871c-5.01 2.5-10.913 2.682-16.262 1.129v-2l-2-1c-.625-2.562-.625-2.562-1-5h-2l1-4-1.898.219-2.477.281-2.46.281C86 131 86 131 84 131l-1-4h-2v-2l-3 1c-.19-4.764-.072-8.649 2-13 2.125-.875 2.125-.875 4-1z"/><path fill="#607790" d="M201 5h13v54h-13zm3.784 2.203c-2.27 2.286-2.296 3.36-2.33 6.544l-.06 2.911-.003 3.135-.05 3.216c-.05 3.393-.07 6.785-.091 10.179q-.042 3.447-.09 6.896-.11 8.458-.16 16.916c4.003.092 4.003.092 8 0 1.224-1.003 1.224-1.003 1.12-3.018l-.006-2.685v-3.034l-.016-3.298-.005-3.359c-.005-3.556-.018-7.112-.03-10.669q-.008-3.606-.014-7.212Q211.032 14.862 211 6c-3.834-.318-3.834-.318-6.216 1.203"/><path fill="#6E727E" d="m50 90 2.23.656 2.958.844 2.917.844c2.752.624 5.092.67 7.895.656 1.813 1.313 1.813 1.313 3 3v3l2 1v2c4.054 1.158 6.218.837 10-1l1 5-1-2-11 3c.114 2.105.242 4.209.375 6.313.07 1.171.14 2.343.21 3.55.201 3.294.201 3.294 2.415 6.137.195 2.7.195 2.7.125 5.688l-.055 3.011L73 134h4v2l-1.812.188c-2.455.649-2.455.649-3.688 3.375L70 142h-4l1-2 2 1v-2h-2l1-35-6-2c-.962-1.731-1.92-3.467-2.79-5.246-2.2-3.188-5.695-4.38-9.21-5.754z"/><path fill="#E9EBF2" d="M82.875 80.313C85 82 85 82 86 85l-2 1 3 2-1 4v-2l-1.062 1.563C83 93 83 93 79.312 92.687L76 92l1-5-3 1c-.733 2.015-.733 2.015-1 4l-7 2v-3l-7-1v-3l2.152-.77 2.785-1.043 2.778-1.019C69.334 83.166 69.334 83.166 70 80c4.597-1.532 8.421-1.72 12.875.313"/><path fill="#5C9589" d="M62 33c1.16 3.478.708 5.459 0 9l2.484-.07 3.266-.055 3.234-.07c2.94.19 4.54.668 7.016 2.195-.486 6.321-.486 6.321-2.75 9.313C72.859 55.106 70.877 56.189 68 57l-3-1 3-5h-2c-3-3.462-3-3.462-3-6l-3.187.688c-4.333.355-5.533.06-8.813-2.688-2.375-3-2.375-3-4-6l1-3 2.93 5.371c.984 1.795.984 1.795 3.07 2.629v2l2-1 .375-1.812C57.202 38.293 58.833 37.032 61 35z"/><path fill="#E3E9F3" d="M62 21c4.952-.291 8.102-.23 12 3 1.543 2.94 2 4.668 2 8h-2l-.25 2.313C73 37 73 37 71.375 38.75 68.293 40.372 65.443 40.669 62 41c-1-2-1-2-.5-5.312.46-3.388.598-5.485-.5-8.688l-3-2h2v-2h2z"/><path fill="#5BAB96" d="m58 21 2 1c.5 1.625.5 1.625 1 4l1.313 3.375C63 33 63 33 61.25 36.375 59 39 59 39 57 40v4h-3v-2l-1.875-.625C49.101 39.418 48.874 37.427 48 34l-.875-2.625C47 29 47 29 48.5 26.813c3.04-2.205 5.863-2.974 9.5-3.813z"/><path fill="#A2A5B1" d="M45 65c1 2 1 2 .813 5.75C45.796 75.29 46.92 77.544 50 81a101 101 0 0 0 7.172 4.605L59 87v3l7 1v2c-4.007 1.089-6.55.834-10.5-.375C52.011 91.576 48.584 90.662 45 90l-1-3h2l-2-2.875c-2.618-4.583-2.758-8.966-2-14.125 1.5-3.125 1.5-3.125 3-5"/><path fill="#6A8FB9" d="m50 43 2.563 1c3.44 1.185 3.44 1.185 7.187.938L63 45c2 3 2 3 1.938 5.438C63.676 53.886 62.105 55.094 59 57c-2.434.355-2.434.355-5 0-2.02-1.75-2.02-1.75-3.812-4l-1.833-2.25L47 49l3-1 1-2-2-1z"/><path fill="#EFF3F7" d="M18 13c6 0 6 0 8.375.938 2.294 2.911 2.126 5.272 1.938 8.898C28 25 28 25 26.938 27.563 25 29 25 29 18 29z"/><path fill="#C0C2CC" d="M116 126h1c.108 2.103.186 4.208.25 6.313l.14 3.55C117 139 117 139 115.263 140.871c-5.01 2.5-10.913 2.682-16.262 1.129v-2l-2-1c-.074-3.343-.065-5.804 1-9 2.063-.687 2.063-.687 4-1v3l3 2 1 2h9z"/><path fill="#62768D" d="M5 5h23l1 2L7 6q-.036 9.93-.055 19.86-.008 3.379-.02 6.758-.018 4.855-.023 9.71l-.015 3.053v2.85l-.007 2.504C6.997 52.95 7.384 54.873 8 57l8 1V40l2-1v20H5z"/><path fill="#9AA4B0" d="m79 112 2 4h-2v9h2v2h2l2 6-3 2v-3l-4-1v2h-5a519 519 0 0 1-.625-6.25l-.352-3.516C72 120.036 72.16 118.568 74 116c2.625-1.25 2.625-1.25 5-2z"/><path fill="#627A94" d="M38 10c2 1 2 1 2.61 2.695 1.006 5.942 1.112 12.058-.735 17.805C36.948 34.403 33.593 36.47 29 38c-1.895.069-3.792.085-5.687.063l-3.012-.028L18 38v-2l11-2v-2l7-1 1-3h-2l2-4h2v-8h-2l-1-4h2z"/><path fill="#5A789F" d="M178 4c4.3-.195 6.009.004 10 2v9l-3.14-.254-4.11-.309-2.066-.17c-3.426-.249-6.411-.406-9.684.733v-3c3.215-1.607 6.436-1.057 10-1l-1-2h-2V7h-6V6h8z"/><path fill="#757782" d="M59 59a70 70 0 0 1-6.562 3.875C49.54 64.531 47.913 65.651 47 69c-.353 3.237-.215 4.656 1.531 7.457l1.969 2.356 1.969 2.394L54 83h-3c-3.959-4.336-6.146-6.79-6.062-12.625l.027-2.477L45 66c-2.635 4.546-2.574 8.864-2 14 1.35 2.925 1.35 2.925 3 5v2h-2c-2.96-5.146-4.743-10.163-3.598-16.078C42.1 65.66 44.825 62.566 49 59c3.694-1.231 6.206-.644 10 0"/><path fill="#858D9C" d="m75 130 1 3h2v-2l4 1c1.297 4.61.711 8.338 0 13h-2l-1-3-1 3h-4v-5l-1 4-3-1 2-6 5-1v-2l-4-1h2z"/><path fill="#F5F8FB" d="M62 21h5v2h2c.196 1.436.381 2.874.563 4.313l.316 2.425C70 32 70 32 69 35l-6 1-.332-1.898-.48-2.477-.458-2.46c-.605-2.523-.605-2.523-3.73-4.165h2v-2h2z"/><path fill="#A1A9B7" d="m84 97 2-1c-1.283 2.862-2.53 5.025-5 7h-3l-3 .688c-3 .312-3 .312-4.875-1.063C69 101 69 101 69 100l-2-1 1-2-3-1c6.892-1.723 12.404-1.356 19 1"/><path fill="#D9DDE4" d="m94 113-2 2 2 2-1 2 2 2c-.033 2.729-.564 5.297-1 8-2.312.313-2.312.313-5 0-2.046-2.47-2.905-4.256-3.312-7.437.381-3.131 1.004-5.685 2.312-8.563 2.59-1.214 3.43-1.285 6 0"/><path fill="#6887A6" d="M82 38h1c.558 5.581-.902 9.458-4 14-3.21 3.45-6.218 6.312-11 7a109 109 0 0 1-6.25-.437l-3.266-.31L56 58l3-2a283 283 0 0 0 5-5l2-2v2h2l-2 5c3.957-.837 6.442-1.457 9.375-4.312C76.987 49.02 77.649 47.074 78 44l3 1z"/><path fill="#C0C4CD" d="M86 133c5.484-.366 5.484-.366 7.719 1.219 1.716 2.386 1.424 3.608.969 6.469l-.364 2.449L94 145c-4.75.125-4.75.125-7-1l-1-3-2-1c.875-4.75.875-4.75 2-7"/><path fill="#94B1CD" d="M74 25c3 1 3 1 5 4 .232 4.173-.016 7.94-1 12-3.422 1.14-6.087 1.098-9.687 1.063l-3.575-.028L62 42l1-2q3.49-1.034 7-2c3.357-2.238 3.92-3.219 5-7-.308-2.153-.308-2.153-1-4z"/><path fill="#D6D8E2" d="M92.262 85.688c3.626.413 4.938 1.816 7.55 4.312l2.395 2.25L104 94l-2 2a140 140 0 0 1-4-1 70 70 0 0 0-4 1h-4v-2h-2c1-7.862 1-7.862 4.262-8.312"/><path fill="#6A86A3" d="M140 51h7l1 7c-5.217 1.739-9.488 2.467-15 2l-2-3h3v-2h5z"/><path fill="#8A8F9D" d="m50 90 2.23.656 2.958.844 2.917.844c2.752.624 5.092.67 7.895.656 1.813 1.313 1.813 1.313 3 3v3l2 1v2l1 2c-3.472-.325-6.714-.806-10-2-2.125-3.375-2.125-3.375-2.93-5.246C57.072 93.48 53.458 92.35 50 91z"/><path fill="#617994" d="M239 4c6.816-.333 11.921-.242 18 3l-1 7a691 691 0 0 1-6.312-.375c-1.172-.07-2.344-.14-3.551-.21C243 13 243 13 240 11h15V7l-1.977.254c-4.905.572-9.154.9-14.023-.254z"/><path fill="#77CCA6" d="M57 27c1.938.625 1.938.625 4 2 1.063 2.813 1.063 2.813 1 6-2.187 2.875-2.187 2.875-5 5h-4c-.634-4.041-1.124-7.907-1-12l5 2z"/><path fill="#2A655D" d="M71 42c5.875.875 5.875.875 7 2-.214 3.776-.44 6.26-2.75 9.313C72.859 55.106 70.877 56.189 68 57l-3-1 3-5h-2l-2-4 8 2 1-2 3-2-5-1z"/><path fill="#9598A1" d="M81 76c6.702 1.936 6.702 1.936 9 5v2l7 1v3l-7-2-.367 2.152-.508 2.785-.492 2.778L88 95l-2 1 .188-3.812c.048-3.358.048-3.358-1.688-6.188L83 85l2-1c-1.293-2.884-2.66-4.872-5-7z"/><path fill="#58779C" d="m109 55 3 1-1 2c-2.504.414-2.504.414-5.562.625l-3.067.227L100 59v1h-5v-2l-2-1 1-2-2-1c5.747-1.483 11.958-2.361 17 1"/><path fill="#F7F8F9" d="m87 102 1 2h11v4c-6.277 4.062-6.277 4.062-9.937 3.75L87 111c-.845-3.378-1.108-5.675 0-9"/><path fill="#CDD2DA" d="M70 85v2l-2 1h5v4l-7 2v-3l-7-1v-3c4.103-2.386 6.386-3.493 11-2"/><path fill="#4F789F" d="M110 39c4.75.875 4.75.875 7 2 .125 6.75.125 6.75-1 9h-2l-1 2-3-1c-1.391-7.826-1.391-7.826 0-12"/><path fill="#6D6F78" d="M91 130h4l-1 4h2l1-2c.563 1.938.563 1.938 1 4l-1 1c-.393 1.679-.74 3.369-1.062 5.063L95 147l13-3c-2.288 3.433-3.644 3.788-7.559 4.66-4.469.622-8.94.489-13.441.34l1.89-.86c2.898-1.566 3.756-3.161 5.11-6.14.584-3.085.584-3.085 0-6-1.88-1.913-1.88-1.913-4-3z"/><path fill="#7F8794" d="M81 104v2l1.813.25c2.81.963 3.466 2.384 5.187 4.75 2.083 1.252 2.083 1.252 4 2-2.25.313-2.25.313-5 0-2.187-2.437-2.187-2.437-4-5l-2-1-1 3-8-1v2l2 1q-1.47 1.53-3 3h-1v-8q1.903-.758 3.813-1.5l2.144-.844C78 104 78 104 81 104"/><path fill="#F4F7F8" d="m173.188-.062 2.271.013q2.77.02 5.541.049v1l-5 1 4 2-2.598.113C170.948 4.484 165.73 4.935 160 8V5h2V1c3.763-1.254 7.272-1.107 11.188-1.062"/><path fill="#A5A8B4" d="M97 136c2 3.75 2 3.75 2 6l5-1v2l7-1-2 4-3-1a505 505 0 0 0-6 2 94 94 0 0 1-5 0q.21-2.47.438-4.937c.08-.917.162-1.834.246-2.778C96 137 96 137 97 136"/><path fill="#5E7790" d="m224 49 19 2-1 2h-8v1h-9l1 2c3.03.658 3.03.658 6 1v1c-6.152.098-6.152.098-8 0-1-1-1-1-1.125-3.937C223 51 223 51 224 49"/><path fill="#657A8F" d="M174 30a2399 2399 0 0 1 8.938-.062l2.576-.026 2.45-.01 2.27-.016C192 30 192 30 193 31c.087 1.562.107 3.127.098 4.691l-.01 2.862-.025 3.01-.014 3.021Q193.03 48.292 193 52h-1l-1-20-15-1c2.104 4.236 2.104 4.236 6 6h-8z"/><path fill="#71869B" d="M223 22h2l1 5 3-1 .813 2.438L231 31l3 1v2l2.375.375C239 35 239 35 241 37c-3.36 1.12-3.727 1.02-6.75-.437-4.7-2.499-8.425-6.043-11.25-10.563z"/><path fill="#BCC0CC" d="m46 78 8 6 2.266 1.512L58 87v3c-1.462-.229-2.92-.484-4.375-.75l-2.46-.422C49 88 49 88 47.784 86.055L47 84l-1.187-2.125L45 80z"/><path fill="#7C8086" d="M69 78h1v5c-7.808 4.043-7.808 4.043-12.5 3.875C55 86 55 86 54 84h6l1-3q3.467-1.115 7-2z"/><path fill="#778786" d="m58 21 2 1c.5 1.625.5 1.625 1 4q.992 3.502 2 7l-3-1v-3l-2-1-1 2c-2.929-.628-5.361-1.586-8-3 2.686-2.686 5.376-3.06 9-4z"/><path fill="#517AA5" d="M241 7h14v4h-15z"/><path fill="#4A5D5F" d="M65 20h-3v3h-3a89 89 0 0 0-4 2l-2.625.938c-2.683.947-2.683.947-4.375 4.062.308 2.153.308 2.153 1 4l-4-2c1.384-5.228 4.64-8.081 9-11 3.965-1.546 6.937-2.625 11-1"/><path fill="#D6D8DB" d="M80 79c2.938 1.5 2.938 1.5 5 3l-1 2-5-1 1 5h-2l-1-3-2-1 1-2-6-1c3.726-2.484 5.587-2.38 10-2"/><path fill="#8E8F95" d="M107 95h2c.18 3.947.094 6.598-2 10l3 1c-2.49.687-4.379 1-7 1-1.831 1.228-3.484 2.6-5.184 4.004C96 112 96 112 93.777 111.652L92 111c.76-.47 1.519-.941 2.3-1.426l3.013-1.886 2.988-1.864c4.568-3.042 4.568-3.042 6.386-8.011z"/><path fill="#899AAF" d="m91 50 1.938.438c4 .734 8.017 1.148 12.062 1.562v1l-11 2 1 5-5-2z"/><path fill="#DDDCE2" d="M113 123c2.246 1.774 2.95 2.584 3.293 5.48l-.106 2.708-.082 2.73L116 136l-4 1-1-7h2z"/><path fill="#6381A3" d="M109 44h1l1 7 2-3c.625 2.813.625 2.813 1 6l-2 3-7-2v-3l3-2c.167-2.542.167-2.542 0-5z"/><path fill="#8C94A1" d="M85 96c0 3 0 3-1.812 5.188C81 103 81 103 78 103q-3.005.47-6 1l1-5c4.54-1.135 4.54-1.135 7.125-.375L82 99c1.772-1.354 1.772-1.354 3-3"/><path fill="#72879E" d="M91 24c2.259 2.259 2.345 2.97 3 6 .872 4.971.872 4.971 4.125 8.438L100 39v3c-3.913-1.27-5.856-2.463-8-6-.96-2.882-1.106-4.699-1.062-7.687l.027-2.45z"/><path fill="#5E7590" d="M126 37c2.741 2.741 2.328 4.552 2.5 8.375.184 4.075.351 7.107 2.5 10.625l3-1 2 4c-5.501-1.467-5.501-1.467-7.812-3.937-2.297-3.989-2.295-7.233-2.25-11.75l.027-3.575z"/><path fill="#36666F" d="m47 34 1.25 1.75c1.721 2.32 1.721 2.32 3.938 4.375C54 42 54 42 54 44l2-1v-3h2l1 3h5l-1 4v-2l-3.187.688c-4.333.355-5.533.06-8.813-2.688-4-5.19-4-5.19-4-9"/><path fill="#B4B8C5" d="m68 92 18 2-2 4-2.437-1c-3.772-1.059-6.74-1.086-10.61-.875C69 96 69 96 67 94z"/><path fill="#5C7386" d="M82 38h1c.561 5.612-1.09 9.346-4 14-2.125 2.5-2.125 2.5-4 4h-2a56.5 56.5 0 0 1 4-7 75 75 0 0 0 1-5l3 1z"/><path fill="#57779E" d="m100 18 9 2c-2 3-2 3-4.602 3.73l-3.023.457c-1.003.16-2.006.318-3.04.481L96 25l1-4 4-1z"/><path fill="#6E7F98" d="m184 5 4 1v9l-8-1v-2l5-1-.5-1.875C184 7 184 7 184 5"/><path fill="#DEE2E7" d="M88 133c4.875.875 4.875.875 6 2 .04 1.666.043 3.334 0 5h-4v-2h-3z"/><path fill="#656777" d="m50 90 2.23.656 2.958.844 2.917.844c2.836.772 2.836.772 5.57.562C66 93 66 93 67.814 94.5L69 96c-1.601.25-3.206.474-4.812.688l-2.708.386C59 97 59 97 57.375 95.625L56 94a134 134 0 0 0-6-3z"/><path fill="#A8ADB9" d="m58 87 1 3 7 1v2c-4.152 1.19-6.387.79-10.312-.937l-2.676-1.153L51 90v-1l7 1z"/><path fill="#B4C9DB" d="M74 32h2c-.555 3.327-1.24 6.101-3 9-2.405 1.203-3.95 1.1-6.625 1.063l-2.477-.028L62 42l1-2q3.49-1.034 7-2c3.125-1.635 3.125-1.635 3.688-4.125z"/><path fill="#747B85" d="M68.313 19.063c5.81 1.477 9.025 4.563 12.124 9.5C82 32 82 32 81.75 34.438L81 36l-1.187-3.187c-1.9-4.428-4.67-7.384-8.688-10.063C68.135 21.695 65.14 21.362 62 21c3-2 3-2 6.313-1.937"/><path fill="#DBE4E8" d="M83 36h1v15l-4 2c-1.71 1.541-1.71 1.541-3 3l-2-1 2.375-2.687C81.595 47.199 82.343 42.457 83 36"/><path fill="#9097A4" d="m83 138 1 2 3 1 3 3 3 1-1 2c-2.812.313-2.812.313-6 0-2.704-3.244-3-4.709-3-9"/><path fill="#D0D1D6" d="M104 105c5.75 3.625 5.75 3.625 8 7-3.344-.557-6.033-1.352-9-3l-3 2-3-1z"/><path fill="#E5E9EE" d="m79 83 7 1-2 2 2 1v2l-8 1v-2h2z"/><path fill="#7F838E" d="M59 59a61 61 0 0 1-7.187 4.125l-2.168 1.07L48 65v-2l-2-1c4.094-4.484 7.224-3.98 13-3"/><path fill="#CED8E9" d="m73 30 3 1-2 1-.375 2.375C73 37 73 37 71.375 38.75 68.293 40.372 65.443 40.669 62 41v-3l3.313-.437C68.93 37.117 68.93 37.117 72 36l-.062-2.437C72 31 72 31 73 30"/><path fill="#78787D" d="m80 75 2 1-1 2 3 3-1.672-.496c-2.594-.562-4.926-.601-7.578-.567l-2.703.028L70 80v-3c.957-.09.957-.09 1.934-.184l2.504-.254c.823-.08 1.647-.162 2.496-.246 2.053-.105 2.053-.105 3.066-1.316"/><path fill="#697990" d="M16 12h2v17c-2.844-2.844-2.442-5.101-2.687-9.062l-.262-3.848L15 13z"/><path fill="#D0D3D6" d="m101 129 1 3 3 2-4 3-4-2 1-5z"/><path fill="#4C5D74" d="m47 50 1.46 1.277 1.915 1.66 1.898 1.653c3.202 2.615 5.786 2.67 9.852 2.972l3.32.254L68 58v1H51v-3a181 181 0 0 0-4-4z"/><path fill="#567597" d="M110 39c2 1 2 1 3 2a102 102 0 0 1-.437 5.563l-.31 3.066L112 52l-2-1c-.942-4.333-1.417-7.748 0-12"/><path fill="#6D83A1" d="M99.125 18.25C101 19 101 19 102 21l-5 1 .188 2.375L97 27l-3 2v-5h-2c1.485-3.428 2.886-6.249 7.125-5.75"/><path fill="#697D96" d="M101 17q3.188-.079 6.375-.125l3.586-.07C114 17 114 17 116 19c-4.03 1.343-7.798 1.267-12 1-1.746-1.516-1.746-1.516-3-3"/><path fill="#66778D" d="M118 42h2c.767 8.776.767 8.776-1.113 11.777C117.5 55.125 117.5 55.125 115 57l-1-2 1-2h2z"/><path fill="#75869E" d="m134 6 2 1-2 3h-3l-.812 2.25c-1.13 2.616-2.397 4.552-4.188 6.75-.7-5.166-.7-5.166 0-8 2.351-2.308 4.908-3.864 8-5"/><path fill="#AFB1B9" d="M71 139c2.375-.187 2.375-.187 5 0 2 3 2 3 2 6h-4v-5l-1 4-3-1z"/><path fill="#6384A3" d="m158 48 3 1v2h2c-1 3-1 3-3 4l2 3-5-2c0-2.84.403-5.237 1-8"/><path fill="#6C8197" d="M151 32h1l.184 2.371.254 3.066.246 3.06c.048 2.44.048 2.44 1.316 3.503.04 2 .043 4 0 6-3.166-3.166-4.13-5.553-4.187-10 .067-2.796.296-5.327 1.187-8"/><path fill="#607697" d="M186 11c-5.535 2.094-11.188 3.028-17 4v-3c2.8-1.4 5.386-1.384 8.5-1.625 1.165-.095 2.33-.19 3.531-.29C184 10 184 10 186 11"/><path fill="#919BAA" d="m74 125 2 2 2-1c1.125 4.75 1.125 4.75 0 7h-5q-.061-3.5 0-7z"/><path fill="#D8D9DC" d="M81 76c6.702 1.936 6.702 1.936 9 5v2l-3 1-7-7z"/><path fill="#9A9A9D" d="M79.063 73.563C84.162 74.129 87.497 76.26 91 80v3l-2.687-2.375C85.679 78.439 83.353 76.906 80 76l-3 1-2-2c1-1 1-1 4.063-1.437"/><path fill="#54779C" d="m171.125 51.938 2.758.59L176 53c-3.755 3.165-6.094 3.283-11 3l-1-4c2.722-1.361 4.183-.704 7.125-.062"/><path fill="#DBE6EF" d="M240 38h2v2l4 2v6l-5 2v-2h2c.25-2.916.25-2.916 0-6l-3-2z"/><path fill="#D9EFE6" d="M57 27c1.938.625 1.938.625 4 2 .75 3.125.75 3.125 1 6l-6-1-1-4h2z"/><path fill="#6A819A" d="M28 18h2l2 7-2 1-1 3-4-1 2-3c.394-2.324.735-4.658 1-7"/><path fill="#657992" d="M136 6h2v13l-2-1v-8h-2z"/><path fill="#597694" d="m236 10 3 1-2 4h-2v5h-2c-1.125-3.75-1.125-3.75 0-6h2l-1-3z"/><path fill="#DCE3E9" d="M41 16h1l.184 2.3.254 3.012.246 2.989c.234 2.793.234 2.793 1.316 5.699l-2 2h-3z"/><path fill="#73869D" d="M240 24q2.472.676 4.938 1.375l2.777.773C250 27 250 27 251 29l-3.812.125-2.145.07C243 29 243 29 240 27z"/><path fill="#71859B" d="M155 12c1 2 1 2 .547 4.059l-.797 2.378-.766 2.372c-1.026 2.283-2.113 3.556-3.984 5.191.257-1.586.531-3.168.813-4.75l.457-2.672c.784-2.77 1.876-4.404 3.73-6.578"/><path fill="#959FB0" d="m65 96 8 1 1 5-3 1-2-2v-1l-2-1 1-2z"/><path fill="#D7DAE2" d="m77 88 1 2 9-2-1 4v-2l-1.062 1.563C83 93 83 93 79.312 92.687L76 92z"/><path fill="#2D5662" d="m73 50 2 1c-1.05 2.865-1.701 3.84-4.437 5.313C68 57 68 57 65 56c1.75-2 1.75-2 4-4h4z"/><path fill="#6FBDA4" d="M48 28h4l1 6h-4l-2-5z"/><path fill="#667E97" d="M223 22h2l1 5 3-1 1 5c-3.653-1.25-4.78-1.671-7-5z"/><path fill="#7B7F88" d="m83 143 1.188 1.438c2.241 1.932 3.94 2.001 6.812 2.562 2.313 1.563 2.313 1.563 4 3-1.437.081-2.874.14-4.312.188l-2.426.105C86 150 86 150 84.207 148.738 83 147 83 147 83 143"/><path fill="#ABB1BC" d="M84 136h2v3h3v3h3v2l-3 1c-2-1-2-1-3-4l-2-1z"/><path fill="#CCD2DA" d="M86 119h5l-2 1 1 8c-3.938-3.323-3.938-3.323-4.25-6.75z"/><path fill="#557596" d="M246 41c2.09 4.18 2.166 4.804 1 9h2v2l-5 1z"/><path fill="#5176A0" d="m130 48 3 1v2l2-2 2 5c-1.812.688-1.812.688-4 1-1.75-1.187-1.75-1.187-3-3z"/><path fill="#3E8A6F" d="m72 43 5 2-1 2h-2l-1 2h-5v-2h3z"/><path fill="#637A92" d="m166 15 2 1-5 10-2-3c.936-4.17 1.376-5.584 5-8"/><path fill="#6C8299" d="m38 10 2 1c1.368 6.043 1.368 6.043.063 9.438L39 22v-6h-2l-1-4h2z"/><path fill="#CDD0D9" d="m106 136 9 1-3 4-6-2z"/><path fill="#51749E" d="M179 51h6l-2 3h-3zm1 3 1 3-5 1-1-3c3-1 3-1 5-1"/><path fill="#A5DCC3" d="m52 28 2.25 2.375c2.294 2.19 3.872 3.452 6.75 4.625l-2 4c-2.956-2.752-5.116-5.42-7-9z"/><path fill="#9A9DA9" d="M97 136c1.108 3.325.845 5.622 0 9l3 1v1h-5q.21-2.47.438-4.937c.08-.917.162-1.834.246-2.778C96 137 96 137 97 136"/><path fill="#929595" d="M101 127v3h-3l1 3-5 1v-5c4.75-2 4.75-2 7-2"/><path fill="#CCD0D8" d="m94 113-2 2 2 2-7 1 1-5c3.75-1.125 3.75-1.125 6 0"/><path fill="#677F96" d="M118 19c.043 1.666.04 3.334 0 5-1 1-1 1-3.562 1.063L112 25v-2h2l-1-3c3.875-1 3.875-1 5-1"/><path fill="#7489A7" d="M138 17h8l-2 2c-.167 2.584-.167 2.584 0 5h-2v-3h-2v-3z"/><path fill="#7F92A6" d="m171 5-6 1v2c-2.5 1.625-2.5 1.625-5 3l-2-2c8.04-5.54 8.04-5.54 13-4"/><path fill="#B3BCC4" d="m86 113 2 1-1 3h-2v6c-2-2-2-2-2.312-5l.312-3z"/><path fill="#5B7692" d="m112 34 1 4-1-2-2.312.688L107 37c-1.812-1.437-1.812-1.437-3-3 3.29-1.097 4.713-.8 8 0"/><path fill="#D1D7E0" d="M67 21c2.813.625 2.813.625 6 2 1.875 3.125 1.875 3.125 3 6h-3l-.75-2.437c-.972-2.734-.972-2.734-3.375-3.375L67 23z"/><path fill="#6788A6" d="M178 4h6c-2.688 2.252-4.646 3.882-8 5V7h-6V6h8z"/><path fill="#8B90A1" d="m73 136 7 1-1 3-7-1z"/><path fill="#575B5D" d="M91 130h4l-1 4h2l1-2v3l-3 1c-2.187-1.437-2.187-1.437-4-3z"/><path fill="#CFD8E0" d="m63.688 58.938 2.449.027L68 59v1l-9 1v2l-5-1c3.027-3.027 5.6-3.122 9.688-3.062"/><path fill="#6C86A5" d="M82 34c1.6 4.002.293 7.046-1 11l-4-2 4-1-.625-1.75c-.462-2.77.196-3.896 1.625-6.25"/><path fill="#617893" d="m125 17 1 2h-2l-1 6h-2v-7z"/><path fill="#758C9E" d="M28 5c3.958.565 6.666 1.809 10 4-2.666.987-3.901 1.028-6.687.25C29 8 29 8 28 5"/><path fill="#757C85" d="m86 130 4 1v2h-4l-2 5-2-1z"/><path fill="#ADBABE" d="m58 21 2 1v3l-1.937.313L56 26l-1 3-1-3-3-1 7-2z"/><path fill="#CCCDD6" d="M75 79c6.625.75 6.625.75 10 3l-1 2-4-1v-2l-5-1z"/><path fill="#8C8E92" d="M47 75c2.964 2.808 5.445 5.183 7 9-3.795-1.491-5.61-3.757-8-7z"/><path fill="#617CA3" d="M21 8h3c2.188 2.5 2.188 2.5 4 5h-2l-1 2c-2-1.812-2-1.812-4-4z"/><path fill="#B4B8C2" d="M98 136h4l-1 6h-2v-2l-2-1z"/><path fill="#F2F9F0" d="M82 32h4v6l-2 1z"/><path fill="#53748F" d="m97 24 2 1v4l4 2c-3.106 0-4.353-.54-7-2z"/><path fill="#E4E5EA" d="m103 108 5 3c-3.073.91-5.801 1.089-9 1z"/><path fill="#CED0DC" d="m90 86 3 1-.937 1.813C90.898 91.09 90.898 91.09 90 94h-2c.875-6.875.875-6.875 2-8"/><path fill="#969BA5" d="m44 87 8 1-2 3-5-1z"/><path fill="#AAA9B4" d="m69 78 1 2-2 3-7-1v-1l3.438-.937c3.35-.692 3.35-.692 4.562-2.063"/><path fill="#5F768F" d="M142 52h5l1 6h-2l-1-4h-3z"/><path fill="#6F809A" d="m255 52 1 2c-2.528 2.799-4.204 4.458-8 5v-2h3l.875-1.937C253 53 253 53 255 52"/><path fill="#547FA6" d="m112 39 5 2v3l-4 1v-4l-2-1z"/><path fill="#E5E4EA" d="M113 123c1.5 1.25 1.5 1.25 3 3v4h-3z"/><path fill="#E6E9EC" d="M95 122c1.206 2.332 2.165 4.496 3 7h-4c-.043-2-.04-4 0-6z"/><path fill="#8A8F9D" d="m70 107 2 1v2l2 2q-1.47 1.53-3 3h-1z"/><path fill="#EDEEF2" d="m109 97 2 2a70 70 0 0 1-1 4l1 2h-4z"/><path fill="#B0B2C2" d="M60 90q3.012.43 6 1v2l-5 1-2-3z"/><path fill="#EDF0F6" d="m79 83 7 1-5 4c-2-3-2-3-2-5"/><path fill="#5C7F75" d="M62 33c1.208 3.623.543 4.641-1 8l-4-1 1.938-2.375C60.98 35.205 60.98 35.205 62 33"/><path fill="#B1BFD1" d="M74 25c3 1 3 1 4.188 3.063L79 30l-4 1c-.553-2.076-1-3.844-1-6"/><path fill="#658196" d="M104 23v2l-2 1-1 3h-2l-1-4c3.75-2 3.75-2 6-2"/></svg>