<?xml version="1.0" standalone="no"?>
<!DOCTYPE svg PUBLIC "-//W3C//DTD SVG 20010904//EN"
 "http://www.w3.org/TR/2001/REC-SVG-20010904/DTD/svg10.dtd">
<svg version="1.0" xmlns="http://www.w3.org/2000/svg"
 width="225.000000pt" height="225.000000pt" viewBox="0 0 225.000000 225.000000"
 preserveAspectRatio="xMidYMid meet">

<g transform="translate(0.000000,225.000000) scale(0.100000,-0.100000)"
fill="#000000" stroke="none">
<path d="M1003 1935 c-160 -35 -295 -156 -359 -320 -27 -70 -27 -249 0 -320
86 -226 314 -364 539 -327 343 58 524 431 354 732 -66 116 -191 206 -326 235
-86 18 -125 18 -208 0z m287 -82 c184 -85 292 -292 251 -482 -29 -137 -115
-247 -239 -308 -69 -35 -83 -38 -177 -41 -95 -4 -106 -2 -176 27 -108 45 -178
110 -229 214 -68 139 -66 258 8 400 35 69 107 143 166 174 84 44 129 53 231
50 86 -3 109 -8 165 -34z"/>
<path d="M820 1661 c-44 -6 -46 -8 -66 -61 -12 -30 -25 -70 -29 -88 l-7 -33
101 7 c100 7 281 -10 281 -26 0 -20 -189 -74 -297 -85 l-71 -7 9 -30 c11 -40
51 -106 88 -145 29 -30 33 -31 68 -21 64 17 153 63 267 137 60 39 113 71 118
71 11 0 118 -81 137 -104 20 -24 28 -20 45 27 27 72 36 135 30 192 -9 78 -17
85 -84 71 -52 -11 -59 -10 -125 20 -95 42 -172 62 -285 74 -101 10 -110 10
-180 1z m525 -221 c-3 -5 0 -10 7 -10 9 0 9 -3 -2 -10 -20 -13 -33 -13 -25 0
3 6 2 10 -3 10 -5 0 -12 -9 -15 -20 -6 -25 -28 -26 -58 -1 l-24 20 25 10 c33
13 103 14 95 1z"/>
<path d="M1255 1430 c-16 -7 -17 -9 -3 -9 9 -1 18 -5 20 -11 2 -6 8 -6 18 0
12 8 12 10 -5 11 l-20 0 20 9 c13 5 14 9 5 9 -8 0 -24 -4 -35 -9z"/>
<path d="M1261 814 c-15 -19 -21 -41 -21 -75 0 -46 -2 -49 -25 -49 -18 0 -25
-5 -25 -20 0 -15 7 -20 25 -20 l25 0 2 -162 c3 -145 5 -163 20 -166 16 -3 18
12 20 160 l3 163 38 3 c29 3 37 7 37 23 0 16 -7 19 -40 19 l-40 0 0 45 c0 49
23 72 60 60 15 -5 20 -2 20 13 0 40 -69 44 -99 6z"/>
<path d="M295 811 c-54 -23 -79 -95 -51 -149 8 -16 48 -57 88 -89 91 -74 115
-112 98 -154 -17 -39 -46 -59 -88 -59 -26 0 -43 9 -73 39 -31 31 -42 36 -54
27 -13 -10 -13 -15 7 -43 30 -42 74 -63 133 -63 42 0 52 5 86 39 34 33 39 45
39 82 -1 61 -16 84 -112 165 -69 58 -84 76 -86 103 -7 69 67 96 126 46 18 -15
37 -23 46 -19 23 9 20 18 -19 53 -28 25 -44 31 -78 30 -23 0 -51 -4 -62 -8z"/>
<path d="M1106 689 c-16 -4 -39 -18 -52 -30 l-24 -22 0 26 c0 20 -5 27 -20 27
-20 0 -20 -5 -18 -182 3 -165 5 -183 21 -186 15 -3 17 7 17 95 1 162 29 233
91 233 34 0 60 35 31 42 -9 3 -30 1 -46 -3z"/>
<path d="M1558 690 c-107 -32 -160 -132 -128 -244 13 -48 59 -99 103 -115 76
-29 189 2 225 62 15 24 15 29 2 37 -10 6 -23 -1 -47 -25 -76 -79 -210 -50
-244 52 -6 19 -9 36 -6 39 2 3 77 5 166 6 179 1 171 -3 149 70 -14 48 -73 103
-125 117 -43 12 -57 13 -95 1z m115 -51 c30 -16 53 -41 61 -67 7 -22 6 -22
-111 -23 -65 0 -126 -2 -135 -4 -10 -2 -18 2 -18 8 0 20 37 70 62 83 29 16
112 18 141 3z"/>
<path d="M1975 688 c-11 -6 -30 -20 -42 -31 l-23 -20 0 26 c0 20 -5 27 -20 27
-19 0 -20 -7 -20 -186 0 -171 1 -185 18 -182 15 3 18 20 23 128 7 155 27 200
90 200 25 0 51 23 38 34 -13 11 -47 14 -64 4z"/>
<path d="M582 558 c4 -149 14 -179 67 -215 45 -30 132 -32 178 -3 55 33 66 69
71 218 l4 132 -25 0 -25 0 -1 -127 c-1 -76 -7 -137 -14 -152 -25 -54 -119 -69
-170 -28 -35 28 -46 76 -47 210 0 92 -1 97 -21 97 -21 0 -21 -3 -17 -132z"/>
</g>
</svg>
