<?xml version="1.0" standalone="no"?>
<!DOCTYPE svg PUBLIC "-//W3C//DTD SVG 20010904//EN"
 "http://www.w3.org/TR/2001/REC-SVG-20010904/DTD/svg10.dtd">
<svg version="1.0" xmlns="http://www.w3.org/2000/svg"
 width="256.000000pt" height="256.000000pt" viewBox="0 0 256.000000 256.000000"
 preserveAspectRatio="xMidYMid meet">

<g transform="translate(0.000000,256.000000) scale(0.100000,-0.100000)"
fill="#000000" stroke="none">
<path d="M1112 2342 l-692 -147 -25 -52 -24 -53 27 0 c15 0 151 27 302 60 151
32 275 58 276 57 0 -1 48 -144 107 -317 143 -425 207 -634 199 -641 -4 -4
-164 -52 -357 -108 -192 -56 -369 -108 -392 -116 l-41 -13 -46 186 c-25 103
-68 284 -95 402 -28 118 -54 229 -59 245 l-9 30 -23 -50 c-12 -27 -31 -72 -42
-100 -11 -27 -23 -54 -27 -58 -4 -4 -28 84 -53 195 l-46 203 -1 -85 c-1 -72
17 -175 115 -655 222 -1086 250 -1219 260 -1221 5 -2 461 155 1014 349 l1005
352 3 123 3 122 -325 718 c-245 541 -329 717 -343 719 -10 1 -330 -64 -711
-145z m644 -17 c9 -25 23 -45 30 -45 16 0 19 -16 4 -25 -18 -11 -11 -27 10
-22 13 3 21 -1 26 -15 3 -11 3 -22 1 -25 -9 -8 -220 -63 -226 -58 -7 7 -82
188 -79 190 4 4 181 42 200 44 11 1 22 -14 34 -44z m-337 -119 c19 -52 34 -98
33 -103 -1 -7 -219 -62 -252 -63 -17 0 -88 185 -76 198 7 6 221 58 251 61 6 1
25 -41 44 -93z m511 -221 c22 -49 40 -91 40 -93 0 -2 -20 0 -44 3 -55 9 -210
-11 -292 -36 l-62 -19 -12 -68 c-23 -136 -127 -390 -150 -365 -11 12 -193 514
-188 518 2 2 136 33 298 70 162 37 309 71 325 75 17 4 34 7 38 6 4 -1 26 -41
47 -91z"/>
</g>
</svg>
